Gloock-Regular.ufo
<glyph name="quotedbl" format="2">
  <advance width="352"/>
  <unicode hex="0022"/>
  <outline>
    <contour>
      <point x="95" y="764" type="curve" smooth="yes"/>
      <point x="57" y="764"/>
      <point x="30" y="739"/>
      <point x="30" y="706" type="curve" smooth="yes"/>
      <point x="30" y="656"/>
      <point x="90" y="624"/>
      <point x="90" y="516" type="curve"/>
      <point x="100" y="516" type="line"/>
      <point x="100" y="624"/>
      <point x="160" y="656"/>
      <point x="160" y="706" type="curve" smooth="yes"/>
      <point x="160" y="739"/>
      <point x="132" y="764"/>
    </contour>
    <contour>
      <point x="256" y="764" type="curve" smooth="yes"/>
      <point x="218" y="764"/>
      <point x="191" y="739"/>
      <point x="191" y="706" type="curve" smooth="yes"/>
      <point x="191" y="656"/>
      <point x="251" y="624"/>
      <point x="251" y="516" type="curve"/>
      <point x="261" y="516" type="line"/>
      <point x="261" y="624"/>
      <point x="321" y="656"/>
      <point x="321" y="706" type="curve" smooth="yes"/>
      <point x="321" y="739"/>
      <point x="293" y="764"/>
    </contour>
  </outline>
</glyph>
<glyph name="numbersign" format="2">
  <advance width="574"/>
  <unicode hex="0023"/>
  <outline>
    <contour>
      <point x="226" y="452" type="line"/>
      <point x="383" y="452" type="line"/>
      <point x="347" y="298" type="line"/>
      <point x="191" y="298" type="line"/>
    </contour>
    <contour>
      <point x="118" y="-15" type="line"/>
      <point x="161" y="171" type="line"/>
      <point x="318" y="171" type="line"/>
      <point x="275" y="-14" type="line"/>
      <point x="288" y="-15" type="line"/>
      <point x="331" y="171" type="line"/>
      <point x="496" y="171" type="line"/>
      <point x="496" y="298" type="line"/>
      <point x="360" y="298" type="line"/>
      <point x="396" y="452" type="line"/>
      <point x="542" y="452" type="line"/>
      <point x="543" y="579" type="line"/>
      <point x="425" y="579" type="line"/>
      <point x="468" y="764" type="line"/>
      <point x="455" y="765" type="line"/>
      <point x="412" y="579" type="line"/>
      <point x="256" y="579" type="line"/>
      <point x="299" y="764" type="line"/>
      <point x="286" y="765" type="line"/>
      <point x="243" y="579" type="line"/>
      <point x="77" y="579" type="line"/>
      <point x="77" y="452" type="line"/>
      <point x="213" y="452" type="line"/>
      <point x="177" y="298" type="line"/>
      <point x="31" y="298" type="line"/>
      <point x="31" y="171" type="line"/>
      <point x="148" y="171" type="line"/>
      <point x="105" y="-14" type="line"/>
    </contour>
  </outline>
</glyph>
<glyph name="ampersand" format="2">
  <advance width="764"/>
  <unicode hex="0026"/>
  <outline>
    <contour>
      <point x="443" y="65" type="line"/>
      <point x="418" y="44"/>
      <point x="381" y="32"/>
      <point x="342" y="32" type="curve" smooth="yes"/>
      <point x="240" y="32"/>
      <point x="172" y="112"/>
      <point x="172" y="232" type="curve" smooth="yes"/>
      <point x="172" y="291"/>
      <point x="188" y="337"/>
      <point x="215" y="355" type="curve"/>
    </contour>
    <contour>
      <point x="232" y="636" type="curve" smooth="yes" name=".hr01"/>
      <point x="232" y="706"/>
      <point x="267" y="752"/>
      <point x="319" y="752" type="curve" smooth="yes"/>
      <point x="380" y="752"/>
      <point x="420" y="692"/>
      <point x="420" y="601" type="curve" smooth="yes"/>
      <point x="420" y="526"/>
      <point x="392" y="461"/>
      <point x="345" y="427" type="curve"/>
      <point x="295" y="488"/>
      <point x="232" y="553"/>
    </contour>
    <contour>
      <point x="713" y="14" type="line" smooth="yes"/>
      <point x="694" y="16"/>
      <point x="669" y="30"/>
      <point x="650" y="49" type="curve" smooth="yes"/>
      <point x="634" y="65"/>
      <point x="605" y="99"/>
      <point x="566" y="149" type="curve" smooth="yes"/>
      <point x="546" y="175" type="line"/>
      <point x="561" y="203"/>
      <point x="582" y="236"/>
      <point x="598" y="277" type="curve"/>
      <point x="621" y="341"/>
      <point x="656" y="377"/>
      <point x="697" y="382" type="curve" smooth="yes"/>
      <point x="715" y="384" type="line"/>
      <point x="715" y="395" type="line"/>
      <point x="509" y="395" type="line"/>
      <point x="509" y="384" type="line"/>
      <point x="529" y="382" type="line" smooth="yes"/>
      <point x="566" y="378"/>
      <point x="593" y="352"/>
      <point x="593" y="321" type="curve" smooth="yes"/>
      <point x="593" y="292"/>
      <point x="569" y="235"/>
      <point x="537" y="184" type="curve"/>
      <point x="352" y="417" type="line"/>
      <point x="457" y="466"/>
      <point x="521" y="542"/>
      <point x="521" y="617" type="curve" smooth="yes"/>
      <point x="521" y="702"/>
      <point x="437" y="764"/>
      <point x="319" y="764" type="curve" smooth="yes"/>
      <point x="190" y="764"/>
      <point x="104" y="691"/>
      <point x="104" y="581" type="curve" smooth="yes"/>
      <point x="104" y="520"/>
      <point x="124" y="474"/>
      <point x="187" y="390" type="curve" smooth="yes"/>
      <point x="207" y="363" type="line"/>
      <point x="92" y="311"/>
      <point x="28" y="237"/>
      <point x="28" y="157" type="curve" smooth="yes" name=".hr02"/>
      <point x="28" y="56"/>
      <point x="127" y="-14"/>
      <point x="267" y="-14" type="curve" smooth="yes"/>
      <point x="344" y="-14"/>
      <point x="397" y="7"/>
      <point x="451" y="58" type="curve"/>
      <point x="472" y="34"/>
      <point x="492" y="13"/>
      <point x="505" y="1" type="curve" name=".hr03"/>
      <point x="729" y="1" type="line"/>
      <point x="729" y="12" type="line"/>
    </contour>
  </outline>
</glyph>
<glyph name="quotesingle" format="2">
  <advance width="191"/>
  <unicode hex="0027"/>
  <outline>
    <contour>
      <point x="95" y="764" type="curve" smooth="yes"/>
      <point x="58" y="764"/>
      <point x="31" y="739"/>
      <point x="31" y="706" type="curve" smooth="yes"/>
      <point x="31" y="656"/>
      <point x="91" y="624"/>
      <point x="91" y="516" type="curve"/>
      <point x="101" y="516" type="line"/>
      <point x="101" y="624"/>
      <point x="161" y="656"/>
      <point x="161" y="706" type="curve" smooth="yes"/>
      <point x="161" y="739"/>
      <point x="133" y="764"/>
    </contour>
  </outline>
</glyph>
<glyph name="parenleft" format="2">
  <advance width="349"/>
  <unicode hex="0028"/>
  <outline>
    <contour>
      <point x="328" y="-148" type="line"/>
      <point x="251" y="-34"/>
      <point x="195" y="122"/>
      <point x="195" y="350" type="curve" smooth="yes"/>
      <point x="195" y="577"/>
      <point x="251" y="733"/>
      <point x="328" y="847" type="curve"/>
      <point x="322" y="854" type="line"/>
      <point x="191" y="771"/>
      <point x="30" y="605"/>
      <point x="30" y="350" type="curve" smooth="yes"/>
      <point x="30" y="95"/>
      <point x="191" y="-72"/>
      <point x="322" y="-155" type="curve"/>
    </contour>
  </outline>
</glyph>
<glyph name="asterisk" format="2">
  <advance width="334"/>
  <unicode hex="002A"/>
  <outline>
    <contour>
      <point x="297" y="689" type="curve"/>
      <point x="289" y="702"/>
      <point x="279" y="708"/>
      <point x="268" y="708" type="curve" smooth="yes"/>
      <point x="261" y="708"/>
      <point x="255" y="706"/>
      <point x="249" y="702" type="curve"/>
      <point x="227" y="689"/>
      <point x="221" y="653"/>
      <point x="171" y="622" type="curve"/>
      <point x="173" y="681"/>
      <point x="202" y="703"/>
      <point x="202" y="730" type="curve" smooth="yes"/>
      <point x="202" y="746"/>
      <point x="192" y="764"/>
      <point x="167" y="764" type="curve" smooth="yes"/>
      <point x="142" y="764"/>
      <point x="132" y="746"/>
      <point x="132" y="730" type="curve" smooth="yes"/>
      <point x="132" y="703"/>
      <point x="161" y="681"/>
      <point x="163" y="622" type="curve"/>
      <point x="113" y="653"/>
      <point x="107" y="689"/>
      <point x="85" y="702" type="curve"/>
      <point x="79" y="705"/>
      <point x="72" y="707"/>
      <point x="66" y="707" type="curve" smooth="yes"/>
      <point x="55" y="707"/>
      <point x="45" y="702"/>
      <point x="37" y="689" type="curve"/>
      <point x="25" y="668"/>
      <point x="35" y="650"/>
      <point x="49" y="642" type="curve" smooth="yes"/>
      <point x="72" y="629"/>
      <point x="106" y="642"/>
      <point x="159" y="614" type="curve"/>
      <point x="106" y="586"/>
      <point x="72" y="600"/>
      <point x="49" y="587" type="curve"/>
      <point x="35" y="578"/>
      <point x="25" y="561"/>
      <point x="37" y="539" type="curve" smooth="yes"/>
      <point x="44" y="526"/>
      <point x="55" y="521"/>
      <point x="66" y="521" type="curve" smooth="yes"/>
      <point x="72" y="521"/>
      <point x="79" y="523"/>
      <point x="84" y="526" type="curve" smooth="yes"/>
      <point x="107" y="539"/>
      <point x="113" y="575"/>
      <point x="163" y="607" type="curve"/>
      <point x="161" y="548"/>
      <point x="132" y="525"/>
      <point x="132" y="498" type="curve" smooth="yes"/>
      <point x="132" y="482"/>
      <point x="142" y="464"/>
      <point x="167" y="464" type="curve" smooth="yes"/>
      <point x="192" y="464"/>
      <point x="202" y="482"/>
      <point x="202" y="499" type="curve" smooth="yes"/>
      <point x="202" y="525"/>
      <point x="173" y="548"/>
      <point x="171" y="607" type="curve"/>
      <point x="221" y="575"/>
      <point x="227" y="539"/>
      <point x="250" y="526" type="curve" smooth="yes"/>
      <point x="255" y="523"/>
      <point x="262" y="521"/>
      <point x="268" y="521" type="curve" smooth="yes"/>
      <point x="279" y="521"/>
      <point x="290" y="526"/>
      <point x="297" y="539" type="curve"/>
      <point x="310" y="561"/>
      <point x="299" y="578"/>
      <point x="285" y="587" type="curve"/>
      <point x="262" y="600"/>
      <point x="227" y="586"/>
      <point x="174" y="614" type="curve"/>
      <point x="227" y="642"/>
      <point x="262" y="628"/>
      <point x="285" y="642" type="curve"/>
      <point x="299" y="650"/>
      <point x="309" y="668"/>
    </contour>
  </outline>
</glyph>
<glyph name="period" format="2">
  <advance width="250"/>
  <unicode hex="002E"/>
  <outline>
    <contour>
      <point x="40" y="71" type="curve" smooth="yes"/>
      <point x="40" y="25"/>
      <point x="79" y="-14"/>
      <point x="125" y="-14" type="curve" smooth="yes"/>
      <point x="171" y="-14"/>
      <point x="210" y="25"/>
      <point x="210" y="71" type="curve" smooth="yes"/>
      <point x="210" y="118"/>
      <point x="171" y="156"/>
      <point x="125" y="156" type="curve" smooth="yes"/>
      <point x="79" y="156"/>
      <point x="40" y="118"/>
    </contour>
  </outline>
</glyph>
<glyph name="four" format="2">
  <advance width="601"/>
  <unicode hex="0034"/>
  <outline>
    <contour>
      <point x="296" y="292" type="line"/>
      <point x="100" y="292" type="line"/>
      <point x="296" y="562" type="line"/>
    </contour>
    <contour>
      <point x="5" y="176" type="line"/>
      <point x="5" y="167" type="line"/>
      <point x="296" y="167" type="line"/>
      <point x="296" y="88" type="line"/>
      <point x="295" y="42"/>
      <point x="263" y="11"/>
      <point x="216" y="11" type="curve"/>
      <point x="214" y="1" type="line"/>
      <point x="296" y="1" type="line"/>
      <point x="296" y="0" type="line"/>
      <point x="447" y="0" type="line"/>
      <point x="447" y="1" type="line"/>
      <point x="530" y="1" type="line"/>
      <point x="528" y="11" type="line"/>
      <point x="527" y="11" type="line"/>
      <point x="479" y="11"/>
      <point x="447" y="43"/>
      <point x="447" y="91" type="curve" smooth="yes"/>
      <point x="447" y="167" type="line"/>
      <point x="562" y="167" type="line"/>
      <point x="562" y="292" type="line"/>
      <point x="447" y="292" type="line"/>
      <point x="447" y="770" type="line"/>
      <point x="437" y="770" type="line"/>
    </contour>
  </outline>
</glyph>
<glyph name="seven" format="2">
  <advance width="505"/>
  <unicode hex="0037"/>
  <outline>
    <contour>
      <point x="51" y="750" type="line"/>
      <point x="23" y="541" type="line"/>
      <point x="33" y="541" type="line"/>
      <point x="43" y="625"/>
      <point x="66" y="616"/>
      <point x="213" y="617" type="curve" smooth="yes"/>
      <point x="413" y="619" type="line"/>
      <point x="245" y="466"/>
      <point x="138" y="219"/>
      <point x="138" y="0" type="curve"/>
      <point x="287" y="0" type="line"/>
      <point x="287" y="291"/>
      <point x="379" y="587"/>
      <point x="517" y="740" type="curve"/>
      <point x="517" y="750" type="line"/>
    </contour>
  </outline>
</glyph>
<glyph name="nine" format="2">
  <advance width="622"/>
  <unicode hex="0039"/>
  <outline>
    <contour>
      <point x="179" y="534" type="curve" smooth="yes"/>
      <point x="179" y="659"/>
      <point x="226" y="750"/>
      <point x="293" y="750" type="curve" smooth="yes"/>
      <point x="372" y="750"/>
      <point x="421" y="621"/>
      <point x="421" y="416" type="curve"/>
      <point x="421" y="416"/>
      <point x="421" y="389"/>
      <point x="420" y="363" type="curve"/>
      <point x="394" y="333"/>
      <point x="352" y="313"/>
      <point x="314" y="313" type="curve" smooth="yes"/>
      <point x="233" y="313"/>
      <point x="179" y="401"/>
    </contour>
    <contour>
      <point x="34" y="503" type="curve" smooth="yes"/>
      <point x="34" y="362"/>
      <point x="118" y="269"/>
      <point x="244" y="269" type="curve" smooth="yes"/>
      <point x="315" y="269"/>
      <point x="384" y="298"/>
      <point x="420" y="343" type="curve"/>
      <point x="415" y="136"/>
      <point x="343" y="0"/>
      <point x="248" y="0" type="curve" smooth="yes"/>
      <point x="166" y="0"/>
      <point x="95" y="85"/>
      <point x="81" y="209" type="curve"/>
      <point x="68" y="209" type="line"/>
      <point x="94" y="0" type="line"/>
      <point x="156" y="0"/>
      <point x="227" y="-14"/>
      <point x="281" y="-14" type="curve" smooth="yes"/>
      <point x="464" y="-14"/>
      <point x="583" y="145"/>
      <point x="583" y="389" type="curve" smooth="yes"/>
      <point x="583" y="623"/>
      <point x="474" y="764"/>
      <point x="294" y="764" type="curve" smooth="yes"/>
      <point x="138" y="764"/>
      <point x="34" y="660"/>
    </contour>
  </outline>
</glyph>
<glyph name="less" format="2">
  <advance width="364"/>
  <unicode hex="003C"/>
  <outline>
    <contour>
      <point x="46" y="342" type="line"/>
      <point x="46" y="336" type="line"/>
      <point x="314" y="174" type="line"/>
      <point x="314" y="188" type="line"/>
      <point x="66" y="339" type="line"/>
      <point x="314" y="491" type="line"/>
      <point x="314" y="505" type="line"/>
    </contour>
  </outline>
</glyph>
<glyph name="equal" format="2">
  <advance width="420"/>
  <unicode hex="003D"/>
  <outline>
    <contour>
      <point x="375" y="281" type="line"/>
      <point x="375" y="291" type="line"/>
      <point x="45" y="291" type="line"/>
      <point x="45" y="281" type="line"/>
    </contour>
    <contour>
      <point x="375" y="387" type="line"/>
      <point x="375" y="397" type="line"/>
      <point x="45" y="397" type="line"/>
      <point x="45" y="387" type="line"/>
    </contour>
  </outline>
</glyph>
<glyph name="greater" format="2">
  <advance width="364"/>
  <unicode hex="003E"/>
  <outline>
    <contour>
      <point x="319" y="342" type="line"/>
      <point x="51" y="505" type="line"/>
      <point x="51" y="491" type="line"/>
      <point x="299" y="339" type="line"/>
      <point x="51" y="188" type="line"/>
      <point x="51" y="174" type="line"/>
      <point x="319" y="336" type="line"/>
    </contour>
  </outline>
</glyph>
<glyph name="at" format="2">
  <advance width="979"/>
  <unicode hex="0040"/>
  <outline>
    <contour>
      <point x="567" y="302" type="line" smooth="yes"/>
      <point x="545" y="196"/>
      <point x="493" y="122"/>
      <point x="442" y="122" type="curve" smooth="yes"/>
      <point x="401" y="122"/>
      <point x="376" y="168"/>
      <point x="382" y="262" type="curve" smooth="yes"/>
      <point x="390" y="400"/>
      <point x="454" y="491"/>
      <point x="539" y="488" type="curve" smooth="yes"/>
      <point x="579" y="487"/>
      <point x="602" y="467"/>
      <point x="596" y="439" type="curve" smooth="yes"/>
    </contour>
    <contour>
      <point x="546" y="201" type="curve"/>
      <point x="540" y="119"/>
      <point x="609" y="65" name=".hr01"/>
      <point x="717" y="65" type="curve" smooth="yes"/>
      <point x="720" y="65"/>
      <point x="723" y="65"/>
      <point x="726" y="65" type="curve" smooth="yes"/>
      <point x="853" y="65"/>
      <point x="941" y="172"/>
      <point x="945" y="333" type="curve" smooth="yes"/>
      <point x="950" y="557"/>
      <point x="789" y="707"/>
      <point x="540" y="709" type="curve" smooth="yes"/>
      <point x="253" y="712"/>
      <point x="38" y="516"/>
      <point x="33" y="246" type="curve" smooth="yes"/>
      <point x="29" y="10"/>
      <point x="185" y="-145"/>
      <point x="430" y="-147" type="curve"/>
      <point x="432" y="-147"/>
      <point x="433" y="-147"/>
      <point x="435" y="-147" type="curve"/>
      <point x="556" y="-147"/>
      <point x="683" y="-109"/>
      <point x="752" y="-51" type="curve"/>
      <point x="745" y="-43" type="line"/>
      <point x="683" y="-86"/>
      <point x="577" y="-116"/>
      <point x="484" y="-116" type="curve"/>
      <point x="482" y="-116"/>
      <point x="481" y="-116"/>
      <point x="479" y="-116" type="curve"/>
      <point x="276" y="-114"/>
      <point x="148" y="33"/>
      <point x="152" y="258" type="curve" smooth="yes"/>
      <point x="157" y="510"/>
      <point x="323" y="697"/>
      <point x="539" y="694" type="curve" smooth="yes"/>
      <point x="728" y="692"/>
      <point x="845" y="544"/>
      <point x="840" y="313" type="curve" smooth="yes"/>
      <point x="838" y="248"/>
      <point x="818" y="78"/>
      <point x="724" y="81" type="curve"/>
      <point x="673" y="81"/>
      <point x="658" y="124"/>
      <point x="677" y="214" type="curve" smooth="yes"/>
      <point x="738" y="499" type="line"/>
      <point x="728" y="499" type="line"/>
      <point x="721" y="480"/>
      <point x="710" y="471"/>
      <point x="688" y="471" type="curve" smooth="yes"/>
      <point x="672" y="471"/>
      <point x="649" y="476"/>
      <point x="616" y="485" type="curve" smooth="yes"/>
      <point x="585" y="493"/>
      <point x="555" y="503"/>
      <point x="513" y="504" type="curve" smooth="yes"/>
      <point x="365" y="507"/>
      <point x="255" y="398"/>
      <point x="247" y="241" type="curve" smooth="yes"/>
      <point x="241" y="130"/>
      <point x="292" y="64" name=".hr02"/>
      <point x="369" y="64" type="curve" smooth="yes"/>
      <point x="437" y="64"/>
      <point x="504" y="116"/>
    </contour>
  </outline>
</glyph>
<glyph name="A" format="2">
  <advance width="684"/>
  <unicode hex="0041"/>
  <outline>
    <contour>
      <point x="386" y="276" type="line"/>
      <point x="155" y="276" type="line"/>
      <point x="272" y="564" type="line"/>
    </contour>
    <contour>
      <point x="77" y="119" type="line" smooth="yes"/>
      <point x="55" y="66"/>
      <point x="13" y="13"/>
      <point x="-24" y="10" type="curve"/>
      <point x="-24" y="0" type="line"/>
      <point x="171" y="0" type="line"/>
      <point x="171" y="10" type="line"/>
      <point x="105" y="13"/>
      <point x="70" y="66"/>
      <point x="94" y="124" type="curve" smooth="yes"/>
      <point x="150" y="263" type="line"/>
      <point x="391" y="263" type="line"/>
      <point x="451" y="114" type="line" smooth="yes"/>
      <point x="477" y="49"/>
      <point x="455" y="10"/>
      <point x="395" y="10" type="curve" smooth="yes"/>
      <point x="391" y="10" type="line"/>
      <point x="391" y="0" type="line"/>
      <point x="711" y="0" type="line"/>
      <point x="711" y="10" type="line"/>
      <point x="708" y="10" type="line" smooth="yes"/>
      <point x="673" y="10"/>
      <point x="639" y="48"/>
      <point x="610" y="119" type="curve" smooth="yes"/>
      <point x="350" y="765" type="line"/>
      <point x="341" y="765" type="line"/>
    </contour>
  </outline>
</glyph>
<glyph name="C" format="2">
  <advance width="742"/>
  <unicode hex="0043"/>
  <outline>
    <contour>
      <point x="684" y="748" type="line"/>
      <point x="585" y="748"/>
      <point x="570" y="764"/>
      <point x="483" y="764" type="curve" smooth="yes"/>
      <point x="212" y="764"/>
      <point x="37" y="612"/>
      <point x="37" y="376" type="curve" smooth="yes"/>
      <point x="37" y="142"/>
      <point x="211" y="-14"/>
      <point x="472" y="-14" type="curve" smooth="yes"/>
      <point x="560" y="-14"/>
      <point x="603" y="4"/>
      <point x="700" y="4" type="curve"/>
      <point x="729" y="220" type="line"/>
      <point x="719" y="220" type="line"/>
      <point x="699" y="84"/>
      <point x="610" y="2"/>
      <point x="483" y="2" type="curve" smooth="yes"/>
      <point x="315" y="2"/>
      <point x="207" y="146"/>
      <point x="207" y="369" type="curve" smooth="yes"/>
      <point x="207" y="594"/>
      <point x="316" y="751"/>
      <point x="472" y="751" type="curve" smooth="yes"/>
      <point x="586" y="751"/>
      <point x="681" y="668"/>
      <point x="704" y="548" type="curve"/>
      <point x="714" y="548" type="line"/>
    </contour>
  </outline>
</glyph>
<glyph name="D" format="2">
  <advance width="827"/>
  <unicode hex="0044"/>
  <outline>
    <contour>
      <point x="305" y="13" type="line" smooth="yes"/>
      <point x="253" y="13"/>
      <point x="235" y="42"/>
      <point x="235" y="84" type="curve" smooth="yes"/>
      <point x="235" y="736" type="line"/>
      <point x="323" y="736" type="line" smooth="yes"/>
      <point x="502" y="736"/>
      <point x="620" y="612"/>
      <point x="620" y="376" type="curve" smooth="yes"/>
      <point x="620" y="139"/>
      <point x="502" y="13"/>
      <point x="323" y="13" type="curve" smooth="yes"/>
    </contour>
    <contour>
      <point x="323" y="0" type="line" smooth="yes"/>
      <point x="605" y="0"/>
      <point x="790" y="130"/>
      <point x="790" y="374" type="curve" smooth="yes"/>
      <point x="790" y="620"/>
      <point x="605" y="750"/>
      <point x="323" y="750" type="curve" smooth="yes"/>
      <point x="1" y="750" type="line"/>
      <point x="1" y="740" type="line" name=".hr01"/>
      <point x="47" y="740"/>
      <point x="81" y="710"/>
      <point x="81" y="665" type="curve" smooth="yes"/>
      <point x="81" y="84" type="line" smooth="yes"/>
      <point x="81" y="39"/>
      <point x="49" y="10"/>
      <point x="0" y="10" type="curve"/>
      <point x="0" y="0" type="line"/>
    </contour>
  </outline>
</glyph>
<glyph name="G" format="2">
  <advance width="825"/>
  <unicode hex="0047"/>
  <outline>
    <contour>
      <point x="462" y="751" type="curve" smooth="yes"/>
      <point x="585" y="751"/>
      <point x="675" y="674"/>
      <point x="698" y="548" type="curve"/>
      <point x="708" y="548" type="line"/>
      <point x="678" y="748" type="line"/>
      <point x="579" y="748"/>
      <point x="569" y="764"/>
      <point x="462" y="764" type="curve" smooth="yes"/>
      <point x="207" y="764"/>
      <point x="37" y="609"/>
      <point x="37" y="377" type="curve" smooth="yes"/>
      <point x="37" y="137"/>
      <point x="205" y="-14"/>
      <point x="471" y="-14" type="curve" smooth="yes"/>
      <point x="588" y="-14"/>
      <point x="704" y="14"/>
      <point x="741" y="51" type="curve"/>
      <point x="741" y="306" type="line" smooth="yes"/>
      <point x="741" y="354"/>
      <point x="773" y="386"/>
      <point x="821" y="386" type="curve" smooth="yes"/>
      <point x="825" y="386" type="line"/>
      <point x="825" y="396" type="line"/>
      <point x="503" y="396" type="line"/>
      <point x="503" y="386" type="line"/>
      <point x="506" y="386" type="line" smooth="yes"/>
      <point x="554" y="386"/>
      <point x="586" y="354"/>
      <point x="586" y="306" type="curve" smooth="yes"/>
      <point x="586" y="51" type="line"/>
      <point x="560" y="23"/>
      <point x="504" y="2"/>
      <point x="450" y="2" type="curve" smooth="yes"/>
      <point x="303" y="2"/>
      <point x="208" y="151"/>
      <point x="208" y="378" type="curve" smooth="yes"/>
      <point x="208" y="602"/>
      <point x="310" y="751"/>
    </contour>
  </outline>
</glyph>
<glyph name="H" format="2">
  <advance width="805"/>
  <unicode hex="0048"/>
  <outline>
    <contour>
      <point x="238" y="428" type="line"/>
      <point x="238" y="660" type="line" smooth="yes"/>
      <point x="238" y="708"/>
      <point x="270" y="740"/>
      <point x="318" y="740" type="curve"/>
      <point x="320" y="740" type="line"/>
      <point x="320" y="750" type="line"/>
      <point x="0" y="750" type="line"/>
      <point x="0" y="740" type="line"/>
      <point x="4" y="740" type="line" smooth="yes"/>
      <point x="52" y="740"/>
      <point x="84" y="708"/>
      <point x="84" y="660" type="curve" smooth="yes"/>
      <point x="84" y="90" type="line" smooth="yes"/>
      <point x="84" y="42"/>
      <point x="52" y="10"/>
      <point x="4" y="10" type="curve" smooth="yes"/>
      <point x="0" y="10" type="line"/>
      <point x="0" y="0" type="line"/>
      <point x="320" y="0" type="line"/>
      <point x="320" y="10" type="line"/>
      <point x="318" y="10" type="line"/>
      <point x="270" y="10"/>
      <point x="238" y="42"/>
      <point x="238" y="90" type="curve" smooth="yes"/>
      <point x="238" y="414" type="line"/>
      <point x="568" y="414" type="line"/>
      <point x="568" y="90" type="line" smooth="yes"/>
      <point x="568" y="42"/>
      <point x="536" y="10"/>
      <point x="488" y="10" type="curve" smooth="yes"/>
      <point x="485" y="10" type="line"/>
      <point x="485" y="0" type="line"/>
      <point x="805" y="0" type="line"/>
      <point x="805" y="10" type="line"/>
      <point x="802" y="10" type="line" smooth="yes"/>
      <point x="754" y="10"/>
      <point x="722" y="42"/>
      <point x="722" y="90" type="curve" smooth="yes"/>
      <point x="722" y="660" type="line" smooth="yes"/>
      <point x="722" y="708"/>
      <point x="754" y="740"/>
      <point x="802" y="740" type="curve" smooth="yes"/>
      <point x="805" y="740" type="line"/>
      <point x="805" y="750" type="line"/>
      <point x="485" y="750" type="line"/>
      <point x="485" y="740" type="line"/>
      <point x="488" y="740" type="line" smooth="yes"/>
      <point x="536" y="740"/>
      <point x="568" y="708"/>
      <point x="568" y="660" type="curve" smooth="yes"/>
      <point x="568" y="428" type="line"/>
    </contour>
  </outline>
</glyph>
<glyph name="K" format="2">
  <advance width="733"/>
  <unicode hex="004B"/>
  <outline>
    <contour>
      <point x="474" y="740" type="line"/>
      <point x="535" y="740"/>
      <point x="533" y="693"/>
      <point x="479" y="644" type="curve" smooth="yes"/>
      <point x="223" y="412" type="line"/>
      <point x="223" y="660" type="line" smooth="yes"/>
      <point x="223" y="708"/>
      <point x="255" y="740"/>
      <point x="303" y="740" type="curve" smooth="yes"/>
      <point x="307" y="740" type="line"/>
      <point x="307" y="750" type="line"/>
      <point x="0" y="750" type="line"/>
      <point x="0" y="740" type="line"/>
      <point x="4" y="740" type="line" smooth="yes"/>
      <point x="52" y="740"/>
      <point x="84" y="708"/>
      <point x="84" y="660" type="curve" smooth="yes"/>
      <point x="84" y="90" type="line" smooth="yes"/>
      <point x="84" y="42"/>
      <point x="52" y="10"/>
      <point x="4" y="10" type="curve" smooth="yes"/>
      <point x="0" y="10" type="line"/>
      <point x="0" y="0" type="line"/>
      <point x="307" y="0" type="line"/>
      <point x="307" y="10" type="line"/>
      <point x="303" y="10" type="line" smooth="yes"/>
      <point x="255" y="10"/>
      <point x="223" y="42"/>
      <point x="223" y="90" type="curve" smooth="yes"/>
      <point x="223" y="407" type="line"/>
      <point x="505" y="69" type="line" smooth="yes"/>
      <point x="534" y="34"/>
      <point x="520" y="10"/>
      <point x="464" y="10" type="curve"/>
      <point x="464" y="0" type="line"/>
      <point x="760" y="0" type="line"/>
      <point x="760" y="10" type="line"/>
      <point x="734" y="10"/>
      <point x="704" y="31"/>
      <point x="680" y="60" type="curve" smooth="yes"/>
      <point x="325" y="486" type="line"/>
      <point x="537" y="681" type="line" smooth="yes"/>
      <point x="573" y="714"/>
      <point x="649" y="738"/>
      <point x="685" y="740" type="curve"/>
      <point x="685" y="750" type="line"/>
      <point x="473" y="750" type="line"/>
      <point x="473" y="740" type="line"/>
    </contour>
  </outline>
</glyph>
<glyph name="N" format="2">
  <advance width="749"/>
  <unicode hex="004E"/>
  <outline>
    <contour>
      <point x="663" y="-14" type="line"/>
      <point x="663" y="635" type="line" smooth="yes"/>
      <point x="663" y="692"/>
      <point x="701" y="740"/>
      <point x="758" y="740" type="curve"/>
      <point x="758" y="750" type="line"/>
      <point x="551" y="750" type="line"/>
      <point x="551" y="740" type="line"/>
      <point x="608" y="740"/>
      <point x="646" y="692"/>
      <point x="646" y="635" type="curve" smooth="yes"/>
      <point x="646" y="243" type="line"/>
      <point x="253" y="750" type="line"/>
      <point x="-4" y="750" type="line"/>
      <point x="-4" y="740" type="line"/>
      <point x="28" y="737"/>
      <point x="62" y="723"/>
      <point x="91" y="701" type="curve"/>
      <point x="91" y="116" type="line" smooth="yes"/>
      <point x="91" y="58"/>
      <point x="53" y="10"/>
      <point x="-5" y="10" type="curve"/>
      <point x="-5" y="0" type="line"/>
      <point x="203" y="0" type="line"/>
      <point x="203" y="10" type="line"/>
      <point x="146" y="10"/>
      <point x="108" y="58"/>
      <point x="108" y="115" type="curve" smooth="yes"/>
      <point x="108" y="687" type="line"/>
      <point x="117" y="679"/>
      <point x="130" y="666"/>
      <point x="139" y="654" type="curve" smooth="yes"/>
    </contour>
  </outline>
</glyph>
<glyph name="R" format="2">
  <advance width="669"/>
  <unicode hex="0052"/>
  <outline>
    <contour>
      <point x="234" y="737" type="line"/>
      <point x="292" y="737" type="line" smooth="yes"/>
      <point x="373" y="737"/>
      <point x="427" y="665"/>
      <point x="427" y="557" type="curve" smooth="yes"/>
      <point x="427" y="449"/>
      <point x="370" y="377"/>
      <point x="285" y="377" type="curve" smooth="yes"/>
      <point x="234" y="377" type="line"/>
    </contour>
    <contour>
      <point x="314" y="10" type="line"/>
      <point x="266" y="10"/>
      <point x="234" y="42"/>
      <point x="234" y="90" type="curve" smooth="yes"/>
      <point x="234" y="364" type="line"/>
      <point x="244" y="364" type="line" smooth="yes"/>
      <point x="280" y="364"/>
      <point x="293" y="351"/>
      <point x="331" y="280" type="curve" smooth="yes"/>
      <point x="429" y="100" type="line" smooth="yes"/>
      <point x="445" y="69"/>
      <point x="468" y="30"/>
      <point x="487" y="0" type="curve"/>
      <point x="694" y="0" type="line"/>
      <point x="694" y="10" type="line"/>
      <point x="662" y="10"/>
      <point x="635" y="29"/>
      <point x="617" y="60" type="curve" smooth="yes"/>
      <point x="491" y="276" type="line" smooth="yes"/>
      <point x="462" y="325"/>
      <point x="428" y="362"/>
      <point x="405" y="368" type="curve"/>
      <point x="504" y="380"/>
      <point x="572" y="456"/>
      <point x="572" y="556" type="curve" smooth="yes"/>
      <point x="572" y="673"/>
      <point x="477" y="750"/>
      <point x="334" y="750" type="curve" smooth="yes"/>
      <point x="0" y="750" type="line"/>
      <point x="0" y="740" type="line" name=".hr01"/>
      <point x="48" y="740"/>
      <point x="80" y="708"/>
      <point x="80" y="660" type="curve" smooth="yes"/>
      <point x="80" y="90" type="line" smooth="yes"/>
      <point x="80" y="42"/>
      <point x="48" y="10"/>
      <point x="0" y="10" type="curve"/>
      <point x="0" y="0" type="line"/>
      <point x="316" y="0" type="line"/>
      <point x="316" y="10" type="line"/>
    </contour>
  </outline>
</glyph>
<glyph name="S" format="2">
  <advance width="510"/>
  <unicode hex="0053"/>
  <outline>
    <contour>
      <point x="264" y="749" type="curve" smooth="yes"/>
      <point x="350" y="749"/>
      <point x="416" y="671"/>
      <point x="435" y="548" type="curve"/>
      <point x="445" y="548" type="line"/>
      <point x="435" y="750" type="line" name=".hr01"/>
      <point x="354" y="750"/>
      <point x="333" y="764" name=".hr02"/>
      <point x="270" y="764" type="curve" smooth="yes"/>
      <point x="126" y="764"/>
      <point x="35" y="691"/>
      <point x="35" y="575" type="curve" smooth="yes"/>
      <point x="35" y="503"/>
      <point x="70" y="450"/>
      <point x="168" y="375" type="curve" smooth="yes"/>
      <point x="209" y="344" type="line" smooth="yes"/>
      <point x="340" y="244"/>
      <point x="381" y="193"/>
      <point x="381" y="130" type="curve" smooth="yes"/>
      <point x="381" y="56"/>
      <point x="323" y="4"/>
      <point x="241" y="4" type="curve" smooth="yes"/>
      <point x="130" y="4"/>
      <point x="55" y="97"/>
      <point x="35" y="260" type="curve"/>
      <point x="23" y="260" type="line"/>
      <point x="58" y="0" type="line" name=".hr03"/>
      <point x="159" y="0"/>
      <point x="173" y="-14" name=".hr04"/>
      <point x="235" y="-14" type="curve"/>
      <point x="391" y="-12"/>
      <point x="497" y="79"/>
      <point x="497" y="213" type="curve" smooth="yes"/>
      <point x="497" y="299"/>
      <point x="453" y="361"/>
      <point x="320" y="461" type="curve" smooth="yes"/>
      <point x="277" y="493" type="line" smooth="yes"/>
      <point x="193" y="556"/>
      <point x="163" y="598"/>
      <point x="163" y="650" type="curve" smooth="yes"/>
      <point x="163" y="710"/>
      <point x="203" y="749"/>
    </contour>
  </outline>
</glyph>
<glyph name="U" format="2">
  <advance width="745"/>
  <unicode hex="0055"/>
  <outline>
    <contour>
      <point x="79" y="263" type="line" smooth="yes"/>
      <point x="79" y="94"/>
      <point x="192" y="-14"/>
      <point x="368" y="-14" type="curve" smooth="yes"/>
      <point x="543" y="-14"/>
      <point x="656" y="94"/>
      <point x="655" y="263" type="curve"/>
      <point x="655" y="645" type="line" smooth="yes"/>
      <point x="655" y="702"/>
      <point x="693" y="737"/>
      <point x="750" y="740" type="curve"/>
      <point x="750" y="750" type="line"/>
      <point x="543" y="750" type="line"/>
      <point x="543" y="740" type="line"/>
      <point x="600" y="737"/>
      <point x="638" y="702"/>
      <point x="638" y="645" type="curve" smooth="yes"/>
      <point x="638" y="263" type="line" smooth="yes"/>
      <point x="638" y="123"/>
      <point x="560" y="34"/>
      <point x="436" y="34" type="curve" smooth="yes"/>
      <point x="311" y="34"/>
      <point x="234" y="123"/>
      <point x="234" y="263" type="curve" smooth="yes"/>
      <point x="234" y="660" type="line" smooth="yes"/>
      <point x="234" y="708"/>
      <point x="266" y="740"/>
      <point x="314" y="740" type="curve" smooth="yes"/>
      <point x="317" y="740" type="line"/>
      <point x="317" y="750" type="line"/>
      <point x="-5" y="750" type="line"/>
      <point x="-5" y="740" type="line"/>
      <point x="-1" y="740" type="line" smooth="yes"/>
      <point x="47" y="740"/>
      <point x="79" y="708"/>
      <point x="79" y="660" type="curve" smooth="yes"/>
    </contour>
  </outline>
</glyph>
<glyph name="V" format="2">
  <advance width="683"/>
  <unicode hex="0056"/>
  <outline>
    <contour>
      <point x="607" y="631" type="line" smooth="yes"/>
      <point x="629" y="684"/>
      <point x="670" y="737"/>
      <point x="708" y="740" type="curve"/>
      <point x="708" y="750" type="line"/>
      <point x="513" y="750" type="line"/>
      <point x="513" y="740" type="line"/>
      <point x="585" y="737"/>
      <point x="618" y="695"/>
      <point x="594" y="636" type="curve" smooth="yes"/>
      <point x="411" y="186" type="line"/>
      <point x="233" y="636" type="line" smooth="yes"/>
      <point x="207" y="701"/>
      <point x="228" y="740"/>
      <point x="289" y="740" type="curve" smooth="yes"/>
      <point x="293" y="740" type="line"/>
      <point x="293" y="750" type="line"/>
      <point x="-27" y="750" type="line"/>
      <point x="-27" y="740" type="line"/>
      <point x="-24" y="740" type="line" smooth="yes"/>
      <point x="11" y="740"/>
      <point x="45" y="702"/>
      <point x="73" y="631" type="curve" smooth="yes"/>
      <point x="333" y="-15" type="line"/>
      <point x="343" y="-15" type="line"/>
    </contour>
  </outline>
</glyph>
<glyph name="X" format="2">
  <advance width="707"/>
  <unicode hex="0058"/>
  <outline>
    <contour>
      <point x="302" y="621" type="curve" smooth="yes"/>
      <point x="267" y="681"/>
      <point x="265" y="734"/>
      <point x="344" y="740" type="curve"/>
      <point x="344" y="750" type="line"/>
      <point x="0" y="750" type="line"/>
      <point x="0" y="740" type="line"/>
      <point x="40" y="737"/>
      <point x="64" y="726"/>
      <point x="159" y="577" type="curve" smooth="yes"/>
      <point x="186" y="535"/>
      <point x="239" y="448"/>
      <point x="292" y="360" type="curve"/>
      <point x="106" y="103" type="line" smooth="yes"/>
      <point x="67" y="48"/>
      <point x="12" y="13"/>
      <point x="-27" y="10" type="curve"/>
      <point x="-27" y="0" type="line"/>
      <point x="181" y="0" type="line"/>
      <point x="181" y="10" type="line"/>
      <point x="180" y="10" type="line"/>
      <point x="108" y="14"/>
      <point x="95" y="64"/>
      <point x="137" y="122" type="curve" smooth="yes"/>
      <point x="299" y="348" type="line"/>
      <point x="353" y="260"/>
      <point x="405" y="172"/>
      <point x="430" y="129" type="curve" smooth="yes"/>
      <point x="465" y="69"/>
      <point x="458" y="10"/>
      <point x="388" y="10" type="curve"/>
      <point x="388" y="0" type="line"/>
      <point x="732" y="0" type="line" name=".hr01"/>
      <point x="732" y="10" type="line"/>
      <point x="682" y="13"/>
      <point x="644" y="62"/>
      <point x="551" y="210" type="curve" smooth="yes"/>
      <point x="534" y="238"/>
      <point x="476" y="333"/>
      <point x="417" y="429" type="curve"/>
      <point x="575" y="647" type="line" smooth="yes"/>
      <point x="615" y="702"/>
      <point x="669" y="737"/>
      <point x="708" y="740" type="curve" name=".hr02"/>
      <point x="708" y="750" type="line"/>
      <point x="500" y="750" type="line"/>
      <point x="500" y="740" type="line"/>
      <point x="501" y="740" type="line"/>
      <point x="572" y="735"/>
      <point x="587" y="688"/>
      <point x="539" y="621" type="curve" smooth="yes"/>
      <point x="410" y="441" type="line"/>
      <point x="368" y="510"/>
      <point x="328" y="578"/>
    </contour>
  </outline>
</glyph>
<glyph name="Y" format="2">
  <advance width="639"/>
  <unicode hex="0059"/>
  <outline>
    <contour>
      <point x="474" y="740" type="line"/>
      <point x="553" y="740"/>
      <point x="565" y="690"/>
      <point x="514" y="621" type="curve" smooth="yes"/>
      <point x="393" y="458" type="line"/>
      <point x="263" y="634" type="line" smooth="yes"/>
      <point x="221" y="691"/>
      <point x="239" y="740"/>
      <point x="312" y="740" type="curve"/>
      <point x="312" y="750" type="line"/>
      <point x="-27" y="750" type="line"/>
      <point x="-27" y="740" type="line"/>
      <point x="-26" y="740" type="line"/>
      <point x="8" y="740"/>
      <point x="31" y="724"/>
      <point x="48" y="702" type="curve" smooth="yes"/>
      <point x="258" y="430" type="line"/>
      <point x="258" y="90" type="line" smooth="yes"/>
      <point x="258" y="42"/>
      <point x="226" y="10"/>
      <point x="178" y="10" type="curve"/>
      <point x="176" y="10" type="line"/>
      <point x="175" y="0" type="line"/>
      <point x="484" y="0" type="line"/>
      <point x="483" y="10" type="line"/>
      <point x="481" y="10" type="line"/>
      <point x="436" y="10"/>
      <point x="403" y="43"/>
      <point x="403" y="90" type="curve" smooth="yes"/>
      <point x="403" y="448" type="line"/>
      <point x="543" y="637" type="line" smooth="yes"/>
      <point x="588" y="697"/>
      <point x="619" y="737"/>
      <point x="664" y="740" type="curve"/>
      <point x="664" y="750" type="line"/>
      <point x="474" y="750" type="line"/>
    </contour>
  </outline>
</glyph>
<glyph name="Z" format="2">
  <advance width="570"/>
  <unicode hex="005A"/>
  <outline>
    <contour>
      <point x="540" y="0" type="line"/>
      <point x="570" y="222" type="line"/>
      <point x="560" y="222" type="line"/>
      <point x="539" y="75"/>
      <point x="461" y="13"/>
      <point x="333" y="13" type="curve" smooth="yes"/>
      <point x="166" y="13" type="line"/>
      <point x="530" y="740" type="line"/>
      <point x="530" y="750" type="line"/>
      <point x="93" y="750" type="line"/>
      <point x="63" y="548" type="line"/>
      <point x="73" y="548" type="line"/>
      <point x="90" y="672"/>
      <point x="175" y="737"/>
      <point x="315" y="737" type="curve" smooth="yes"/>
      <point x="366" y="737" type="line"/>
      <point x="1" y="10" type="line"/>
      <point x="1" y="0" type="line"/>
    </contour>
  </outline>
</glyph>
<glyph name="bracketleft" format="2">
  <advance width="361"/>
  <unicode hex="005B"/>
  <outline>
    <contour>
      <point x="40" y="-155" type="line"/>
      <point x="350" y="-155" type="line"/>
      <point x="350" y="-145" type="line"/>
      <point x="200" y="-145" type="line"/>
      <point x="200" y="844" type="line"/>
      <point x="350" y="844" type="line"/>
      <point x="350" y="854" type="line"/>
      <point x="40" y="854" type="line"/>
    </contour>
  </outline>
</glyph>
<glyph name="bracketright" format="2">
  <advance width="361"/>
  <unicode hex="005D"/>
  <outline>
    <contour>
      <point x="320" y="-155" type="line"/>
      <point x="320" y="854" type="line"/>
      <point x="10" y="854" type="line"/>
      <point x="10" y="844" type="line"/>
      <point x="160" y="844" type="line"/>
      <point x="160" y="-145" type="line"/>
      <point x="10" y="-145" type="line"/>
      <point x="10" y="-155" type="line"/>
    </contour>
  </outline>
</glyph>
<glyph name="b" format="2">
  <advance width="583"/>
  <unicode hex="0062"/>
  <outline>
    <contour>
      <point x="190" y="389" type="line"/>
      <point x="208" y="440"/>
      <point x="259" y="483"/>
      <point x="305" y="483" type="curve" smooth="yes"/>
      <point x="364" y="483"/>
      <point x="392" y="412"/>
      <point x="392" y="263" type="curve" smooth="yes"/>
      <point x="392" y="93"/>
      <point x="355" y="3"/>
      <point x="285" y="3" type="curve" smooth="yes"/>
      <point x="231" y="3"/>
      <point x="195" y="56"/>
      <point x="190" y="138" type="curve"/>
    </contour>
    <contour>
      <point x="56" y="-14" type="line"/>
      <point x="154" y="85" type="line"/>
      <point x="181" y="20"/>
      <point x="235" y="-14"/>
      <point x="314" y="-14" type="curve" smooth="yes"/>
      <point x="454" y="-14"/>
      <point x="550" y="93"/>
      <point x="550" y="256" type="curve" smooth="yes"/>
      <point x="550" y="410"/>
      <point x="461" y="523"/>
      <point x="346" y="523" type="curve" smooth="yes"/>
      <point x="280" y="523"/>
      <point x="221" y="484"/>
      <point x="190" y="424" type="curve"/>
      <point x="190" y="788" type="line"/>
      <point x="180" y="788" type="line"/>
      <point x="167" y="766"/>
      <point x="142" y="750"/>
      <point x="67" y="750" type="curve" smooth="yes"/>
      <point x="-35" y="750" type="line"/>
      <point x="-35" y="740" type="line"/>
      <point x="13" y="740"/>
      <point x="46" y="708"/>
      <point x="46" y="660" type="curve" smooth="yes"/>
      <point x="46" y="-14" type="line"/>
    </contour>
  </outline>
</glyph>
<glyph name="c" format="2">
  <advance width="536"/>
  <unicode hex="0063"/>
  <outline>
    <contour>
      <point x="33" y="250" type="curve" smooth="yes"/>
      <point x="33" y="95"/>
      <point x="129" y="-14"/>
      <point x="266" y="-14" type="curve" smooth="yes"/>
      <point x="377" y="-14"/>
      <point x="477" y="57"/>
      <point x="512" y="166" type="curve"/>
      <point x="502" y="169" type="line"/>
      <point x="465" y="115"/>
      <point x="402" y="80"/>
      <point x="339" y="80" type="curve" smooth="yes"/>
      <point x="236" y="80"/>
      <point x="169" y="172"/>
      <point x="169" y="313" type="curve" smooth="yes"/>
      <point x="169" y="426"/>
      <point x="212" y="507"/>
      <point x="273" y="507" type="curve" smooth="yes"/>
      <point x="335" y="507"/>
      <point x="372" y="423"/>
      <point x="372" y="286" type="curve"/>
      <point x="492" y="353" type="line"/>
      <point x="478" y="456"/>
      <point x="397" y="522"/>
      <point x="286" y="522" type="curve" smooth="yes"/>
      <point x="140" y="522"/>
      <point x="33" y="410"/>
    </contour>
  </outline>
</glyph>
<glyph name="i" format="2">
  <advance width="297"/>
  <unicode hex="0069"/>
  <outline>
    <contour>
      <point x="72" y="697" type="curve" smooth="yes"/>
      <point x="72" y="649"/>
      <point x="107" y="614"/>
      <point x="155" y="614" type="curve" smooth="yes"/>
      <point x="202" y="614"/>
      <point x="237" y="651"/>
      <point x="237" y="697" type="curve" smooth="yes"/>
      <point x="237" y="744"/>
      <point x="202" y="780"/>
      <point x="155" y="780" type="curve" smooth="yes"/>
      <point x="107" y="780"/>
      <point x="72" y="745"/>
    </contour>
    <contour>
      <point x="312" y="10" type="line"/>
      <point x="264" y="10"/>
      <point x="232" y="42"/>
      <point x="232" y="90" type="curve" smooth="yes" name=".hr01"/>
      <point x="232" y="546" type="line"/>
      <point x="222" y="546" type="line"/>
      <point x="208" y="523"/>
      <point x="179" y="508"/>
      <point x="109" y="508" type="curve" smooth="yes"/>
      <point x="7" y="508" type="line"/>
      <point x="7" y="498" type="line"/>
      <point x="75" y="498"/>
      <point x="87" y="466"/>
      <point x="88" y="418" type="curve"/>
      <point x="88" y="90" type="line" smooth="yes"/>
      <point x="88" y="42"/>
      <point x="56" y="10"/>
      <point x="8" y="10" type="curve"/>
      <point x="7" y="10" type="line"/>
      <point x="7" y="0" type="line"/>
      <point x="313" y="0" type="line"/>
      <point x="313" y="10" type="line"/>
    </contour>
  </outline>
</glyph>
<glyph name="k" format="2">
  <advance width="601"/>
  <unicode hex="006B"/>
  <outline>
    <contour>
      <point x="305" y="10" type="line"/>
      <point x="257" y="10"/>
      <point x="225" y="42"/>
      <point x="225" y="90" type="curve" smooth="yes"/>
      <point x="225" y="243" type="line"/>
      <point x="262" y="275" type="line"/>
      <point x="376" y="92" type="line"/>
      <point x="397" y="56"/>
      <point x="406" y="38"/>
      <point x="406" y="27" type="curve" smooth="yes"/>
      <point x="406" y="14"/>
      <point x="396" y="10"/>
      <point x="364" y="10" type="curve"/>
      <point x="364" y="0" type="line"/>
      <point x="628" y="0" type="line"/>
      <point x="628" y="10" type="line"/>
      <point x="606" y="10"/>
      <point x="589" y="23"/>
      <point x="564" y="56" type="curve"/>
      <point x="365" y="362" type="line"/>
      <point x="434" y="420" type="line" smooth="yes"/>
      <point x="505" y="480"/>
      <point x="529" y="491"/>
      <point x="557" y="496" type="curve" smooth="yes"/>
      <point x="567" y="498" type="line"/>
      <point x="567" y="508" type="line"/>
      <point x="418" y="508" type="line"/>
      <point x="418" y="498" type="line"/>
      <point x="431" y="495" type="line"/>
      <point x="456" y="490"/>
      <point x="451" y="452"/>
      <point x="395" y="405" type="curve" smooth="yes"/>
      <point x="225" y="262" type="line"/>
      <point x="225" y="788" type="line"/>
      <point x="215" y="788" type="line"/>
      <point x="201" y="765"/>
      <point x="172" y="750"/>
      <point x="102" y="750" type="curve" smooth="yes"/>
      <point x="0" y="750" type="line"/>
      <point x="0" y="740" type="line"/>
      <point x="48" y="740"/>
      <point x="81" y="708"/>
      <point x="81" y="660" type="curve" smooth="yes"/>
      <point x="81" y="90" type="line" smooth="yes"/>
      <point x="81" y="42"/>
      <point x="49" y="10"/>
      <point x="1" y="10" type="curve"/>
      <point x="0" y="10" type="line"/>
      <point x="0" y="0" type="line"/>
      <point x="306" y="0" type="line"/>
      <point x="306" y="10" type="line"/>
    </contour>
  </outline>
</glyph>
<glyph name="m" format="2">
  <advance width="974"/>
  <unicode hex="006D"/>
  <outline>
    <contour>
      <point x="986" y="10" type="line"/>
      <point x="938" y="10"/>
      <point x="906" y="42"/>
      <point x="906" y="90" type="curve" smooth="yes"/>
      <point x="906" y="362" type="line" smooth="yes"/>
      <point x="906" y="458"/>
      <point x="847" y="522"/>
      <point x="758" y="522" type="curve" smooth="yes"/>
      <point x="677" y="522"/>
      <point x="601" y="475"/>
      <point x="564" y="404" type="curve"/>
      <point x="549" y="476"/>
      <point x="495" y="522"/>
      <point x="420" y="522" type="curve" smooth="yes"/>
      <point x="341" y="522"/>
      <point x="264" y="475"/>
      <point x="229" y="406" type="curve"/>
      <point x="228" y="536" type="line"/>
      <point x="218" y="536" type="line"/>
      <point x="207" y="522"/>
      <point x="189" y="508" name=".hr01"/>
      <point x="105" y="508" type="curve" smooth="yes"/>
      <point x="6" y="508" type="line"/>
      <point x="6" y="498" type="line"/>
      <point x="74" y="498"/>
      <point x="86" y="466"/>
      <point x="87" y="418" type="curve"/>
      <point x="87" y="90" type="line" smooth="yes"/>
      <point x="87" y="42"/>
      <point x="55" y="10"/>
      <point x="7" y="10" type="curve"/>
      <point x="6" y="10" type="line"/>
      <point x="6" y="0" type="line"/>
      <point x="312" y="0" type="line"/>
      <point x="312" y="10" type="line"/>
      <point x="311" y="10" type="line"/>
      <point x="263" y="10"/>
      <point x="231" y="42"/>
      <point x="231" y="90" type="curve" smooth="yes"/>
      <point x="231" y="384" type="line"/>
      <point x="264" y="443"/>
      <point x="313" y="482" name=".hr02"/>
      <point x="354" y="482" type="curve" smooth="yes"/>
      <point x="396" y="482"/>
      <point x="425" y="438"/>
      <point x="425" y="372" type="curve" smooth="yes"/>
      <point x="425" y="90" type="line" smooth="yes"/>
      <point x="425" y="42"/>
      <point x="393" y="10"/>
      <point x="345" y="10" type="curve"/>
      <point x="344" y="10" type="line"/>
      <point x="344" y="0" type="line"/>
      <point x="649" y="0" type="line"/>
      <point x="649" y="10" type="line"/>
      <point x="648" y="10" type="line"/>
      <point x="600" y="10"/>
      <point x="568" y="42"/>
      <point x="568" y="90" type="curve" smooth="yes"/>
      <point x="568" y="362" type="line" smooth="yes"/>
      <point x="568" y="369"/>
      <point x="568" y="376"/>
      <point x="567" y="383" type="curve"/>
      <point x="600" y="441"/>
      <point x="650" y="482"/>
      <point x="691" y="482" type="curve" smooth="yes"/>
      <point x="734" y="482"/>
      <point x="763" y="438"/>
      <point x="763" y="372" type="curve" smooth="yes"/>
      <point x="763" y="90" type="line" smooth="yes"/>
      <point x="763" y="42"/>
      <point x="731" y="10"/>
      <point x="683" y="10" type="curve"/>
      <point x="682" y="10" type="line"/>
      <point x="682" y="0" type="line"/>
      <point x="987" y="0" type="line"/>
      <point x="987" y="10" type="line"/>
    </contour>
  </outline>
</glyph>
<glyph name="n" format="2">
  <advance width="636"/>
  <unicode hex="006E"/>
  <outline>
    <contour>
      <point x="648" y="10" type="line"/>
      <point x="600" y="10"/>
      <point x="568" y="42"/>
      <point x="568" y="90" type="curve" smooth="yes"/>
      <point x="568" y="362" type="line" smooth="yes"/>
      <point x="568" y="458"/>
      <point x="509" y="522"/>
      <point x="420" y="522" type="curve" smooth="yes"/>
      <point x="341" y="522"/>
      <point x="264" y="475"/>
      <point x="229" y="406" type="curve"/>
      <point x="228" y="546" type="line"/>
      <point x="218" y="546" type="line"/>
      <point x="204" y="523"/>
      <point x="175" y="508" name=".hr01"/>
      <point x="105" y="508" type="curve" smooth="yes"/>
      <point x="6" y="508" type="line"/>
      <point x="6" y="498" type="line"/>
      <point x="74" y="498"/>
      <point x="86" y="466"/>
      <point x="87" y="418" type="curve"/>
      <point x="87" y="90" type="line" smooth="yes"/>
      <point x="87" y="42"/>
      <point x="55" y="10"/>
      <point x="7" y="10" type="curve"/>
      <point x="6" y="10" type="line"/>
      <point x="6" y="0" type="line"/>
      <point x="312" y="0" type="line"/>
      <point x="312" y="10" type="line"/>
      <point x="311" y="10" type="line"/>
      <point x="263" y="10"/>
      <point x="231" y="42"/>
      <point x="231" y="90" type="curve" smooth="yes"/>
      <point x="231" y="384" type="line"/>
      <point x="264" y="443"/>
      <point x="313" y="482" name=".hr02"/>
      <point x="354" y="482" type="curve" smooth="yes"/>
      <point x="396" y="482"/>
      <point x="425" y="438"/>
      <point x="425" y="372" type="curve" smooth="yes"/>
      <point x="425" y="90" type="line" smooth="yes"/>
      <point x="425" y="42"/>
      <point x="393" y="10"/>
      <point x="345" y="10" type="curve"/>
      <point x="344" y="10" type="line"/>
      <point x="344" y="0" type="line"/>
      <point x="649" y="0" type="line"/>
      <point x="649" y="10" type="line"/>
    </contour>
  </outline>
</glyph>
<glyph name="q" format="2">
  <advance width="579"/>
  <unicode hex="0071"/>
  <outline>
    <contour>
      <point x="391" y="128" type="line"/>
      <point x="371" y="74"/>
      <point x="317" y="26"/>
      <point x="273" y="26" type="curve" smooth="yes"/>
      <point x="218" y="26"/>
      <point x="189" y="100"/>
      <point x="189" y="244" type="curve" smooth="yes"/>
      <point x="189" y="414"/>
      <point x="228" y="506"/>
      <point x="299" y="506" type="curve" smooth="yes"/>
      <point x="352" y="506"/>
      <point x="386" y="455"/>
      <point x="391" y="371" type="curve"/>
    </contour>
    <contour>
      <point x="525" y="523" type="line"/>
      <point x="425" y="430" type="line"/>
      <point x="397" y="491"/>
      <point x="344" y="523"/>
      <point x="268" y="523" type="curve" smooth="yes"/>
      <point x="127" y="523"/>
      <point x="33" y="413"/>
      <point x="33" y="248" type="curve" smooth="yes"/>
      <point x="33" y="97"/>
      <point x="112" y="-14"/>
      <point x="220" y="-14" type="curve" smooth="yes"/>
      <point x="289" y="-14"/>
      <point x="357" y="32"/>
      <point x="391" y="95" type="curve"/>
      <point x="391" y="-120" type="line" smooth="yes"/>
      <point x="391" y="-168"/>
      <point x="359" y="-200"/>
      <point x="310" y="-200" type="curve"/>
      <point x="310" y="-210" type="line"/>
      <point x="616" y="-210" type="line"/>
      <point x="616" y="-200" type="line"/>
      <point x="567" y="-200"/>
      <point x="535" y="-168"/>
      <point x="535" y="-120" type="curve" smooth="yes"/>
      <point x="535" y="523" type="line"/>
    </contour>
  </outline>
</glyph>
<glyph name="w" format="2">
  <advance width="730"/>
  <unicode hex="0077"/>
  <outline>
    <contour>
      <point x="385" y="322" type="line"/>
      <point x="517" y="-16" type="line"/>
      <point x="525" y="-16" type="line"/>
      <point x="690" y="402" type="line" smooth="yes"/>
      <point x="712" y="458"/>
      <point x="744" y="490"/>
      <point x="774" y="498" type="curve"/>
      <point x="774" y="508" type="line"/>
      <point x="632" y="508" type="line"/>
      <point x="632" y="498" type="line"/>
      <point x="665" y="494"/>
      <point x="683" y="471" name=".hr01"/>
      <point x="683" y="438" type="curve" smooth="yes"/>
      <point x="683" y="425"/>
      <point x="680" y="410"/>
      <point x="674" y="393" type="curve"/>
      <point x="582" y="158" type="line"/>
      <point x="490" y="399" type="line" smooth="yes"/>
      <point x="469" y="453"/>
      <point x="483" y="493"/>
      <point x="525" y="498" type="curve"/>
      <point x="525" y="508" type="line"/>
      <point x="273" y="508" type="line"/>
      <point x="273" y="498" type="line"/>
      <point x="307" y="497"/>
      <point x="326" y="475"/>
      <point x="338" y="444" type="curve" smooth="yes"/>
      <point x="379" y="339" type="line"/>
      <point x="301" y="158" type="line"/>
      <point x="198" y="399" type="line"/>
      <point x="174" y="453"/>
      <point x="190" y="493"/>
      <point x="237" y="498" type="curve"/>
      <point x="237" y="508" type="line"/>
      <point x="-44" y="508" type="line" name=".hr02"/>
      <point x="-44" y="498" type="line"/>
      <point x="-6" y="497"/>
      <point x="15" y="475"/>
      <point x="29" y="444" type="curve" smooth="yes"/>
      <point x="227" y="-16" type="line"/>
      <point x="237" y="-16" type="line"/>
    </contour>
  </outline>
</glyph>
<glyph name="y" format="2">
  <advance width="446"/>
  <unicode hex="0079"/>
  <outline>
    <contour>
      <point x="412" y="402" type="line"/>
      <point x="437" y="458"/>
      <point x="455" y="491"/>
      <point x="485" y="498" type="curve"/>
      <point x="485" y="508" type="line"/>
      <point x="347" y="508" type="line"/>
      <point x="347" y="498" type="line"/>
      <point x="384" y="494"/>
      <point x="404" y="471" name=".hr01"/>
      <point x="404" y="438" type="curve" smooth="yes"/>
      <point x="404" y="425"/>
      <point x="401" y="410"/>
      <point x="394" y="393" type="curve" smooth="yes"/>
      <point x="293" y="156" type="line"/>
      <point x="192" y="393" type="line" smooth="yes"/>
      <point x="185" y="410"/>
      <point x="182" y="425"/>
      <point x="182" y="438" type="curve" smooth="yes"/>
      <point x="182" y="471"/>
      <point x="202" y="494"/>
      <point x="238" y="498" type="curve"/>
      <point x="238" y="508" type="line"/>
      <point x="-51" y="508" type="line"/>
      <point x="-51" y="498" type="line"/>
      <point x="-13" y="497"/>
      <point x="7" y="475"/>
      <point x="21" y="444" type="curve" smooth="yes"/>
      <point x="219" y="-15" type="line"/>
      <point x="208" y="-42" type="line" smooth="yes"/>
      <point x="184" y="-97"/>
      <point x="137" y="-115"/>
      <point x="86" y="-115" type="curve" smooth="yes"/>
      <point x="46" y="-115"/>
      <point x="5" y="-104"/>
      <point x="-28" y="-91" type="curve"/>
      <point x="-67" y="-208" type="line" name=".hr02"/>
      <point x="-40" y="-219"/>
      <point x="-13" y="-224"/>
      <point x="12" y="-224" type="curve" smooth="yes"/>
      <point x="94" y="-224"/>
      <point x="166" y="-170"/>
      <point x="208" y="-72" type="curve" smooth="yes"/>
    </contour>
  </outline>
</glyph>
<glyph name="z" format="2">
  <advance width="481"/>
  <unicode hex="007A"/>
  <outline>
    <contour>
      <point x="69" y="508" type="line"/>
      <point x="48" y="347" type="line"/>
      <point x="60" y="347" type="line"/>
      <point x="76" y="451"/>
      <point x="124" y="496"/>
      <point x="200" y="496" type="curve" smooth="yes"/>
      <point x="270" y="496" type="line"/>
      <point x="26" y="10" type="line"/>
      <point x="26" y="0" type="line"/>
      <point x="416" y="0" type="line"/>
      <point x="441" y="183" type="line"/>
      <point x="429" y="183" type="line"/>
      <point x="411" y="64"/>
      <point x="362" y="13"/>
      <point x="281" y="13" type="curve" smooth="yes"/>
      <point x="175" y="13" type="line"/>
      <point x="421" y="498" type="line"/>
      <point x="421" y="508" type="line"/>
    </contour>
  </outline>
</glyph>
<glyph name="braceleft" format="2">
  <advance width="318"/>
  <unicode hex="007B"/>
  <outline>
    <contour>
      <point x="308" y="854" type="line"/>
      <point x="148" y="827"/>
      <point x="77" y="731"/>
      <point x="105" y="541" type="curve" smooth="yes"/>
      <point x="119" y="448"/>
      <point x="115" y="355"/>
      <point x="31" y="355" type="curve"/>
      <point x="31" y="345" type="line"/>
      <point x="115" y="345"/>
      <point x="120" y="251"/>
      <point x="105" y="156" type="curve" smooth="yes"/>
      <point x="77" y="-32"/>
      <point x="148" y="-128"/>
      <point x="308" y="-155" type="curve"/>
      <point x="308" y="-145" type="line"/>
      <point x="248" y="-118"/>
      <point x="235" y="-53"/>
      <point x="244" y="15" type="curve"/>
      <point x="275" y="230"/>
      <point x="165" y="321"/>
      <point x="71" y="350" type="curve"/>
      <point x="165" y="380"/>
      <point x="275" y="469"/>
      <point x="244" y="684" type="curve"/>
      <point x="235" y="752"/>
      <point x="248" y="817"/>
      <point x="308" y="844" type="curve"/>
    </contour>
  </outline>
</glyph>
<glyph name="braceright" format="2">
  <advance width="318"/>
  <unicode hex="007D"/>
  <outline>
    <contour>
      <point x="11" y="854" type="curve"/>
      <point x="11" y="844" type="line"/>
      <point x="71" y="817"/>
      <point x="84" y="752"/>
      <point x="74" y="684" type="curve" smooth="yes"/>
      <point x="44" y="469"/>
      <point x="154" y="380"/>
      <point x="248" y="351" type="curve"/>
      <point x="154" y="321"/>
      <point x="44" y="230"/>
      <point x="74" y="15" type="curve" smooth="yes"/>
      <point x="84" y="-53"/>
      <point x="71" y="-118"/>
      <point x="11" y="-145" type="curve"/>
      <point x="11" y="-155" type="line"/>
      <point x="171" y="-128"/>
      <point x="242" y="-32"/>
      <point x="213" y="156" type="curve" smooth="yes"/>
      <point x="199" y="251"/>
      <point x="204" y="345"/>
      <point x="288" y="345" type="curve"/>
      <point x="288" y="355" type="line"/>
      <point x="204" y="355"/>
      <point x="200" y="448"/>
      <point x="214" y="541" type="curve" smooth="yes"/>
      <point x="242" y="731"/>
      <point x="171" y="827"/>
    </contour>
  </outline>
</glyph>
<glyph name="cent" format="2">
  <advance width="567"/>
  <unicode hex="00A2"/>
  <outline>
    <contour>
      <point x="279" y="90" type="line"/>
      <point x="215" y="122"/>
      <point x="175" y="204"/>
      <point x="175" y="312" type="curve" smooth="yes"/>
      <point x="175" y="425"/>
      <point x="218" y="506"/>
      <point x="279" y="507" type="curve"/>
    </contour>
    <contour>
      <point x="48" y="251" type="curve" smooth="yes"/>
      <point x="48" y="96"/>
      <point x="142" y="-13"/>
      <point x="279" y="-14" type="curve"/>
      <point x="279" y="-104" type="line"/>
      <point x="289" y="-104" type="line"/>
      <point x="289" y="-14" type="line"/>
      <point x="395" y="-11"/>
      <point x="484" y="58"/>
      <point x="518" y="166" type="curve"/>
      <point x="508" y="169" type="line"/>
      <point x="469" y="112"/>
      <point x="404" y="75"/>
      <point x="343" y="75" type="curve" smooth="yes"/>
      <point x="323" y="75"/>
      <point x="305" y="79"/>
      <point x="289" y="85" type="curve"/>
      <point x="289" y="506" type="line"/>
      <point x="344" y="498"/>
      <point x="378" y="416"/>
      <point x="378" y="286" type="curve"/>
      <point x="498" y="353" type="line"/>
      <point x="483" y="462"/>
      <point x="395" y="523"/>
      <point x="289" y="522" type="curve"/>
      <point x="289" y="612" type="line"/>
      <point x="279" y="612" type="line"/>
      <point x="279" y="522" type="line"/>
      <point x="142" y="515"/>
      <point x="48" y="406"/>
    </contour>
  </outline>
</glyph>
<glyph name="sterling" format="2">
  <advance width="599"/>
  <unicode hex="00A3"/>
  <outline>
    <contour>
      <point x="163" y="260" type="curve" smooth="yes"/>
      <point x="165" y="184"/>
      <point x="119" y="95"/>
      <point x="39" y="13" type="curve"/>
      <point x="39" y="0" type="line"/>
      <point x="528" y="0" type="line"/>
      <point x="559" y="223" type="line"/>
      <point x="549" y="223" type="line"/>
      <point x="533" y="142"/>
      <point x="539" y="133"/>
      <point x="360" y="133" type="curve" smooth="yes"/>
      <point x="146" y="133" type="line"/>
      <point x="209" y="181"/>
      <point x="256" y="261"/>
      <point x="270" y="348" type="curve"/>
      <point x="417" y="348" type="line"/>
      <point x="417" y="361" type="line"/>
      <point x="272" y="361" type="line"/>
      <point x="274" y="376"/>
      <point x="274" y="393"/>
      <point x="274" y="405" type="curve"/>
      <point x="272" y="476"/>
      <point x="224" y="546" name=".hr01"/>
      <point x="224" y="623" type="curve" smooth="yes"/>
      <point x="224" y="696"/>
      <point x="268" y="749"/>
      <point x="329" y="749" type="curve" smooth="yes"/>
      <point x="413" y="749"/>
      <point x="503" y="642"/>
      <point x="518" y="526" type="curve"/>
      <point x="528" y="526" type="line"/>
      <point x="496" y="750" type="line" name=".hr02"/>
      <point x="433" y="750"/>
      <point x="397" y="764" name=".hr03"/>
      <point x="336" y="764" type="curve" smooth="yes"/>
      <point x="186" y="764"/>
      <point x="85" y="680"/>
      <point x="85" y="556" type="curve" smooth="yes"/>
      <point x="85" y="486"/>
      <point x="117" y="423"/>
      <point x="140" y="361" type="curve"/>
      <point x="71" y="361" type="line"/>
      <point x="71" y="348" type="line"/>
      <point x="144" y="348" type="line"/>
      <point x="157" y="313"/>
      <point x="162" y="285"/>
    </contour>
  </outline>
</glyph>
<glyph name="currency" format="2">
  <advance width="413"/>
  <unicode hex="00A4"/>
  <outline>
    <contour>
      <point x="74" y="339" type="curve" smooth="yes"/>
      <point x="74" y="409"/>
      <point x="135" y="468"/>
      <point x="207" y="468" type="curve" smooth="yes"/>
      <point x="279" y="468"/>
      <point x="340" y="409"/>
      <point x="340" y="339" type="curve" smooth="yes"/>
      <point x="340" y="270"/>
      <point x="279" y="210"/>
      <point x="207" y="210" type="curve" smooth="yes"/>
      <point x="135" y="210"/>
      <point x="74" y="270"/>
    </contour>
    <contour>
      <point x="62" y="339" type="curve" smooth="yes"/>
      <point x="62" y="301"/>
      <point x="78" y="267"/>
      <point x="103" y="242" type="curve"/>
      <point x="36" y="175" type="line"/>
      <point x="43" y="168" type="line"/>
      <point x="110" y="235" type="line"/>
      <point x="136" y="212"/>
      <point x="170" y="199"/>
      <point x="207" y="199" type="curve" smooth="yes"/>
      <point x="244" y="199"/>
      <point x="278" y="212"/>
      <point x="304" y="235" type="curve"/>
      <point x="371" y="168" type="line"/>
      <point x="378" y="175" type="line"/>
      <point x="311" y="242" type="line"/>
      <point x="336" y="267"/>
      <point x="352" y="301"/>
      <point x="352" y="339" type="curve" smooth="yes"/>
      <point x="352" y="378"/>
      <point x="336" y="412"/>
      <point x="311" y="437" type="curve"/>
      <point x="378" y="503" type="line"/>
      <point x="371" y="510" type="line"/>
      <point x="304" y="443" type="line"/>
      <point x="278" y="466"/>
      <point x="244" y="479"/>
      <point x="207" y="479" type="curve" smooth="yes"/>
      <point x="170" y="479"/>
      <point x="136" y="466"/>
      <point x="110" y="443" type="curve"/>
      <point x="43" y="510" type="line"/>
      <point x="36" y="503" type="line"/>
      <point x="102" y="436" type="line"/>
      <point x="78" y="412"/>
      <point x="62" y="378"/>
    </contour>
  </outline>
</glyph>
<glyph name="yen" format="2">
  <advance width="689"/>
  <unicode hex="00A5"/>
  <outline>
    <contour>
      <point x="499" y="740" type="line"/>
      <point x="578" y="740"/>
      <point x="590" y="690"/>
      <point x="539" y="621" type="curve" smooth="yes"/>
      <point x="418" y="458" type="line"/>
      <point x="288" y="634" type="line" smooth="yes"/>
      <point x="246" y="690"/>
      <point x="264" y="740"/>
      <point x="337" y="740" type="curve"/>
      <point x="337" y="750" type="line"/>
      <point x="-2" y="750" type="line"/>
      <point x="-2" y="740" type="line"/>
      <point x="-1" y="740" type="line"/>
      <point x="33" y="740"/>
      <point x="56" y="724"/>
      <point x="73" y="702" type="curve" smooth="yes"/>
      <point x="269" y="448" type="line"/>
      <point x="79" y="448" type="line"/>
      <point x="79" y="435" type="line"/>
      <point x="279" y="435" type="line"/>
      <point x="283" y="430" type="line"/>
      <point x="283" y="349" type="line"/>
      <point x="79" y="349" type="line"/>
      <point x="79" y="336" type="line"/>
      <point x="283" y="336" type="line"/>
      <point x="283" y="90" type="line" smooth="yes"/>
      <point x="283" y="42"/>
      <point x="251" y="10"/>
      <point x="203" y="10" type="curve"/>
      <point x="201" y="10" type="line"/>
      <point x="200" y="0" type="line"/>
      <point x="509" y="0" type="line"/>
      <point x="508" y="10" type="line"/>
      <point x="506" y="10" type="line"/>
      <point x="460" y="10"/>
      <point x="428" y="43"/>
      <point x="428" y="90" type="curve" smooth="yes"/>
      <point x="428" y="336" type="line"/>
      <point x="633" y="336" type="line"/>
      <point x="633" y="349" type="line"/>
      <point x="428" y="349" type="line"/>
      <point x="428" y="435" type="line"/>
      <point x="633" y="435" type="line"/>
      <point x="633" y="448" type="line"/>
      <point x="428" y="448" type="line"/>
      <point x="568" y="637" type="line" smooth="yes"/>
      <point x="613" y="697"/>
      <point x="644" y="737"/>
      <point x="689" y="740" type="curve"/>
      <point x="689" y="750" type="line"/>
      <point x="499" y="750" type="line"/>
    </contour>
  </outline>
</glyph>
<glyph name="dieresis" format="2">
  <advance width="411"/>
  <unicode hex="00A8"/>
  <outline>
    <contour>
      <point x="32" y="679" type="curve" smooth="yes"/>
      <point x="32" y="638"/>
      <point x="66" y="604"/>
      <point x="107" y="604" type="curve" smooth="yes"/>
      <point x="147" y="604"/>
      <point x="182" y="638"/>
      <point x="182" y="679" type="curve" smooth="yes"/>
      <point x="182" y="720"/>
      <point x="147" y="754"/>
      <point x="107" y="754" type="curve" smooth="yes"/>
      <point x="66" y="754"/>
      <point x="32" y="720"/>
    </contour>
    <contour>
      <point x="230" y="679" type="curve" smooth="yes"/>
      <point x="230" y="638"/>
      <point x="264" y="604"/>
      <point x="305" y="604" type="curve" smooth="yes"/>
      <point x="345" y="604"/>
      <point x="380" y="638"/>
      <point x="380" y="679" type="curve" smooth="yes"/>
      <point x="380" y="720"/>
      <point x="345" y="754"/>
      <point x="305" y="754" type="curve" smooth="yes"/>
      <point x="264" y="754"/>
      <point x="230" y="720"/>
    </contour>
  </outline>
</glyph>
<glyph name="ordfeminine" format="2">
  <advance width="418"/>
  <unicode hex="00AA"/>
  <outline>
    <contour>
      <point x="256" y="443" type="line"/>
      <point x="231" y="419"/>
      <point x="211" y="408"/>
      <point x="189" y="408" type="curve" smooth="yes"/>
      <point x="156" y="408"/>
      <point x="132" y="439"/>
      <point x="132" y="481" type="curve" smooth="yes"/>
      <point x="132" y="525"/>
      <point x="148" y="555"/>
      <point x="227" y="584" type="curve" smooth="yes"/>
      <point x="257" y="595" type="line"/>
    </contour>
    <contour>
      <point x="221" y="764" type="curve" smooth="yes"/>
      <point x="145" y="764"/>
      <point x="76" y="723"/>
      <point x="50" y="662" type="curve"/>
      <point x="131" y="615" type="line"/>
      <point x="140" y="701"/>
      <point x="168" y="754"/>
      <point x="206" y="754" type="curve" smooth="yes"/>
      <point x="237" y="754"/>
      <point x="257" y="719"/>
      <point x="257" y="662" type="curve" smooth="yes"/>
      <point x="257" y="605" type="line"/>
      <point x="187" y="580" type="line" smooth="yes"/>
      <point x="55" y="532"/>
      <point x="32" y="497"/>
      <point x="32" y="452" type="curve" smooth="yes"/>
      <point x="32" y="398"/>
      <point x="72" y="362"/>
      <point x="133" y="362" type="curve" smooth="yes"/>
      <point x="176" y="362"/>
      <point x="208" y="380"/>
      <point x="258" y="433" type="curve"/>
      <point x="265" y="390"/>
      <point x="294" y="362"/>
      <point x="332" y="362" type="curve" smooth="yes"/>
      <point x="368" y="362"/>
      <point x="409" y="386"/>
      <point x="434" y="421" type="curve"/>
      <point x="428" y="426" type="line"/>
      <point x="417" y="413"/>
      <point x="406" y="407"/>
      <point x="394" y="407" type="curve" smooth="yes"/>
      <point x="375" y="407"/>
      <point x="364" y="423"/>
      <point x="365" y="451" type="curve"/>
      <point x="365" y="632" type="line" smooth="yes"/>
      <point x="365" y="711"/>
      <point x="307" y="764"/>
    </contour>
  </outline>
</glyph>
<glyph name="logicalnot" format="2">
  <advance width="420"/>
  <unicode hex="00AC"/>
  <outline>
    <contour>
      <point x="365" y="256" type="line"/>
      <point x="375" y="256" type="line"/>
      <point x="375" y="421" type="line"/>
      <point x="45" y="421" type="line"/>
      <point x="45" y="411" type="line"/>
      <point x="365" y="411" type="line"/>
    </contour>
  </outline>
</glyph>
<glyph name="macron" format="2">
  <advance width="283"/>
  <unicode hex="00AF"/>
  <outline>
    <contour>
      <point x="32" y="671" type="line"/>
      <point x="252" y="671" type="line"/>
      <point x="252" y="724" type="line"/>
      <point x="32" y="724" type="line"/>
    </contour>
  </outline>
</glyph>
<glyph name="acute" format="2">
  <advance width="269"/>
  <unicode hex="00B4"/>
  <outline>
    <contour>
      <point x="238" y="721" type="line"/>
      <point x="238" y="726" type="line"/>
      <point x="173" y="784" type="line"/>
      <point x="168" y="784" type="line"/>
      <point x="31" y="591" type="line"/>
      <point x="38" y="581" type="line"/>
    </contour>
  </outline>
</glyph>
<glyph name="paragraph" format="2">
  <advance width="354"/>
  <unicode hex="00B6"/>
  <outline>
    <contour>
      <point x="323" y="750" type="line"/>
      <point x="192" y="750" type="line" smooth="yes"/>
      <point x="90" y="750"/>
      <point x="30" y="695"/>
      <point x="30" y="602" type="curve" smooth="yes"/>
      <point x="30" y="509"/>
      <point x="90" y="454"/>
      <point x="192" y="454" type="curve" smooth="yes"/>
      <point x="227" y="454" type="line"/>
      <point x="227" y="-50" type="line"/>
      <point x="238" y="-50" type="line"/>
      <point x="238" y="740" type="line"/>
      <point x="312" y="740" type="line"/>
      <point x="312" y="-50" type="line"/>
      <point x="323" y="-50" type="line"/>
    </contour>
  </outline>
</glyph>
<glyph name="cedilla" format="2">
  <advance width="260"/>
  <unicode hex="00B8"/>
  <outline>
    <contour>
      <point x="115" y="0" type="line"/>
      <point x="92" y="-57" type="line"/>
      <point x="92" y="-63" type="line"/>
      <point x="124" y="-69"/>
      <point x="149" y="-106"/>
      <point x="149" y="-150" type="curve" smooth="yes"/>
      <point x="149" y="-186"/>
      <point x="132" y="-208"/>
      <point x="106" y="-208" type="curve" smooth="yes"/>
      <point x="75" y="-208"/>
      <point x="51" y="-177"/>
      <point x="38" y="-119" type="curve"/>
      <point x="27" y="-119" type="line"/>
      <point x="46" y="-218" type="line" name=".hr01"/>
      <point x="81" y="-218"/>
      <point x="88" y="-225" name=".hr02"/>
      <point x="120" y="-225" type="curve" smooth="yes"/>
      <point x="186" y="-225"/>
      <point x="229" y="-193"/>
      <point x="229" y="-145" type="curve" smooth="yes"/>
      <point x="229" y="-92"/>
      <point x="180" y="-57"/>
      <point x="106" y="-56" type="curve"/>
      <point x="129" y="0" type="line"/>
    </contour>
  </outline>
</glyph>
<glyph name="ordmasculine" format="2">
  <advance width="470"/>
  <unicode hex="00BA"/>
  <outline>
    <contour>
      <point x="28" y="563" type="curve" smooth="yes"/>
      <point x="28" y="442"/>
      <point x="111" y="362"/>
      <point x="235" y="362" type="curve" smooth="yes"/>
      <point x="358" y="362"/>
      <point x="441" y="442"/>
      <point x="441" y="563" type="curve" smooth="yes"/>
      <point x="441" y="684"/>
      <point x="358" y="764"/>
      <point x="235" y="764" type="curve" smooth="yes"/>
      <point x="111" y="764"/>
      <point x="28" y="684"/>
    </contour>
    <contour>
      <point x="154" y="564" type="curve" smooth="yes"/>
      <point x="154" y="675"/>
      <point x="186" y="755"/>
      <point x="235" y="755" type="curve" smooth="yes"/>
      <point x="284" y="755"/>
      <point x="315" y="675"/>
      <point x="315" y="564" type="curve" smooth="yes"/>
      <point x="315" y="453"/>
      <point x="284" y="372"/>
      <point x="234" y="372" type="curve" smooth="yes"/>
      <point x="185" y="372"/>
      <point x="154" y="453"/>
    </contour>
  </outline>
</glyph>
<glyph name="threequarters" format="2">
  <advance width="717"/>
  <unicode hex="00BE"/>
  <outline>
    <contour>
      <point x="475" y="160" type="line"/>
      <point x="371" y="160" type="line"/>
      <point x="475" y="303" type="line"/>
    </contour>
    <contour>
      <point x="648" y="750" type="line"/>
      <point x="633" y="750" type="line"/>
      <point x="109" y="0" type="line"/>
      <point x="124" y="0" type="line"/>
    </contour>
    <contour>
      <point x="315" y="97" type="line"/>
      <point x="315" y="92" type="line" name=".hr01"/>
      <point x="319" y="92" type="line"/>
      <point x="475" y="92" type="line"/>
      <point x="475" y="47" type="line"/>
      <point x="474" y="22"/>
      <point x="456" y="6"/>
      <point x="431" y="6" type="curve"/>
      <point x="430" y="0" type="line" name=".hr02"/>
      <point x="603" y="0" type="line"/>
      <point x="602" y="6" type="line"/>
      <point x="575" y="6"/>
      <point x="558" y="23"/>
      <point x="558" y="50" type="curve" smooth="yes"/>
      <point x="558" y="92" type="line" name=".hr03"/>
      <point x="621" y="92" type="line"/>
      <point x="621" y="160" type="line"/>
      <point x="558" y="160" type="line"/>
      <point x="558" y="424" type="line"/>
      <point x="552" y="424" type="line"/>
    </contour>
    <contour>
      <point x="319" y="483" type="curve" smooth="yes"/>
      <point x="319" y="564"/>
      <point x="273" y="615"/>
      <point x="204" y="609" type="curve"/>
      <point x="255" y="628"/>
      <point x="287" y="663" name=".hr04"/>
      <point x="287" y="697" type="curve" smooth="yes"/>
      <point x="287" y="737"/>
      <point x="245" y="764"/>
      <point x="184" y="764" type="curve" smooth="yes"/>
      <point x="149" y="764"/>
      <point x="128" y="756"/>
      <point x="92" y="756" type="curve"/>
      <point x="75" y="643" type="line"/>
      <point x="84" y="643" type="line"/>
      <point x="94" y="713"/>
      <point x="129" y="752"/>
      <point x="174" y="752" type="curve" smooth="yes"/>
      <point x="196" y="752"/>
      <point x="206" y="742"/>
      <point x="206" y="707" type="curve" smooth="yes"/>
      <point x="206" y="656"/>
      <point x="183" y="617"/>
      <point x="129" y="577" type="curve"/>
      <point x="129" y="567" type="line"/>
      <point x="145" y="576"/>
      <point x="161" y="580"/>
      <point x="175" y="580" type="curve" smooth="yes"/>
      <point x="214" y="580"/>
      <point x="241" y="544" name=".hr05"/>
      <point x="241" y="479" type="curve" smooth="yes"/>
      <point x="241" y="403"/>
      <point x="205" y="356"/>
      <point x="162" y="356" type="curve" smooth="yes"/>
      <point x="119" y="356"/>
      <point x="83" y="399"/>
      <point x="74" y="472" type="curve"/>
      <point x="65" y="472" type="line"/>
      <point x="82" y="351" type="line"/>
      <point x="116" y="351"/>
      <point x="136" y="344"/>
      <point x="170" y="344" type="curve" smooth="yes"/>
      <point x="256" y="344"/>
      <point x="319" y="399"/>
    </contour>
  </outline>
</glyph>
<glyph name="questiondown" format="2">
  <advance width="434"/>
  <unicode hex="00BF"/>
  <outline>
    <contour>
      <point x="259" y="269" type="line"/>
      <point x="259" y="38"/>
      <point x="30" y="40"/>
      <point x="30" y="-97" type="curve" smooth="yes"/>
      <point x="30" y="-192"/>
      <point x="151" y="-214"/>
      <point x="225" y="-214" type="curve" smooth="yes"/>
      <point x="278" y="-214"/>
      <point x="330" y="-201"/>
      <point x="383" y="-200" type="curve"/>
      <point x="416" y="52" type="line"/>
      <point x="406" y="52" type="line"/>
      <point x="393" y="-35"/>
      <point x="361" y="-200"/>
      <point x="247" y="-200" type="curve" smooth="yes"/>
      <point x="197" y="-200"/>
      <point x="188" y="-162"/>
      <point x="188" y="-120" type="curve" smooth="yes"/>
      <point x="188" y="8"/>
      <point x="269" y="85"/>
      <point x="269" y="269" type="curve"/>
    </contour>
    <contour>
      <point x="348" y="436" type="curve" smooth="yes"/>
      <point x="348" y="391"/>
      <point x="309" y="352"/>
      <point x="263" y="352" type="curve" smooth="yes"/>
      <point x="217" y="352"/>
      <point x="178" y="391"/>
      <point x="178" y="436" type="curve" smooth="yes"/>
      <point x="178" y="482"/>
      <point x="217" y="522"/>
      <point x="263" y="522" type="curve" smooth="yes"/>
      <point x="309" y="522"/>
      <point x="348" y="482"/>
    </contour>
  </outline>
</glyph>
<glyph name="Aacute" format="2">
  <advance width="684"/>
  <unicode hex="00C1"/>
  <outline>
    <contour>
      <point x="386" y="276" type="line"/>
      <point x="155" y="276" type="line"/>
      <point x="272" y="564" type="line"/>
    </contour>
    <contour>
      <point x="77" y="119" type="line" smooth="yes"/>
      <point x="55" y="66"/>
      <point x="13" y="13"/>
      <point x="-24" y="10" type="curve"/>
      <point x="-24" y="0" type="line"/>
      <point x="171" y="0" type="line"/>
      <point x="171" y="10" type="line"/>
      <point x="105" y="13"/>
      <point x="70" y="66"/>
      <point x="94" y="124" type="curve" smooth="yes"/>
      <point x="150" y="263" type="line"/>
      <point x="391" y="263" type="line"/>
      <point x="451" y="114" type="line" smooth="yes"/>
      <point x="477" y="49"/>
      <point x="455" y="10"/>
      <point x="395" y="10" type="curve" smooth="yes"/>
      <point x="391" y="10" type="line"/>
      <point x="391" y="0" type="line"/>
      <point x="711" y="0" type="line"/>
      <point x="711" y="10" type="line"/>
      <point x="708" y="10" type="line" smooth="yes"/>
      <point x="673" y="10"/>
      <point x="639" y="48"/>
      <point x="610" y="119" type="curve" smooth="yes"/>
      <point x="350" y="765" type="line"/>
      <point x="341" y="765" type="line"/>
    </contour>
    <contour>
      <point x="497" y="918" type="line"/>
      <point x="433" y="976" type="line"/>
      <point x="428" y="976" type="line"/>
      <point x="290" y="783" type="line"/>
      <point x="297" y="773" type="line"/>
      <point x="497" y="913" type="line"/>
    </contour>
  </outline>
</glyph>
<glyph name="Adieresis" format="2">
  <advance width="684"/>
  <unicode hex="00C4"/>
  <outline>
    <contour>
      <point x="386" y="276" type="line"/>
      <point x="155" y="276" type="line"/>
      <point x="272" y="564" type="line"/>
    </contour>
    <contour>
      <point x="77" y="119" type="line" smooth="yes"/>
      <point x="55" y="66"/>
      <point x="13" y="13"/>
      <point x="-24" y="10" type="curve"/>
      <point x="-24" y="0" type="line"/>
      <point x="171" y="0" type="line"/>
      <point x="171" y="10" type="line"/>
      <point x="105" y="13"/>
      <point x="70" y="66"/>
      <point x="94" y="124" type="curve" smooth="yes"/>
      <point x="150" y="263" type="line"/>
      <point x="391" y="263" type="line"/>
      <point x="451" y="114" type="line" smooth="yes"/>
      <point x="477" y="49"/>
      <point x="455" y="10"/>
      <point x="395" y="10" type="curve" smooth="yes"/>
      <point x="391" y="10" type="line"/>
      <point x="391" y="0" type="line"/>
      <point x="711" y="0" type="line"/>
      <point x="711" y="10" type="line"/>
      <point x="708" y="10" type="line" smooth="yes"/>
      <point x="673" y="10"/>
      <point x="639" y="48"/>
      <point x="610" y="119" type="curve" smooth="yes"/>
      <point x="350" y="765" type="line"/>
      <point x="341" y="765" type="line"/>
    </contour>
    <contour>
      <point x="172" y="871" type="curve" smooth="yes"/>
      <point x="172" y="830"/>
      <point x="206" y="796"/>
      <point x="247" y="796" type="curve" smooth="yes"/>
      <point x="287" y="796"/>
      <point x="322" y="830"/>
      <point x="322" y="871" type="curve" smooth="yes"/>
      <point x="322" y="912"/>
      <point x="287" y="946"/>
      <point x="247" y="946" type="curve" smooth="yes"/>
      <point x="206" y="946"/>
      <point x="172" y="912"/>
    </contour>
    <contour>
      <point x="370" y="871" type="curve" smooth="yes"/>
      <point x="370" y="830"/>
      <point x="404" y="796"/>
      <point x="445" y="796" type="curve" smooth="yes"/>
      <point x="485" y="796"/>
      <point x="520" y="830"/>
      <point x="520" y="871" type="curve" smooth="yes"/>
      <point x="520" y="912"/>
      <point x="485" y="946"/>
      <point x="445" y="946" type="curve" smooth="yes"/>
      <point x="404" y="946"/>
      <point x="370" y="912"/>
    </contour>
  </outline>
</glyph>
<glyph name="Aring" format="2">
  <advance width="684"/>
  <unicode hex="00C5"/>
  <outline>
    <contour>
      <point x="386" y="276" type="line"/>
      <point x="155" y="276" type="line"/>
      <point x="272" y="564" type="line"/>
    </contour>
    <contour>
      <point x="290" y="881" type="curve" smooth="yes"/>
      <point x="290" y="911"/>
      <point x="315" y="937"/>
      <point x="346" y="937" type="curve" smooth="yes"/>
      <point x="376" y="937"/>
      <point x="402" y="911"/>
      <point x="402" y="881" type="curve" smooth="yes"/>
      <point x="402" y="851"/>
      <point x="376" y="825"/>
      <point x="346" y="825" type="curve" smooth="yes"/>
      <point x="315" y="825"/>
      <point x="290" y="851"/>
    </contour>
    <contour>
      <point x="77" y="119" type="line" smooth="yes"/>
      <point x="55" y="66"/>
      <point x="13" y="13"/>
      <point x="-24" y="10" type="curve"/>
      <point x="-24" y="0" type="line"/>
      <point x="171" y="0" type="line"/>
      <point x="171" y="10" type="line"/>
      <point x="105" y="13"/>
      <point x="70" y="66"/>
      <point x="94" y="124" type="curve" smooth="yes"/>
      <point x="150" y="263" type="line"/>
      <point x="391" y="263" type="line"/>
      <point x="451" y="114" type="line" smooth="yes"/>
      <point x="477" y="49"/>
      <point x="455" y="10"/>
      <point x="395" y="10" type="curve" smooth="yes"/>
      <point x="391" y="10" type="line"/>
      <point x="391" y="0" type="line"/>
      <point x="711" y="0" type="line"/>
      <point x="711" y="10" type="line"/>
      <point x="708" y="10" type="line" smooth="yes"/>
      <point x="673" y="10"/>
      <point x="639" y="48"/>
      <point x="610" y="119" type="curve" smooth="yes"/>
      <point x="350" y="765" type="line"/>
      <point x="341" y="765" type="line"/>
    </contour>
    <contour>
      <point x="268" y="881" type="curve" smooth="yes"/>
      <point x="268" y="840"/>
      <point x="304" y="806"/>
      <point x="346" y="806" type="curve" smooth="yes"/>
      <point x="387" y="806"/>
      <point x="423" y="840"/>
      <point x="423" y="881" type="curve" smooth="yes"/>
      <point x="423" y="922"/>
      <point x="387" y="956"/>
      <point x="346" y="956" type="curve" smooth="yes"/>
      <point x="304" y="956"/>
      <point x="268" y="922"/>
    </contour>
  </outline>
</glyph>
<glyph name="Eacute" format="2">
  <advance width="606"/>
  <unicode hex="00C9"/>
  <outline>
    <contour>
      <point x="314" y="13" type="line" smooth="yes"/>
      <point x="267" y="13"/>
      <point x="244" y="37"/>
      <point x="244" y="84" type="curve" smooth="yes"/>
      <point x="244" y="435" type="line"/>
      <point x="323" y="435" type="line" smooth="yes"/>
      <point x="395" y="435"/>
      <point x="443" y="385"/>
      <point x="444" y="313" type="curve"/>
      <point x="454" y="313" type="line"/>
      <point x="454" y="559" type="line"/>
      <point x="444" y="559" type="line"/>
      <point x="444" y="493"/>
      <point x="400" y="448"/>
      <point x="334" y="448" type="curve" smooth="yes"/>
      <point x="244" y="448" type="line"/>
      <point x="244" y="737" type="line"/>
      <point x="328" y="737" type="line" smooth="yes"/>
      <point x="466" y="737"/>
      <point x="545" y="674"/>
      <point x="565" y="549" type="curve"/>
      <point x="575" y="549" type="line"/>
      <point x="545" y="750" type="line"/>
      <point x="9" y="750" type="line"/>
      <point x="10" y="740" type="line" name=".hr01"/>
      <point x="58" y="740"/>
      <point x="90" y="708"/>
      <point x="90" y="660" type="curve" smooth="yes"/>
      <point x="90" y="84" type="line" smooth="yes"/>
      <point x="90" y="36"/>
      <point x="58" y="10"/>
      <point x="10" y="10" type="curve"/>
      <point x="9" y="10" type="line"/>
      <point x="8" y="0" type="line"/>
      <point x="563" y="0" type="line"/>
      <point x="593" y="220" type="line"/>
      <point x="583" y="220" type="line"/>
      <point x="562" y="78"/>
      <point x="484" y="13" name=".hr02"/>
      <point x="356" y="13" type="curve" smooth="yes"/>
    </contour>
    <contour>
      <point x="447" y="923" type="line"/>
      <point x="447" y="928" type="line"/>
      <point x="383" y="986" type="line"/>
      <point x="378" y="986" type="line"/>
      <point x="241" y="793" type="line"/>
      <point x="248" y="783" type="line"/>
    </contour>
  </outline>
</glyph>
<glyph name="Iacute" format="2">
  <advance width="317"/>
  <unicode hex="00CD"/>
  <outline>
    <contour>
      <point x="316" y="10" type="line"/>
      <point x="268" y="10"/>
      <point x="236" y="42"/>
      <point x="236" y="90" type="curve" smooth="yes"/>
      <point x="236" y="660" type="line" smooth="yes"/>
      <point x="236" y="708"/>
      <point x="268" y="740"/>
      <point x="316" y="740" type="curve"/>
      <point x="317" y="740" type="line"/>
      <point x="317" y="750" type="line"/>
      <point x="0" y="750" type="line"/>
      <point x="0" y="740" type="line"/>
      <point x="1" y="740" type="line"/>
      <point x="49" y="740"/>
      <point x="81" y="708"/>
      <point x="81" y="660" type="curve" smooth="yes"/>
      <point x="81" y="90" type="line" smooth="yes"/>
      <point x="81" y="42"/>
      <point x="49" y="10"/>
      <point x="1" y="10" type="curve"/>
      <point x="0" y="10" type="line"/>
      <point x="0" y="0" type="line"/>
      <point x="317" y="0" type="line"/>
      <point x="317" y="10" type="line"/>
    </contour>
    <contour>
      <point x="263" y="923" type="line"/>
      <point x="263" y="928" type="line"/>
      <point x="199" y="986" type="line"/>
      <point x="194" y="986" type="line"/>
      <point x="57" y="793" type="line"/>
      <point x="64" y="783" type="line"/>
    </contour>
  </outline>
</glyph>
<glyph name="Icircumflex" format="2">
  <advance width="317"/>
  <unicode hex="00CE"/>
  <outline>
    <contour>
      <point x="316" y="10" type="line"/>
      <point x="268" y="10"/>
      <point x="236" y="42"/>
      <point x="236" y="90" type="curve" smooth="yes"/>
      <point x="236" y="660" type="line" smooth="yes"/>
      <point x="236" y="708"/>
      <point x="268" y="740"/>
      <point x="316" y="740" type="curve"/>
      <point x="317" y="740" type="line"/>
      <point x="317" y="750" type="line"/>
      <point x="0" y="750" type="line"/>
      <point x="0" y="740" type="line"/>
      <point x="1" y="740" type="line"/>
      <point x="49" y="740"/>
      <point x="81" y="708"/>
      <point x="81" y="660" type="curve" smooth="yes"/>
      <point x="81" y="90" type="line" smooth="yes"/>
      <point x="81" y="42"/>
      <point x="49" y="10"/>
      <point x="1" y="10" type="curve"/>
      <point x="0" y="10" type="line"/>
      <point x="0" y="0" type="line"/>
      <point x="317" y="0" type="line"/>
      <point x="317" y="10" type="line"/>
    </contour>
    <contour>
      <point x="184" y="986" type="line"/>
      <point x="133" y="986" type="line"/>
      <point x="6" y="790" type="line"/>
      <point x="13" y="783" type="line"/>
      <point x="159" y="916" type="line"/>
      <point x="305" y="783" type="line"/>
      <point x="312" y="790" type="line"/>
    </contour>
  </outline>
</glyph>
<glyph name="Idieresis" format="2">
  <advance width="317"/>
  <unicode hex="00CF"/>
  <outline>
    <contour>
      <point x="316" y="10" type="line"/>
      <point x="268" y="10"/>
      <point x="236" y="42"/>
      <point x="236" y="90" type="curve" smooth="yes"/>
      <point x="236" y="660" type="line" smooth="yes"/>
      <point x="236" y="708"/>
      <point x="268" y="740"/>
      <point x="316" y="740" type="curve"/>
      <point x="317" y="740" type="line"/>
      <point x="317" y="750" type="line"/>
      <point x="0" y="750" type="line"/>
      <point x="0" y="740" type="line"/>
      <point x="1" y="740" type="line"/>
      <point x="49" y="740"/>
      <point x="81" y="708"/>
      <point x="81" y="660" type="curve" smooth="yes"/>
      <point x="81" y="90" type="line" smooth="yes"/>
      <point x="81" y="42"/>
      <point x="49" y="10"/>
      <point x="1" y="10" type="curve"/>
      <point x="0" y="10" type="line"/>
      <point x="0" y="0" type="line"/>
      <point x="317" y="0" type="line"/>
      <point x="317" y="10" type="line"/>
    </contour>
    <contour>
      <point x="-15" y="881" type="curve" smooth="yes" name=".hr01"/>
      <point x="-15" y="840"/>
      <point x="20" y="806"/>
      <point x="61" y="806" type="curve" smooth="yes"/>
      <point x="101" y="806"/>
      <point x="136" y="840"/>
      <point x="136" y="881" type="curve" smooth="yes"/>
      <point x="136" y="922"/>
      <point x="101" y="956"/>
      <point x="61" y="956" type="curve" smooth="yes"/>
      <point x="20" y="956"/>
      <point x="-15" y="922"/>
    </contour>
    <contour>
      <point x="184" y="881" type="curve" smooth="yes"/>
      <point x="184" y="840"/>
      <point x="218" y="806"/>
      <point x="259" y="806" type="curve" smooth="yes"/>
      <point x="299" y="806"/>
      <point x="334" y="840"/>
      <point x="334" y="881" type="curve" smooth="yes"/>
      <point x="334" y="922"/>
      <point x="299" y="956"/>
      <point x="259" y="956" type="curve" smooth="yes"/>
      <point x="218" y="956"/>
      <point x="184" y="922"/>
    </contour>
  </outline>
</glyph>
<glyph name="Ocircumflex" format="2">
  <advance width="878"/>
  <unicode hex="00D4"/>
  <outline>
    <contour>
      <point x="207" y="376" type="curve" smooth="yes"/>
      <point x="207" y="601"/>
      <point x="300" y="751"/>
      <point x="439" y="751" type="curve" smooth="yes"/>
      <point x="578" y="751"/>
      <point x="671" y="601"/>
      <point x="671" y="376" type="curve" smooth="yes"/>
      <point x="671" y="151"/>
      <point x="578" y="2"/>
      <point x="439" y="2" type="curve" smooth="yes"/>
      <point x="300" y="2"/>
      <point x="207" y="151"/>
    </contour>
    <contour>
      <point x="37" y="375" type="curve" smooth="yes"/>
      <point x="37" y="142"/>
      <point x="198" y="-14"/>
      <point x="439" y="-14" type="curve" smooth="yes"/>
      <point x="680" y="-14"/>
      <point x="841" y="142"/>
      <point x="841" y="375" type="curve" smooth="yes"/>
      <point x="841" y="608"/>
      <point x="680" y="764"/>
      <point x="439" y="764" type="curve" smooth="yes"/>
      <point x="198" y="764"/>
      <point x="37" y="608"/>
    </contour>
    <contour>
      <point x="413" y="986" type="line"/>
      <point x="286" y="790" type="line"/>
      <point x="293" y="783" type="line"/>
      <point x="439" y="916" type="line"/>
      <point x="585" y="783" type="line"/>
      <point x="592" y="790" type="line"/>
      <point x="464" y="986" type="line"/>
    </contour>
  </outline>
</glyph>
<glyph name="Otilde" format="2">
  <advance width="878"/>
  <unicode hex="00D5"/>
  <outline>
    <contour>
      <point x="207" y="376" type="curve" smooth="yes"/>
      <point x="207" y="601"/>
      <point x="300" y="751"/>
      <point x="439" y="751" type="curve" smooth="yes"/>
      <point x="578" y="751"/>
      <point x="671" y="601"/>
      <point x="671" y="376" type="curve" smooth="yes"/>
      <point x="671" y="151"/>
      <point x="578" y="2"/>
      <point x="439" y="2" type="curve" smooth="yes"/>
      <point x="300" y="2"/>
      <point x="207" y="151"/>
    </contour>
    <contour>
      <point x="37" y="375" type="curve" smooth="yes"/>
      <point x="37" y="142"/>
      <point x="198" y="-14"/>
      <point x="439" y="-14" type="curve" smooth="yes"/>
      <point x="680" y="-14"/>
      <point x="841" y="142"/>
      <point x="841" y="375" type="curve" smooth="yes"/>
      <point x="841" y="608"/>
      <point x="680" y="764"/>
      <point x="439" y="764" type="curve" smooth="yes"/>
      <point x="198" y="764"/>
      <point x="37" y="608"/>
    </contour>
    <contour>
      <point x="577" y="929" type="line"/>
      <point x="558" y="895"/>
      <point x="537" y="885"/>
      <point x="517" y="885" type="curve" smooth="yes"/>
      <point x="469" y="885"/>
      <point x="442" y="942"/>
      <point x="390" y="942" type="curve" smooth="yes"/>
      <point x="354" y="942" name=".hr01"/>
      <point x="315" y="898"/>
      <point x="292" y="832" type="curve"/>
      <point x="302" y="828" type="line"/>
      <point x="319" y="859"/>
      <point x="345" y="872"/>
      <point x="368" y="872" type="curve" smooth="yes"/>
      <point x="414" y="872"/>
      <point x="442" y="815"/>
      <point x="494" y="815" type="curve" smooth="yes"/>
      <point x="533" y="815" name=".hr02"/>
      <point x="570" y="859"/>
      <point x="587" y="925" type="curve"/>
    </contour>
  </outline>
</glyph>
<glyph name="Odieresis" format="2">
  <advance width="878"/>
  <unicode hex="00D6"/>
  <outline>
    <contour>
      <point x="37" y="375" type="curve" smooth="yes"/>
      <point x="37" y="142"/>
      <point x="198" y="-14"/>
      <point x="439" y="-14" type="curve" smooth="yes"/>
      <point x="680" y="-14"/>
      <point x="841" y="142"/>
      <point x="841" y="375" type="curve" smooth="yes"/>
      <point x="841" y="608"/>
      <point x="680" y="764"/>
      <point x="439" y="764" type="curve" smooth="yes"/>
      <point x="198" y="764"/>
      <point x="37" y="608"/>
    </contour>
    <contour>
      <point x="207" y="376" type="curve" smooth="yes"/>
      <point x="207" y="601"/>
      <point x="300" y="751"/>
      <point x="439" y="751" type="curve" smooth="yes"/>
      <point x="578" y="751"/>
      <point x="671" y="601"/>
      <point x="671" y="376" type="curve" smooth="yes"/>
      <point x="671" y="151"/>
      <point x="578" y="2"/>
      <point x="439" y="2" type="curve" smooth="yes"/>
      <point x="300" y="2"/>
      <point x="207" y="151"/>
    </contour>
    <contour>
      <point x="265" y="881" type="curve" smooth="yes"/>
      <point x="265" y="840"/>
      <point x="299" y="806"/>
      <point x="340" y="806" type="curve" smooth="yes"/>
      <point x="381" y="806"/>
      <point x="415" y="840"/>
      <point x="415" y="881" type="curve" smooth="yes"/>
      <point x="415" y="922"/>
      <point x="381" y="956"/>
      <point x="340" y="956" type="curve" smooth="yes"/>
      <point x="299" y="956"/>
      <point x="265" y="922"/>
    </contour>
    <contour>
      <point x="463" y="881" type="curve" smooth="yes"/>
      <point x="463" y="840"/>
      <point x="497" y="806"/>
      <point x="538" y="806" type="curve" smooth="yes"/>
      <point x="579" y="806"/>
      <point x="613" y="840"/>
      <point x="613" y="881" type="curve" smooth="yes"/>
      <point x="613" y="922"/>
      <point x="579" y="956"/>
      <point x="538" y="956" type="curve" smooth="yes"/>
      <point x="497" y="956"/>
      <point x="463" y="922"/>
    </contour>
  </outline>
</glyph>
<glyph name="multiply" format="2">
  <advance width="386"/>
  <unicode hex="00D7"/>
  <outline>
    <contour>
      <point x="193" y="346" type="line"/>
      <point x="59" y="489" type="line"/>
      <point x="51" y="483" type="line"/>
      <point x="186" y="339" type="line"/>
      <point x="51" y="193" type="line"/>
      <point x="59" y="187" type="line"/>
      <point x="193" y="332" type="line"/>
      <point x="327" y="187" type="line"/>
      <point x="335" y="193" type="line"/>
      <point x="200" y="339" type="line"/>
      <point x="335" y="483" type="line"/>
      <point x="327" y="489" type="line"/>
    </contour>
  </outline>
</glyph>
<glyph name="Ugrave" format="2">
  <advance width="745"/>
  <unicode hex="00D9"/>
  <outline>
    <contour>
      <point x="79" y="263" type="line" smooth="yes"/>
      <point x="79" y="94"/>
      <point x="192" y="-14"/>
      <point x="368" y="-14" type="curve" smooth="yes"/>
      <point x="543" y="-14"/>
      <point x="656" y="94"/>
      <point x="655" y="263" type="curve"/>
      <point x="655" y="645" type="line" smooth="yes"/>
      <point x="655" y="702"/>
      <point x="693" y="737"/>
      <point x="750" y="740" type="curve"/>
      <point x="750" y="750" type="line"/>
      <point x="543" y="750" type="line"/>
      <point x="543" y="740" type="line"/>
      <point x="600" y="737"/>
      <point x="638" y="702"/>
      <point x="638" y="645" type="curve" smooth="yes"/>
      <point x="638" y="263" type="line" smooth="yes"/>
      <point x="638" y="123"/>
      <point x="560" y="34"/>
      <point x="436" y="34" type="curve" smooth="yes"/>
      <point x="311" y="34"/>
      <point x="234" y="123"/>
      <point x="234" y="263" type="curve" smooth="yes"/>
      <point x="234" y="660" type="line" smooth="yes"/>
      <point x="234" y="708"/>
      <point x="266" y="740"/>
      <point x="314" y="740" type="curve" smooth="yes"/>
      <point x="317" y="740" type="line"/>
      <point x="317" y="750" type="line"/>
      <point x="-5" y="750" type="line"/>
      <point x="-5" y="740" type="line"/>
      <point x="-1" y="740" type="line" smooth="yes"/>
      <point x="47" y="740"/>
      <point x="79" y="708"/>
      <point x="79" y="660" type="curve" smooth="yes"/>
    </contour>
    <contour>
      <point x="239" y="923" type="line"/>
      <point x="439" y="783" type="line"/>
      <point x="446" y="793" type="line"/>
      <point x="309" y="986" type="line"/>
      <point x="304" y="986" type="line"/>
      <point x="239" y="928" type="line"/>
    </contour>
  </outline>
</glyph>
<glyph name="Ucircumflex" format="2">
  <advance width="745"/>
  <unicode hex="00DB"/>
  <outline>
    <contour>
      <point x="79" y="263" type="line" smooth="yes"/>
      <point x="79" y="94"/>
      <point x="192" y="-14"/>
      <point x="368" y="-14" type="curve" smooth="yes"/>
      <point x="543" y="-14"/>
      <point x="656" y="94"/>
      <point x="655" y="263" type="curve"/>
      <point x="655" y="645" type="line" smooth="yes"/>
      <point x="655" y="702"/>
      <point x="693" y="737"/>
      <point x="750" y="740" type="curve"/>
      <point x="750" y="750" type="line"/>
      <point x="543" y="750" type="line"/>
      <point x="543" y="740" type="line"/>
      <point x="600" y="737"/>
      <point x="638" y="702"/>
      <point x="638" y="645" type="curve" smooth="yes"/>
      <point x="638" y="263" type="line" smooth="yes"/>
      <point x="638" y="123"/>
      <point x="560" y="34"/>
      <point x="436" y="34" type="curve" smooth="yes"/>
      <point x="311" y="34"/>
      <point x="234" y="123"/>
      <point x="234" y="263" type="curve" smooth="yes"/>
      <point x="234" y="660" type="line" smooth="yes"/>
      <point x="234" y="708"/>
      <point x="266" y="740"/>
      <point x="314" y="740" type="curve" smooth="yes"/>
      <point x="317" y="740" type="line"/>
      <point x="317" y="750" type="line"/>
      <point x="-5" y="750" type="line"/>
      <point x="-5" y="740" type="line"/>
      <point x="-1" y="740" type="line" smooth="yes"/>
      <point x="47" y="740"/>
      <point x="79" y="708"/>
      <point x="79" y="660" type="curve" smooth="yes"/>
    </contour>
    <contour>
      <point x="398" y="986" type="line"/>
      <point x="347" y="986" type="line"/>
      <point x="220" y="790" type="line"/>
      <point x="227" y="783" type="line"/>
      <point x="373" y="916" type="line"/>
      <point x="519" y="783" type="line"/>
      <point x="526" y="790" type="line"/>
    </contour>
  </outline>
</glyph>
<glyph name="Udieresis" format="2">
  <advance width="745"/>
  <unicode hex="00DC"/>
  <outline>
    <contour>
      <point x="79" y="263" type="line" smooth="yes"/>
      <point x="79" y="94"/>
      <point x="192" y="-14"/>
      <point x="368" y="-14" type="curve" smooth="yes"/>
      <point x="543" y="-14"/>
      <point x="656" y="94"/>
      <point x="655" y="263" type="curve"/>
      <point x="655" y="645" type="line" smooth="yes"/>
      <point x="655" y="702"/>
      <point x="693" y="737"/>
      <point x="750" y="740" type="curve"/>
      <point x="750" y="750" type="line"/>
      <point x="543" y="750" type="line"/>
      <point x="543" y="740" type="line"/>
      <point x="600" y="737"/>
      <point x="638" y="702"/>
      <point x="638" y="645" type="curve" smooth="yes"/>
      <point x="638" y="263" type="line" smooth="yes"/>
      <point x="638" y="123"/>
      <point x="560" y="34"/>
      <point x="436" y="34" type="curve" smooth="yes"/>
      <point x="311" y="34"/>
      <point x="234" y="123"/>
      <point x="234" y="263" type="curve" smooth="yes"/>
      <point x="234" y="660" type="line" smooth="yes"/>
      <point x="234" y="708"/>
      <point x="266" y="740"/>
      <point x="314" y="740" type="curve" smooth="yes"/>
      <point x="317" y="740" type="line"/>
      <point x="317" y="750" type="line"/>
      <point x="-5" y="750" type="line"/>
      <point x="-5" y="740" type="line"/>
      <point x="-1" y="740" type="line" smooth="yes"/>
      <point x="47" y="740"/>
      <point x="79" y="708"/>
      <point x="79" y="660" type="curve" smooth="yes"/>
    </contour>
    <contour>
      <point x="199" y="881" type="curve" smooth="yes" name=".hr01"/>
      <point x="199" y="840"/>
      <point x="233" y="806"/>
      <point x="274" y="806" type="curve" smooth="yes"/>
      <point x="315" y="806"/>
      <point x="349" y="840"/>
      <point x="349" y="881" type="curve" smooth="yes"/>
      <point x="349" y="922"/>
      <point x="315" y="956"/>
      <point x="274" y="956" type="curve" smooth="yes"/>
      <point x="233" y="956"/>
      <point x="199" y="922"/>
    </contour>
    <contour>
      <point x="397" y="881" type="curve" smooth="yes"/>
      <point x="397" y="840"/>
      <point x="431" y="806"/>
      <point x="472" y="806" type="curve" smooth="yes"/>
      <point x="513" y="806"/>
      <point x="547" y="840"/>
      <point x="547" y="881" type="curve" smooth="yes"/>
      <point x="547" y="922"/>
      <point x="513" y="956"/>
      <point x="472" y="956" type="curve" smooth="yes"/>
      <point x="431" y="956"/>
      <point x="397" y="922"/>
    </contour>
  </outline>
</glyph>
<glyph name="Yacute" format="2">
  <advance width="639"/>
  <unicode hex="00DD"/>
  <outline>
    <contour>
      <point x="474" y="740" type="line"/>
      <point x="553" y="740"/>
      <point x="565" y="690"/>
      <point x="514" y="621" type="curve" smooth="yes"/>
      <point x="393" y="458" type="line"/>
      <point x="263" y="634" type="line" smooth="yes"/>
      <point x="221" y="690"/>
      <point x="239" y="740"/>
      <point x="312" y="740" type="curve"/>
      <point x="312" y="750" type="line"/>
      <point x="-27" y="750" type="line"/>
      <point x="-27" y="740" type="line"/>
      <point x="-26" y="740" type="line"/>
      <point x="8" y="740"/>
      <point x="31" y="724"/>
      <point x="48" y="702" type="curve" smooth="yes"/>
      <point x="258" y="430" type="line"/>
      <point x="258" y="90" type="line" smooth="yes"/>
      <point x="258" y="42"/>
      <point x="226" y="10"/>
      <point x="178" y="10" type="curve"/>
      <point x="176" y="10" type="line"/>
      <point x="175" y="0" type="line"/>
      <point x="484" y="0" type="line"/>
      <point x="483" y="10" type="line"/>
      <point x="481" y="10" type="line"/>
      <point x="435" y="10"/>
      <point x="403" y="43"/>
      <point x="403" y="90" type="curve" smooth="yes"/>
      <point x="403" y="448" type="line"/>
      <point x="543" y="637" type="line" smooth="yes"/>
      <point x="588" y="697"/>
      <point x="619" y="737"/>
      <point x="664" y="740" type="curve"/>
      <point x="664" y="750" type="line"/>
      <point x="474" y="750" type="line"/>
    </contour>
    <contour>
      <point x="500" y="923" type="line"/>
      <point x="500" y="928" type="line"/>
      <point x="436" y="986" type="line"/>
      <point x="431" y="986" type="line"/>
      <point x="293" y="793" type="line"/>
      <point x="300" y="783" type="line"/>
    </contour>
  </outline>
</glyph>
<glyph name="agrave" format="2">
  <advance width="551"/>
  <unicode hex="00E0"/>
  <outline>
    <contour>
      <point x="330" y="95" type="line"/>
      <point x="296" y="62"/>
      <point x="270" y="48"/>
      <point x="241" y="48" type="curve" smooth="yes"/>
      <point x="197" y="48"/>
      <point x="165" y="89"/>
      <point x="165" y="146" type="curve" smooth="yes"/>
      <point x="165" y="204"/>
      <point x="186" y="243"/>
      <point x="291" y="283" type="curve" smooth="yes"/>
      <point x="331" y="298" type="line"/>
    </contour>
    <contour>
      <point x="283" y="523" type="curve" smooth="yes"/>
      <point x="182" y="523"/>
      <point x="90" y="468"/>
      <point x="55" y="386" type="curve"/>
      <point x="163" y="324" type="line"/>
      <point x="175" y="439"/>
      <point x="213" y="509"/>
      <point x="263" y="510" type="curve"/>
      <point x="305" y="510"/>
      <point x="331" y="462"/>
      <point x="331" y="386" type="curve" smooth="yes"/>
      <point x="331" y="311" type="line"/>
      <point x="238" y="277" type="line" smooth="yes"/>
      <point x="62" y="213"/>
      <point x="31" y="166"/>
      <point x="31" y="106" type="curve" smooth="yes"/>
      <point x="31" y="34"/>
      <point x="85" y="-14"/>
      <point x="166" y="-14" type="curve" smooth="yes"/>
      <point x="223" y="-14"/>
      <point x="266" y="11"/>
      <point x="332" y="81" type="curve"/>
      <point x="341" y="24"/>
      <point x="381" y="-14"/>
      <point x="432" y="-14" type="curve" smooth="yes"/>
      <point x="479" y="-14"/>
      <point x="533" y="18"/>
      <point x="567" y="65" type="curve"/>
      <point x="559" y="72" type="line"/>
      <point x="544" y="55"/>
      <point x="530" y="47"/>
      <point x="514" y="47" type="curve" smooth="yes"/>
      <point x="489" y="47"/>
      <point x="474" y="68"/>
      <point x="475" y="105" type="curve"/>
      <point x="475" y="346" type="line" smooth="yes"/>
      <point x="475" y="453"/>
      <point x="398" y="523"/>
    </contour>
    <contour>
      <point x="336" y="581" type="line"/>
      <point x="343" y="591" type="line"/>
      <point x="206" y="784" type="line"/>
      <point x="201" y="784" type="line"/>
      <point x="136" y="726" type="line"/>
      <point x="136" y="721" type="line"/>
    </contour>
  </outline>
</glyph>
<glyph name="atilde" format="2">
  <advance width="551"/>
  <unicode hex="00E3"/>
  <outline>
    <contour>
      <point x="330" y="95" type="line"/>
      <point x="296" y="62"/>
      <point x="270" y="48"/>
      <point x="241" y="48" type="curve" smooth="yes"/>
      <point x="197" y="48"/>
      <point x="165" y="89"/>
      <point x="165" y="146" type="curve" smooth="yes"/>
      <point x="165" y="204"/>
      <point x="186" y="243"/>
      <point x="291" y="283" type="curve" smooth="yes"/>
      <point x="331" y="298" type="line"/>
    </contour>
    <contour>
      <point x="283" y="523" type="curve" smooth="yes"/>
      <point x="182" y="523"/>
      <point x="90" y="468"/>
      <point x="55" y="386" type="curve"/>
      <point x="163" y="324" type="line"/>
      <point x="175" y="439"/>
      <point x="213" y="509"/>
      <point x="263" y="510" type="curve"/>
      <point x="305" y="510"/>
      <point x="331" y="462"/>
      <point x="331" y="386" type="curve" smooth="yes"/>
      <point x="331" y="311" type="line"/>
      <point x="238" y="277" type="line" smooth="yes"/>
      <point x="62" y="213"/>
      <point x="31" y="166"/>
      <point x="31" y="106" type="curve" smooth="yes"/>
      <point x="31" y="34"/>
      <point x="85" y="-14"/>
      <point x="166" y="-14" type="curve" smooth="yes"/>
      <point x="223" y="-14"/>
      <point x="266" y="11"/>
      <point x="332" y="81" type="curve"/>
      <point x="341" y="24"/>
      <point x="381" y="-14"/>
      <point x="432" y="-14" type="curve" smooth="yes"/>
      <point x="479" y="-14"/>
      <point x="533" y="18"/>
      <point x="567" y="65" type="curve"/>
      <point x="559" y="72" type="line"/>
      <point x="544" y="55"/>
      <point x="530" y="47"/>
      <point x="514" y="47" type="curve" smooth="yes"/>
      <point x="489" y="47"/>
      <point x="474" y="68"/>
      <point x="475" y="105" type="curve"/>
      <point x="475" y="346" type="line" smooth="yes"/>
      <point x="475" y="453"/>
      <point x="398" y="523"/>
    </contour>
    <contour>
      <point x="408" y="727" type="line"/>
      <point x="389" y="693"/>
      <point x="368" y="683"/>
      <point x="348" y="683" type="curve" smooth="yes"/>
      <point x="300" y="683"/>
      <point x="273" y="740"/>
      <point x="221" y="740" type="curve" smooth="yes" name=".hr01"/>
      <point x="185" y="740"/>
      <point x="146" y="696"/>
      <point x="123" y="630" type="curve"/>
      <point x="133" y="626" type="line"/>
      <point x="150" y="657"/>
      <point x="176" y="670"/>
      <point x="199" y="670" type="curve" smooth="yes"/>
      <point x="245" y="670"/>
      <point x="273" y="613"/>
      <point x="325" y="613" type="curve" smooth="yes" name=".hr02"/>
      <point x="364" y="613"/>
      <point x="401" y="657"/>
      <point x="418" y="723" type="curve"/>
    </contour>
  </outline>
</glyph>
<glyph name="aring" format="2">
  <advance width="551"/>
  <unicode hex="00E5"/>
  <outline>
    <contour>
      <point x="330" y="95" type="line"/>
      <point x="296" y="62"/>
      <point x="270" y="48"/>
      <point x="241" y="48" type="curve" smooth="yes"/>
      <point x="197" y="48"/>
      <point x="165" y="89"/>
      <point x="165" y="146" type="curve" smooth="yes"/>
      <point x="165" y="204"/>
      <point x="186" y="243"/>
      <point x="291" y="283" type="curve" smooth="yes"/>
      <point x="331" y="298" type="line"/>
    </contour>
    <contour>
      <point x="205" y="689" type="curve" smooth="yes"/>
      <point x="205" y="719"/>
      <point x="230" y="745"/>
      <point x="260" y="745" type="curve" smooth="yes"/>
      <point x="290" y="745"/>
      <point x="316" y="719" name=".hr01"/>
      <point x="316" y="689" type="curve" smooth="yes"/>
      <point x="316" y="659"/>
      <point x="290" y="633"/>
      <point x="260" y="633" type="curve" smooth="yes"/>
      <point x="230" y="633"/>
      <point x="205" y="659"/>
    </contour>
    <contour>
      <point x="283" y="523" type="curve" smooth="yes"/>
      <point x="182" y="523"/>
      <point x="90" y="468"/>
      <point x="55" y="386" type="curve"/>
      <point x="163" y="324" type="line"/>
      <point x="175" y="439"/>
      <point x="213" y="509"/>
      <point x="263" y="510" type="curve"/>
      <point x="305" y="510"/>
      <point x="331" y="462"/>
      <point x="331" y="386" type="curve" smooth="yes" name=".hr02"/>
      <point x="331" y="311" type="line"/>
      <point x="238" y="277" type="line" smooth="yes"/>
      <point x="62" y="213"/>
      <point x="31" y="166"/>
      <point x="31" y="106" type="curve" smooth="yes"/>
      <point x="31" y="34"/>
      <point x="85" y="-14"/>
      <point x="166" y="-14" type="curve" smooth="yes"/>
      <point x="223" y="-14"/>
      <point x="266" y="11"/>
      <point x="332" y="81" type="curve"/>
      <point x="341" y="24"/>
      <point x="381" y="-14"/>
      <point x="432" y="-14" type="curve" smooth="yes"/>
      <point x="479" y="-14"/>
      <point x="533" y="18"/>
      <point x="567" y="65" type="curve"/>
      <point x="559" y="72" type="line"/>
      <point x="544" y="55"/>
      <point x="530" y="47"/>
      <point x="514" y="47" type="curve" smooth="yes"/>
      <point x="489" y="47"/>
      <point x="474" y="68"/>
      <point x="475" y="105" type="curve"/>
      <point x="475" y="346" type="line" smooth="yes"/>
      <point x="475" y="453"/>
      <point x="398" y="523"/>
    </contour>
    <contour>
      <point x="183" y="689" type="curve" smooth="yes"/>
      <point x="183" y="648"/>
      <point x="218" y="614"/>
      <point x="260" y="614" type="curve" smooth="yes"/>
      <point x="302" y="614"/>
      <point x="337" y="648"/>
      <point x="337" y="689" type="curve" smooth="yes"/>
      <point x="337" y="730" name=".hr03"/>
      <point x="302" y="764"/>
      <point x="260" y="764" type="curve" smooth="yes"/>
      <point x="218" y="764"/>
      <point x="183" y="730"/>
    </contour>
  </outline>
</glyph>
<glyph name="ccedilla" format="2">
  <advance width="527"/>
  <unicode hex="00E7"/>
  <outline>
    <contour>
      <point x="33" y="251" type="curve" smooth="yes"/>
      <point x="33" y="102"/>
      <point x="119" y="-14"/>
      <point x="275" y="-14" type="curve"/>
      <point x="258" y="-57" type="line"/>
      <point x="258" y="-63" type="line"/>
      <point x="290" y="-69"/>
      <point x="315" y="-106"/>
      <point x="315" y="-150" type="curve" smooth="yes"/>
      <point x="315" y="-186"/>
      <point x="298" y="-208"/>
      <point x="272" y="-208" type="curve" smooth="yes"/>
      <point x="241" y="-208"/>
      <point x="217" y="-177"/>
      <point x="205" y="-119" type="curve"/>
      <point x="194" y="-119" type="line"/>
      <point x="213" y="-218" type="line" name=".hr01"/>
      <point x="247" y="-218"/>
      <point x="255" y="-225" name=".hr02"/>
      <point x="286" y="-225" type="curve" smooth="yes"/>
      <point x="352" y="-225"/>
      <point x="395" y="-193"/>
      <point x="395" y="-145" type="curve" smooth="yes"/>
      <point x="395" y="-92"/>
      <point x="346" y="-57"/>
      <point x="272" y="-56" type="curve"/>
      <point x="289" y="-13" type="line"/>
      <point x="389" y="-4"/>
      <point x="470" y="64"/>
      <point x="503" y="166" type="curve"/>
      <point x="493" y="169" type="line"/>
      <point x="454" y="112"/>
      <point x="389" y="75"/>
      <point x="327" y="75" type="curve" smooth="yes"/>
      <point x="228" y="75"/>
      <point x="160" y="171"/>
      <point x="160" y="312" type="curve" smooth="yes"/>
      <point x="160" y="426"/>
      <point x="203" y="507"/>
      <point x="264" y="507" type="curve" smooth="yes"/>
      <point x="326" y="507"/>
      <point x="363" y="423"/>
      <point x="363" y="286" type="curve"/>
      <point x="483" y="353" type="line"/>
      <point x="469" y="456"/>
      <point x="388" y="522"/>
      <point x="276" y="522" type="curve" smooth="yes"/>
      <point x="133" y="522"/>
      <point x="33" y="411"/>
    </contour>
  </outline>
</glyph>
<glyph name="eacute" format="2">
  <advance width="537"/>
  <unicode hex="00E9"/>
  <outline>
    <contour>
      <point x="169" y="330" type="line"/>
      <point x="175" y="437"/>
      <point x="218" y="507"/>
      <point x="276" y="507" type="curve" smooth="yes"/>
      <point x="335" y="507"/>
      <point x="373" y="437"/>
      <point x="373" y="330" type="curve"/>
    </contour>
    <contour>
      <point x="33" y="255" type="curve" smooth="yes"/>
      <point x="33" y="97"/>
      <point x="130" y="-12"/>
      <point x="269" y="-12" type="curve" smooth="yes"/>
      <point x="379" y="-12"/>
      <point x="479" y="56"/>
      <point x="513" y="161" type="curve"/>
      <point x="504" y="164" type="line"/>
      <point x="468" y="111"/>
      <point x="405" y="77"/>
      <point x="342" y="77" type="curve" smooth="yes"/>
      <point x="237" y="77"/>
      <point x="168" y="170"/>
      <point x="169" y="310" type="curve"/>
      <point x="169" y="315" type="line"/>
      <point x="504" y="315" type="line"/>
      <point x="504" y="330" type="line"/>
      <point x="500" y="444"/>
      <point x="412" y="522"/>
      <point x="287" y="522" type="curve" smooth="yes"/>
      <point x="139" y="522"/>
      <point x="33" y="414"/>
    </contour>
    <contour>
      <point x="421" y="726" type="line"/>
      <point x="357" y="784" type="line"/>
      <point x="352" y="784" type="line"/>
      <point x="215" y="591" type="line"/>
      <point x="222" y="581" type="line"/>
      <point x="421" y="721" type="line"/>
    </contour>
  </outline>
</glyph>
<glyph name="ecircumflex" format="2">
  <advance width="537"/>
  <unicode hex="00EA"/>
  <outline>
    <contour>
      <point x="169" y="330" type="line"/>
      <point x="175" y="437"/>
      <point x="218" y="507"/>
      <point x="276" y="507" type="curve" smooth="yes"/>
      <point x="335" y="507"/>
      <point x="373" y="437"/>
      <point x="373" y="330" type="curve"/>
    </contour>
    <contour>
      <point x="33" y="255" type="curve" smooth="yes"/>
      <point x="33" y="97"/>
      <point x="130" y="-12"/>
      <point x="269" y="-12" type="curve" smooth="yes"/>
      <point x="379" y="-12"/>
      <point x="479" y="56"/>
      <point x="513" y="161" type="curve"/>
      <point x="504" y="164" type="line"/>
      <point x="468" y="111"/>
      <point x="405" y="77"/>
      <point x="342" y="77" type="curve" smooth="yes"/>
      <point x="237" y="77"/>
      <point x="168" y="170"/>
      <point x="169" y="310" type="curve"/>
      <point x="169" y="315" type="line"/>
      <point x="504" y="315" type="line"/>
      <point x="504" y="330" type="line"/>
      <point x="500" y="444"/>
      <point x="412" y="522"/>
      <point x="287" y="522" type="curve" smooth="yes"/>
      <point x="139" y="522"/>
      <point x="33" y="414"/>
    </contour>
    <contour>
      <point x="267" y="784" type="line"/>
      <point x="140" y="588" type="line"/>
      <point x="147" y="581" type="line"/>
      <point x="293" y="714" type="line"/>
      <point x="439" y="581" type="line"/>
      <point x="446" y="588" type="line"/>
      <point x="318" y="784" type="line"/>
    </contour>
  </outline>
</glyph>
<glyph name="igrave" format="2">
  <advance width="297"/>
  <unicode hex="00EC"/>
  <outline>
    <contour>
      <point x="312" y="10" type="line"/>
      <point x="264" y="10"/>
      <point x="232" y="42"/>
      <point x="232" y="90" type="curve" smooth="yes"/>
      <point x="232" y="546" type="line"/>
      <point x="222" y="546" type="line"/>
      <point x="208" y="523"/>
      <point x="179" y="508"/>
      <point x="109" y="508" type="curve" smooth="yes"/>
      <point x="7" y="508" type="line"/>
      <point x="7" y="498" type="line"/>
      <point x="75" y="498"/>
      <point x="87" y="466"/>
      <point x="88" y="418" type="curve"/>
      <point x="88" y="90" type="line" smooth="yes"/>
      <point x="88" y="42"/>
      <point x="56" y="10"/>
      <point x="8" y="10" type="curve"/>
      <point x="7" y="10" type="line"/>
      <point x="7" y="0" type="line"/>
      <point x="313" y="0" type="line"/>
      <point x="313" y="10" type="line"/>
    </contour>
    <contour>
      <point x="11" y="721" type="line"/>
      <point x="211" y="581" type="line"/>
      <point x="218" y="591" type="line"/>
      <point x="80" y="784" type="line"/>
      <point x="75" y="784" type="line"/>
      <point x="11" y="726" type="line"/>
    </contour>
  </outline>
</glyph>
<glyph name="icircumflex" format="2">
  <advance width="297"/>
  <unicode hex="00EE"/>
  <outline>
    <contour>
      <point x="312" y="10" type="line"/>
      <point x="264" y="10"/>
      <point x="232" y="42"/>
      <point x="232" y="90" type="curve" smooth="yes"/>
      <point x="232" y="546" type="line"/>
      <point x="222" y="546" type="line"/>
      <point x="208" y="523"/>
      <point x="179" y="508"/>
      <point x="109" y="508" type="curve" smooth="yes"/>
      <point x="7" y="508" type="line"/>
      <point x="7" y="498" type="line"/>
      <point x="75" y="498"/>
      <point x="87" y="466"/>
      <point x="88" y="418" type="curve"/>
      <point x="88" y="90" type="line" smooth="yes"/>
      <point x="88" y="42"/>
      <point x="56" y="10"/>
      <point x="8" y="10" type="curve"/>
      <point x="7" y="10" type="line"/>
      <point x="7" y="0" type="line"/>
      <point x="313" y="0" type="line"/>
      <point x="313" y="10" type="line"/>
    </contour>
    <contour>
      <point x="185" y="784" type="line"/>
      <point x="134" y="784" type="line"/>
      <point x="7" y="588" type="line"/>
      <point x="14" y="581" type="line"/>
      <point x="160" y="714" type="line"/>
      <point x="306" y="581" type="line"/>
      <point x="313" y="588" type="line"/>
    </contour>
  </outline>
</glyph>
<glyph name="idieresis" format="2">
  <advance width="297"/>
  <unicode hex="00EF"/>
  <outline>
    <contour>
      <point x="312" y="10" type="line"/>
      <point x="264" y="10"/>
      <point x="232" y="42"/>
      <point x="232" y="90" type="curve" smooth="yes"/>
      <point x="232" y="546" type="line"/>
      <point x="222" y="546" type="line"/>
      <point x="208" y="523"/>
      <point x="179" y="508"/>
      <point x="109" y="508" type="curve" smooth="yes"/>
      <point x="7" y="508" type="line"/>
      <point x="7" y="498" type="line"/>
      <point x="75" y="498"/>
      <point x="87" y="466"/>
      <point x="88" y="418" type="curve"/>
      <point x="88" y="90" type="line" smooth="yes"/>
      <point x="88" y="42"/>
      <point x="56" y="10"/>
      <point x="8" y="10" type="curve"/>
      <point x="7" y="10" type="line"/>
      <point x="7" y="0" type="line"/>
      <point x="313" y="0" type="line"/>
      <point x="313" y="10" type="line"/>
    </contour>
    <contour>
      <point x="-15" y="679" type="curve" smooth="yes" name=".hr01"/>
      <point x="-15" y="638"/>
      <point x="20" y="604"/>
      <point x="61" y="604" type="curve" smooth="yes"/>
      <point x="101" y="604"/>
      <point x="136" y="638"/>
      <point x="136" y="679" type="curve" smooth="yes"/>
      <point x="136" y="720"/>
      <point x="101" y="754"/>
      <point x="61" y="754" type="curve" smooth="yes"/>
      <point x="20" y="754"/>
      <point x="-15" y="720"/>
    </contour>
    <contour>
      <point x="184" y="679" type="curve" smooth="yes"/>
      <point x="184" y="638"/>
      <point x="218" y="604"/>
      <point x="259" y="604" type="curve" smooth="yes"/>
      <point x="299" y="604"/>
      <point x="334" y="638"/>
      <point x="334" y="679" type="curve" smooth="yes"/>
      <point x="334" y="720"/>
      <point x="299" y="754"/>
      <point x="259" y="754" type="curve" smooth="yes"/>
      <point x="218" y="754"/>
      <point x="184" y="720"/>
    </contour>
  </outline>
</glyph>
<glyph name="ntilde" format="2">
  <advance width="662"/>
  <unicode hex="00F1"/>
  <outline>
    <contour>
      <point x="655" y="10" type="line"/>
      <point x="607" y="10"/>
      <point x="575" y="42"/>
      <point x="575" y="90" type="curve" smooth="yes"/>
      <point x="575" y="362" type="line" smooth="yes"/>
      <point x="575" y="458"/>
      <point x="516" y="522"/>
      <point x="427" y="522" type="curve" smooth="yes"/>
      <point x="348" y="522"/>
      <point x="271" y="474"/>
      <point x="236" y="406" type="curve"/>
      <point x="235" y="546" type="line"/>
      <point x="225" y="546" type="line"/>
      <point x="211" y="523"/>
      <point x="182" y="508" name=".hr01"/>
      <point x="112" y="508" type="curve" smooth="yes"/>
      <point x="13" y="508" type="line"/>
      <point x="13" y="498" type="line"/>
      <point x="81" y="498"/>
      <point x="93" y="466"/>
      <point x="94" y="418" type="curve"/>
      <point x="94" y="90" type="line" smooth="yes"/>
      <point x="94" y="42"/>
      <point x="62" y="10"/>
      <point x="14" y="10" type="curve"/>
      <point x="13" y="10" type="line"/>
      <point x="13" y="0" type="line"/>
      <point x="319" y="0" type="line"/>
      <point x="319" y="10" type="line"/>
      <point x="318" y="10" type="line"/>
      <point x="270" y="10"/>
      <point x="238" y="42"/>
      <point x="238" y="90" type="curve" smooth="yes"/>
      <point x="238" y="384" type="line"/>
      <point x="271" y="443"/>
      <point x="320" y="482" name=".hr02"/>
      <point x="360" y="482" type="curve" smooth="yes"/>
      <point x="403" y="482"/>
      <point x="432" y="438"/>
      <point x="432" y="372" type="curve" smooth="yes"/>
      <point x="432" y="90" type="line" smooth="yes"/>
      <point x="432" y="42"/>
      <point x="400" y="10"/>
      <point x="352" y="10" type="curve"/>
      <point x="351" y="10" type="line"/>
      <point x="351" y="0" type="line"/>
      <point x="656" y="0" type="line"/>
      <point x="656" y="10" type="line"/>
    </contour>
    <contour>
      <point x="469" y="727" type="line"/>
      <point x="450" y="693"/>
      <point x="429" y="683"/>
      <point x="409" y="683" type="curve" smooth="yes"/>
      <point x="361" y="683"/>
      <point x="334" y="740" name=".hr03"/>
      <point x="282" y="740" type="curve" smooth="yes"/>
      <point x="246" y="740"/>
      <point x="207" y="696"/>
      <point x="184" y="630" type="curve"/>
      <point x="194" y="626" type="line"/>
      <point x="211" y="657"/>
      <point x="237" y="670"/>
      <point x="260" y="670" type="curve" smooth="yes"/>
      <point x="306" y="670"/>
      <point x="334" y="613" name=".hr04"/>
      <point x="386" y="613" type="curve" smooth="yes"/>
      <point x="425" y="613"/>
      <point x="462" y="657"/>
      <point x="479" y="723" type="curve"/>
    </contour>
  </outline>
</glyph>
<glyph name="ograve" format="2">
  <advance width="612"/>
  <unicode hex="00F2"/>
  <outline>
    <contour>
      <point x="194" y="255" type="curve" smooth="yes"/>
      <point x="194" y="403"/>
      <point x="241" y="510"/>
      <point x="307" y="510" type="curve" smooth="yes"/>
      <point x="372" y="510"/>
      <point x="419" y="403"/>
      <point x="419" y="255" type="curve" smooth="yes"/>
      <point x="419" y="107"/>
      <point x="372" y="-1"/>
      <point x="306" y="-1" type="curve" smooth="yes"/>
      <point x="241" y="-1"/>
      <point x="194" y="107"/>
    </contour>
    <contour>
      <point x="34" y="254" type="curve" smooth="yes"/>
      <point x="34" y="92"/>
      <point x="142" y="-14"/>
      <point x="307" y="-14" type="curve" smooth="yes"/>
      <point x="471" y="-14"/>
      <point x="579" y="92"/>
      <point x="579" y="254" type="curve" smooth="yes"/>
      <point x="579" y="416"/>
      <point x="471" y="522"/>
      <point x="307" y="522" type="curve" smooth="yes"/>
      <point x="142" y="522"/>
      <point x="34" y="416"/>
    </contour>
    <contour>
      <point x="362" y="581" type="line"/>
      <point x="369" y="591" type="line"/>
      <point x="232" y="784" type="line"/>
      <point x="227" y="784" type="line"/>
      <point x="162" y="726" type="line"/>
      <point x="162" y="721" type="line"/>
    </contour>
  </outline>
</glyph>
<glyph name="otilde" format="2">
  <advance width="612"/>
  <unicode hex="00F5"/>
  <outline>
    <contour>
      <point x="194" y="255" type="curve" smooth="yes"/>
      <point x="194" y="403"/>
      <point x="241" y="510"/>
      <point x="307" y="510" type="curve" smooth="yes"/>
      <point x="372" y="510"/>
      <point x="419" y="403"/>
      <point x="419" y="255" type="curve" smooth="yes"/>
      <point x="419" y="107"/>
      <point x="372" y="-1"/>
      <point x="306" y="-1" type="curve" smooth="yes"/>
      <point x="241" y="-1"/>
      <point x="194" y="107"/>
    </contour>
    <contour>
      <point x="34" y="254" type="curve" smooth="yes"/>
      <point x="34" y="92"/>
      <point x="142" y="-14"/>
      <point x="307" y="-14" type="curve" smooth="yes"/>
      <point x="471" y="-14"/>
      <point x="579" y="92"/>
      <point x="579" y="254" type="curve" smooth="yes"/>
      <point x="579" y="416"/>
      <point x="471" y="522"/>
      <point x="307" y="522" type="curve" smooth="yes"/>
      <point x="142" y="522"/>
      <point x="34" y="416"/>
    </contour>
    <contour>
      <point x="444" y="727" type="line"/>
      <point x="425" y="693"/>
      <point x="404" y="683"/>
      <point x="384" y="683" type="curve" smooth="yes"/>
      <point x="336" y="683"/>
      <point x="309" y="740"/>
      <point x="257" y="740" type="curve" smooth="yes"/>
      <point x="221" y="740" name=".hr01"/>
      <point x="182" y="696"/>
      <point x="159" y="630" type="curve"/>
      <point x="169" y="626" type="line"/>
      <point x="186" y="657"/>
      <point x="212" y="670"/>
      <point x="235" y="670" type="curve" smooth="yes"/>
      <point x="281" y="670"/>
      <point x="309" y="613"/>
      <point x="361" y="613" type="curve" smooth="yes"/>
      <point x="400" y="613" name=".hr02"/>
      <point x="437" y="657"/>
      <point x="454" y="723" type="curve"/>
    </contour>
  </outline>
</glyph>
<glyph name="odieresis" format="2">
  <advance width="612"/>
  <unicode hex="00F6"/>
  <outline>
    <contour>
      <point x="34" y="254" type="curve" smooth="yes"/>
      <point x="34" y="92"/>
      <point x="142" y="-14"/>
      <point x="307" y="-14" type="curve" smooth="yes"/>
      <point x="471" y="-14"/>
      <point x="579" y="92"/>
      <point x="579" y="254" type="curve" smooth="yes"/>
      <point x="579" y="416"/>
      <point x="471" y="522"/>
      <point x="307" y="522" type="curve" smooth="yes"/>
      <point x="142" y="522"/>
      <point x="34" y="416"/>
    </contour>
    <contour>
      <point x="194" y="255" type="curve" smooth="yes"/>
      <point x="194" y="403"/>
      <point x="241" y="510"/>
      <point x="307" y="510" type="curve" smooth="yes"/>
      <point x="372" y="510"/>
      <point x="419" y="403"/>
      <point x="419" y="255" type="curve" smooth="yes"/>
      <point x="419" y="107"/>
      <point x="372" y="-1"/>
      <point x="306" y="-1" type="curve" smooth="yes"/>
      <point x="241" y="-1"/>
      <point x="194" y="107"/>
    </contour>
    <contour>
      <point x="132" y="679" type="curve" smooth="yes"/>
      <point x="132" y="638"/>
      <point x="166" y="604" name=".hr01"/>
      <point x="207" y="604" type="curve" smooth="yes"/>
      <point x="248" y="604"/>
      <point x="282" y="638"/>
      <point x="282" y="679" type="curve" smooth="yes"/>
      <point x="282" y="720"/>
      <point x="248" y="754"/>
      <point x="207" y="754" type="curve" smooth="yes"/>
      <point x="166" y="754"/>
      <point x="132" y="720"/>
    </contour>
    <contour>
      <point x="330" y="679" type="curve" smooth="yes"/>
      <point x="330" y="638"/>
      <point x="364" y="604"/>
      <point x="405" y="604" type="curve" smooth="yes"/>
      <point x="446" y="604"/>
      <point x="480" y="638"/>
      <point x="480" y="679" type="curve" smooth="yes"/>
      <point x="480" y="720"/>
      <point x="446" y="754"/>
      <point x="405" y="754" type="curve" smooth="yes"/>
      <point x="364" y="754"/>
      <point x="330" y="720"/>
    </contour>
  </outline>
</glyph>
<glyph name="divide" format="2">
  <advance width="421"/>
  <unicode hex="00F7"/>
  <outline>
    <contour>
      <point x="46" y="334" type="line"/>
      <point x="376" y="334" type="line"/>
      <point x="376" y="344" type="line"/>
      <point x="46" y="344" type="line"/>
    </contour>
    <contour>
      <point x="167" y="228" type="curve" smooth="yes"/>
      <point x="167" y="203"/>
      <point x="186" y="182"/>
      <point x="211" y="182" type="curve" smooth="yes"/>
      <point x="235" y="182"/>
      <point x="254" y="203"/>
      <point x="254" y="228" type="curve" smooth="yes"/>
      <point x="254" y="254"/>
      <point x="235" y="274"/>
      <point x="211" y="274" type="curve" smooth="yes"/>
      <point x="186" y="274"/>
      <point x="167" y="254"/>
    </contour>
    <contour>
      <point x="167" y="449" type="curve" smooth="yes"/>
      <point x="167" y="425"/>
      <point x="186" y="404"/>
      <point x="211" y="404" type="curve" smooth="yes"/>
      <point x="235" y="404"/>
      <point x="254" y="425"/>
      <point x="254" y="449" type="curve" smooth="yes"/>
      <point x="254" y="475"/>
      <point x="235" y="495"/>
      <point x="211" y="495" type="curve" smooth="yes"/>
      <point x="186" y="495"/>
      <point x="167" y="475"/>
    </contour>
  </outline>
</glyph>
<glyph name="uacute" format="2">
  <advance width="612"/>
  <unicode hex="00FA"/>
  <outline>
    <contour>
      <point x="405" y="418" type="curve" smooth="yes"/>
      <point x="405" y="124" type="line"/>
      <point x="372" y="65"/>
      <point x="324" y="26"/>
      <point x="283" y="26" type="curve" smooth="yes"/>
      <point x="240" y="26"/>
      <point x="211" y="70"/>
      <point x="211" y="136" type="curve" smooth="yes"/>
      <point x="211" y="546" type="line"/>
      <point x="201" y="546" type="line"/>
      <point x="187" y="523"/>
      <point x="158" y="508"/>
      <point x="87" y="508" type="curve" smooth="yes"/>
      <point x="-13" y="508" type="line"/>
      <point x="-13" y="498" type="line"/>
      <point x="55" y="498"/>
      <point x="68" y="466"/>
      <point x="68" y="418" type="curve" smooth="yes"/>
      <point x="68" y="146" type="line" smooth="yes"/>
      <point x="68" y="50"/>
      <point x="127" y="-14"/>
      <point x="216" y="-14" type="curve" smooth="yes"/>
      <point x="295" y="-14"/>
      <point x="372" y="33"/>
      <point x="407" y="101" type="curve"/>
      <point x="408" y="-28" type="line"/>
      <point x="413" y="-28" type="line"/>
      <point x="427" y="-6"/>
      <point x="460" y="0" name=".hr01"/>
      <point x="530" y="0" type="curve" smooth="yes"/>
      <point x="629" y="0" type="line"/>
      <point x="629" y="9" type="line"/>
      <point x="581" y="9"/>
      <point x="549" y="42"/>
      <point x="549" y="90" type="curve"/>
      <point x="550" y="546" type="line"/>
      <point x="540" y="546" type="line"/>
      <point x="526" y="523"/>
      <point x="496" y="508"/>
      <point x="426" y="508" type="curve" smooth="yes"/>
      <point x="325" y="508" type="line"/>
      <point x="325" y="498" type="line"/>
      <point x="382" y="498"/>
      <point x="405" y="466"/>
    </contour>
    <contour>
      <point x="478" y="721" type="line"/>
      <point x="478" y="726" type="line"/>
      <point x="414" y="784" type="line"/>
      <point x="409" y="784" type="line"/>
      <point x="271" y="591" type="line"/>
      <point x="278" y="581" type="line"/>
    </contour>
  </outline>
</glyph>
<glyph name="thorn" format="2">
  <advance width="623"/>
  <unicode hex="00FE"/>
  <outline>
    <contour>
      <point x="232" y="390" type="line"/>
      <point x="250" y="441"/>
      <point x="300" y="483"/>
      <point x="346" y="483" type="curve" smooth="yes"/>
      <point x="405" y="483"/>
      <point x="434" y="411"/>
      <point x="434" y="264" type="curve" smooth="yes"/>
      <point x="434" y="95"/>
      <point x="396" y="3"/>
      <point x="325" y="3" type="curve" smooth="yes"/>
      <point x="268" y="3"/>
      <point x="232" y="62"/>
      <point x="232" y="157" type="curve" smooth="yes"/>
    </contour>
    <contour>
      <point x="590" y="262" type="curve" smooth="yes"/>
      <point x="590" y="414"/>
      <point x="510" y="523"/>
      <point x="399" y="523" type="curve" smooth="yes"/>
      <point x="330" y="523"/>
      <point x="264" y="481"/>
      <point x="232" y="422" type="curve"/>
      <point x="232" y="788" type="line"/>
      <point x="219" y="788" type="line"/>
      <point x="206" y="767"/>
      <point x="182" y="750"/>
      <point x="106" y="750" type="curve" smooth="yes"/>
      <point x="7" y="750" type="line"/>
      <point x="7" y="740" type="line"/>
      <point x="65" y="740"/>
      <point x="87" y="718"/>
      <point x="88" y="660" type="curve"/>
      <point x="88" y="-120" type="line" smooth="yes"/>
      <point x="88" y="-168"/>
      <point x="56" y="-200"/>
      <point x="8" y="-200" type="curve"/>
      <point x="7" y="-200" type="line"/>
      <point x="7" y="-210" type="line"/>
      <point x="313" y="-210" type="line"/>
      <point x="313" y="-200" type="line"/>
      <point x="312" y="-200" type="line"/>
      <point x="264" y="-200"/>
      <point x="232" y="-168"/>
      <point x="232" y="-120" type="curve" smooth="yes"/>
      <point x="232" y="40" type="line"/>
      <point x="260" y="1"/>
      <point x="292" y="-14"/>
      <point x="346" y="-14" type="curve" smooth="yes"/>
      <point x="494" y="-14"/>
      <point x="590" y="94"/>
    </contour>
  </outline>
</glyph>
<glyph name="ydieresis" format="2">
  <advance width="446"/>
  <unicode hex="00FF"/>
  <outline>
    <contour>
      <point x="412" y="402" type="line"/>
      <point x="437" y="458"/>
      <point x="455" y="491"/>
      <point x="485" y="498" type="curve"/>
      <point x="485" y="508" type="line"/>
      <point x="347" y="508" type="line"/>
      <point x="347" y="498" type="line"/>
      <point x="383" y="494"/>
      <point x="404" y="471"/>
      <point x="404" y="438" type="curve" smooth="yes"/>
      <point x="404" y="425"/>
      <point x="401" y="409"/>
      <point x="394" y="393" type="curve" smooth="yes"/>
      <point x="293" y="156" type="line"/>
      <point x="192" y="393" type="line" smooth="yes"/>
      <point x="185" y="410"/>
      <point x="182" y="425"/>
      <point x="182" y="438" type="curve" smooth="yes"/>
      <point x="182" y="471"/>
      <point x="202" y="494"/>
      <point x="238" y="498" type="curve"/>
      <point x="238" y="508" type="line"/>
      <point x="-51" y="508" type="line"/>
      <point x="-51" y="498" type="line"/>
      <point x="-13" y="497"/>
      <point x="7" y="475"/>
      <point x="21" y="444" type="curve" smooth="yes"/>
      <point x="219" y="-15" type="line"/>
      <point x="208" y="-42" type="line" smooth="yes"/>
      <point x="184" y="-97"/>
      <point x="136" y="-115"/>
      <point x="86" y="-115" type="curve" smooth="yes"/>
      <point x="46" y="-115"/>
      <point x="5" y="-104"/>
      <point x="-28" y="-91" type="curve"/>
      <point x="-67" y="-208" type="line"/>
      <point x="-40" y="-219"/>
      <point x="-13" y="-224"/>
      <point x="12" y="-224" type="curve" smooth="yes"/>
      <point x="94" y="-224"/>
      <point x="166" y="-170"/>
      <point x="208" y="-72" type="curve" smooth="yes"/>
    </contour>
    <contour>
      <point x="84" y="679" type="curve" smooth="yes"/>
      <point x="84" y="638"/>
      <point x="118" y="604"/>
      <point x="159" y="604" type="curve" smooth="yes"/>
      <point x="200" y="604"/>
      <point x="234" y="638"/>
      <point x="234" y="679" type="curve" smooth="yes"/>
      <point x="234" y="720"/>
      <point x="200" y="754"/>
      <point x="159" y="754" type="curve" smooth="yes"/>
      <point x="118" y="754"/>
      <point x="84" y="720"/>
    </contour>
    <contour>
      <point x="282" y="679" type="curve" smooth="yes"/>
      <point x="282" y="638" name=".hr01"/>
      <point x="316" y="604"/>
      <point x="357" y="604" type="curve" smooth="yes"/>
      <point x="398" y="604"/>
      <point x="432" y="638"/>
      <point x="432" y="679" type="curve" smooth="yes"/>
      <point x="432" y="720"/>
      <point x="398" y="754"/>
      <point x="357" y="754" type="curve" smooth="yes"/>
      <point x="316" y="754"/>
      <point x="282" y="720"/>
    </contour>
  </outline>
</glyph>
<glyph name="dcroat" format="2">
  <advance width="601"/>
  <unicode hex="0111"/>
  <outline>
    <contour>
      <point x="393" y="129" type="line"/>
      <point x="373" y="73"/>
      <point x="322" y="25"/>
      <point x="276" y="25" type="curve" smooth="yes"/>
      <point x="219" y="25"/>
      <point x="191" y="98"/>
      <point x="191" y="244" type="curve" smooth="yes"/>
      <point x="191" y="413"/>
      <point x="230" y="505"/>
      <point x="300" y="505" type="curve" smooth="yes"/>
      <point x="352" y="505"/>
      <point x="387" y="453"/>
      <point x="393" y="373" type="curve"/>
    </contour>
    <contour>
      <point x="537" y="604" type="line"/>
      <point x="599" y="604" type="line"/>
      <point x="599" y="619" type="line"/>
      <point x="537" y="619" type="line"/>
      <point x="537" y="788" type="line"/>
      <point x="527" y="788" type="line"/>
      <point x="513" y="766"/>
      <point x="488" y="750"/>
      <point x="414" y="750" type="curve" smooth="yes"/>
      <point x="312" y="750" type="line"/>
      <point x="312" y="740" type="line"/>
      <point x="360" y="740"/>
      <point x="393" y="708"/>
      <point x="393" y="660" type="curve" smooth="yes"/>
      <point x="393" y="619" type="line"/>
      <point x="240" y="619" type="line"/>
      <point x="240" y="604" type="line"/>
      <point x="393" y="604" type="line"/>
      <point x="393" y="467" type="line"/>
      <point x="365" y="507"/>
      <point x="333" y="522"/>
      <point x="279" y="522" type="curve" smooth="yes"/>
      <point x="131" y="522"/>
      <point x="35" y="414"/>
      <point x="35" y="247" type="curve" smooth="yes"/>
      <point x="35" y="96"/>
      <point x="114" y="-15"/>
      <point x="221" y="-15" type="curve" smooth="yes"/>
      <point x="293" y="-15"/>
      <point x="365" y="35"/>
      <point x="396" y="104" type="curve"/>
      <point x="397" y="-28" type="line"/>
      <point x="402" y="-28" type="line"/>
      <point x="411" y="-3"/>
      <point x="451" y="10" name=".hr01"/>
      <point x="516" y="10" type="curve" smooth="yes"/>
      <point x="618" y="10" type="line"/>
      <point x="618" y="19" type="line"/>
      <point x="560" y="19"/>
      <point x="537" y="44"/>
      <point x="537" y="104" type="curve" smooth="yes"/>
    </contour>
  </outline>
</glyph>
<glyph name="Lslash" format="2">
  <advance width="589"/>
  <unicode hex="0141"/>
  <outline>
    <contour>
      <point x="325" y="13" type="line" smooth="yes"/>
      <point x="273" y="13"/>
      <point x="255" y="38"/>
      <point x="255" y="80" type="curve" smooth="yes"/>
      <point x="255" y="393" type="line"/>
      <point x="404" y="478" type="line"/>
      <point x="404" y="491" type="line"/>
      <point x="255" y="406" type="line"/>
      <point x="255" y="660" type="line" smooth="yes"/>
      <point x="255" y="708"/>
      <point x="287" y="740"/>
      <point x="335" y="740" type="curve" smooth="yes"/>
      <point x="339" y="740" type="line"/>
      <point x="339" y="750" type="line"/>
      <point x="20" y="750" type="line"/>
      <point x="20" y="740" type="line"/>
      <point x="21" y="740" type="line"/>
      <point x="69" y="740"/>
      <point x="101" y="708"/>
      <point x="101" y="660" type="curve" smooth="yes"/>
      <point x="101" y="318" type="line"/>
      <point x="20" y="271" type="line"/>
      <point x="20" y="258" type="line"/>
      <point x="101" y="305" type="line"/>
      <point x="101" y="84" type="line" smooth="yes"/>
      <point x="101" y="36"/>
      <point x="69" y="10" name=".hr01"/>
      <point x="21" y="10" type="curve"/>
      <point x="20" y="10" type="line"/>
      <point x="20" y="0" type="line"/>
      <point x="553" y="0" type="line"/>
      <point x="583" y="223" type="line"/>
      <point x="573" y="223" type="line"/>
      <point x="552" y="91"/>
      <point x="464" y="13" name=".hr02"/>
      <point x="346" y="13" type="curve" smooth="yes"/>
    </contour>
  </outline>
</glyph>
<glyph name="lslash" format="2">
  <advance width="326"/>
  <unicode hex="0142"/>
  <outline>
    <contour>
      <point x="239" y="788" type="line"/>
      <point x="229" y="788" type="line"/>
      <point x="215" y="765"/>
      <point x="186" y="750"/>
      <point x="116" y="750" type="curve" smooth="yes"/>
      <point x="14" y="750" type="line"/>
      <point x="14" y="740" type="line"/>
      <point x="62" y="740"/>
      <point x="95" y="708"/>
      <point x="95" y="660" type="curve" smooth="yes"/>
      <point x="95" y="329" type="line"/>
      <point x="-6" y="272" type="line"/>
      <point x="-6" y="259" type="line"/>
      <point x="95" y="316" type="line"/>
      <point x="95" y="90" type="line" smooth="yes"/>
      <point x="95" y="41"/>
      <point x="62" y="10"/>
      <point x="14" y="10" type="curve"/>
      <point x="14" y="0" type="line"/>
      <point x="320" y="0" type="line"/>
      <point x="320" y="10" type="line"/>
      <point x="272" y="10"/>
      <point x="239" y="41"/>
      <point x="239" y="90" type="curve" smooth="yes"/>
      <point x="239" y="399" type="line"/>
      <point x="335" y="454" type="line"/>
      <point x="335" y="467" type="line"/>
      <point x="239" y="412" type="line"/>
    </contour>
  </outline>
</glyph>
<glyph name="OE" format="2">
  <advance width="1065"/>
  <unicode hex="0152"/>
  <outline>
    <contour>
      <point x="207" y="376" type="curve" smooth="yes"/>
      <point x="207" y="601"/>
      <point x="300" y="751"/>
      <point x="439" y="751" type="curve" smooth="yes"/>
      <point x="480" y="751"/>
      <point x="517" y="738"/>
      <point x="549" y="714" type="curve"/>
      <point x="549" y="39" type="line"/>
      <point x="517" y="15"/>
      <point x="480" y="2"/>
      <point x="439" y="2" type="curve" smooth="yes"/>
      <point x="300" y="2"/>
      <point x="207" y="151"/>
    </contour>
    <contour>
      <point x="787" y="737" type="line" smooth="yes"/>
      <point x="925" y="737"/>
      <point x="1004" y="674"/>
      <point x="1024" y="549" type="curve"/>
      <point x="1034" y="549" type="line"/>
      <point x="1004" y="750" type="line"/>
      <point x="618" y="750" type="line" smooth="yes"/>
      <point x="531" y="750"/>
      <point x="501" y="764"/>
      <point x="439" y="764" type="curve" smooth="yes"/>
      <point x="198" y="764"/>
      <point x="37" y="608"/>
      <point x="37" y="375" type="curve" smooth="yes"/>
      <point x="37" y="142"/>
      <point x="198" y="-14"/>
      <point x="439" y="-14" type="curve" smooth="yes"/>
      <point x="501" y="-14"/>
      <point x="531" y="0"/>
      <point x="618" y="0" type="curve" smooth="yes" name=".hr01"/>
      <point x="1022" y="0" type="line"/>
      <point x="1052" y="220" type="line"/>
      <point x="1042" y="220" type="line"/>
      <point x="1021" y="78"/>
      <point x="943" y="13"/>
      <point x="815" y="13" type="curve" smooth="yes"/>
      <point x="767" y="13" type="line" smooth="yes"/>
      <point x="729" y="13"/>
      <point x="703" y="39"/>
      <point x="703" y="77" type="curve" smooth="yes"/>
      <point x="703" y="435" type="line"/>
      <point x="782" y="435" type="line" smooth="yes"/>
      <point x="854" y="435"/>
      <point x="902" y="385"/>
      <point x="903" y="313" type="curve"/>
      <point x="913" y="313" type="line"/>
      <point x="913" y="559" type="line"/>
      <point x="903" y="559" type="line"/>
      <point x="903" y="493"/>
      <point x="859" y="448"/>
      <point x="793" y="448" type="curve" smooth="yes"/>
      <point x="703" y="448" type="line"/>
      <point x="703" y="737" type="line"/>
    </contour>
  </outline>
</glyph>
<glyph name="oe" format="2">
  <advance width="936"/>
  <unicode hex="0153"/>
  <outline>
    <contour>
      <point x="193" y="257" type="curve" smooth="yes"/>
      <point x="193" y="406"/>
      <point x="240" y="512"/>
      <point x="306" y="512" type="curve" smooth="yes"/>
      <point x="371" y="512"/>
      <point x="418" y="406"/>
      <point x="418" y="257" type="curve" smooth="yes"/>
      <point x="418" y="109"/>
      <point x="371" y="1"/>
      <point x="305" y="1" type="curve" smooth="yes"/>
      <point x="240" y="1"/>
      <point x="193" y="109"/>
    </contour>
    <contour>
      <point x="569" y="330" type="line"/>
      <point x="574" y="437"/>
      <point x="617" y="507"/>
      <point x="675" y="507" type="curve" smooth="yes" name=".hr01"/>
      <point x="733" y="507"/>
      <point x="772" y="438"/>
      <point x="772" y="330" type="curve"/>
    </contour>
    <contour>
      <point x="33" y="256" type="curve" smooth="yes"/>
      <point x="33" y="95"/>
      <point x="141" y="-12"/>
      <point x="306" y="-12" type="curve" smooth="yes"/>
      <point x="390" y="-12"/>
      <point x="459" y="16"/>
      <point x="506" y="64" type="curve"/>
      <point x="548" y="16"/>
      <point x="608" y="-12"/>
      <point x="678" y="-12" type="curve" smooth="yes"/>
      <point x="787" y="-12"/>
      <point x="877" y="55"/>
      <point x="912" y="161" type="curve"/>
      <point x="903" y="164" type="line"/>
      <point x="865" y="108"/>
      <point x="801" y="72"/>
      <point x="739" y="72" type="curve" smooth="yes" name=".hr02"/>
      <point x="637" y="72"/>
      <point x="567" y="168"/>
      <point x="568" y="310" type="curve"/>
      <point x="568" y="315" type="line"/>
      <point x="903" y="315" type="line"/>
      <point x="903" y="330" type="line"/>
      <point x="899" y="444"/>
      <point x="811" y="522"/>
      <point x="686" y="522" type="curve" smooth="yes"/>
      <point x="612" y="522"/>
      <point x="550" y="495"/>
      <point x="507" y="447" type="curve"/>
      <point x="460" y="496"/>
      <point x="390" y="524"/>
      <point x="306" y="524" type="curve" smooth="yes" name=".hr03"/>
      <point x="141" y="524"/>
      <point x="33" y="418"/>
    </contour>
  </outline>
</glyph>
<glyph name="Scaron" format="2">
  <advance width="510"/>
  <unicode hex="0160"/>
  <outline>
    <contour>
      <point x="264" y="749" type="curve" smooth="yes"/>
      <point x="350" y="749"/>
      <point x="416" y="671"/>
      <point x="435" y="548" type="curve"/>
      <point x="445" y="548" type="line"/>
      <point x="435" y="750" type="line" name=".hr01"/>
      <point x="354" y="750"/>
      <point x="333" y="764" name=".hr02"/>
      <point x="270" y="764" type="curve" smooth="yes"/>
      <point x="126" y="764"/>
      <point x="35" y="691"/>
      <point x="35" y="575" type="curve" smooth="yes"/>
      <point x="35" y="503"/>
      <point x="70" y="450"/>
      <point x="168" y="375" type="curve" smooth="yes"/>
      <point x="209" y="344" type="line" smooth="yes"/>
      <point x="340" y="244"/>
      <point x="381" y="193"/>
      <point x="381" y="130" type="curve" smooth="yes"/>
      <point x="381" y="56"/>
      <point x="323" y="4"/>
      <point x="240" y="4" type="curve" smooth="yes"/>
      <point x="130" y="4"/>
      <point x="55" y="97"/>
      <point x="35" y="260" type="curve"/>
      <point x="23" y="260" type="line"/>
      <point x="58" y="0" type="line" name=".hr03"/>
      <point x="159" y="0"/>
      <point x="173" y="-14" name=".hr04"/>
      <point x="235" y="-14" type="curve"/>
      <point x="391" y="-12"/>
      <point x="497" y="79"/>
      <point x="497" y="213" type="curve" smooth="yes"/>
      <point x="497" y="299"/>
      <point x="453" y="361"/>
      <point x="319" y="461" type="curve" smooth="yes"/>
      <point x="277" y="493" type="line" smooth="yes"/>
      <point x="193" y="556"/>
      <point x="163" y="597"/>
      <point x="163" y="650" type="curve" smooth="yes"/>
      <point x="163" y="710"/>
      <point x="203" y="749"/>
    </contour>
    <contour>
      <point x="284" y="797" type="line"/>
      <point x="412" y="993" type="line"/>
      <point x="405" y="1000" type="line"/>
      <point x="259" y="867" type="line"/>
      <point x="113" y="1000" type="line"/>
      <point x="106" y="993" type="line"/>
      <point x="233" y="797" type="line"/>
    </contour>
  </outline>
</glyph>
<glyph name="scaron" format="2">
  <advance width="416"/>
  <unicode hex="0161"/>
  <outline>
    <contour>
      <point x="226" y="508" type="curve" smooth="yes"/>
      <point x="284" y="508"/>
      <point x="345" y="441"/>
      <point x="358" y="347" type="curve"/>
      <point x="370" y="347" type="line"/>
      <point x="356" y="508" type="line"/>
      <point x="276" y="508"/>
      <point x="273" y="522" name=".hr01"/>
      <point x="219" y="522" type="curve"/>
      <point x="110" y="523"/>
      <point x="37" y="467"/>
      <point x="37" y="376" type="curve" smooth="yes"/>
      <point x="37" y="313"/>
      <point x="71" y="255"/>
      <point x="145" y="214" type="curve" smooth="yes"/>
      <point x="174" y="198" type="line" smooth="yes"/>
      <point x="268" y="146"/>
      <point x="301" y="122"/>
      <point x="301" y="77" type="curve" smooth="yes"/>
      <point x="301" y="29"/>
      <point x="264" y="-1"/>
      <point x="197" y="-1" type="curve" smooth="yes"/>
      <point x="134" y="-1"/>
      <point x="60" y="56"/>
      <point x="41" y="188" type="curve"/>
      <point x="28" y="188" type="line"/>
      <point x="52" y="0" type="line"/>
      <point x="153" y="0"/>
      <point x="140" y="-14"/>
      <point x="204" y="-14" type="curve"/>
      <point x="327" y="-13"/>
      <point x="391" y="41"/>
      <point x="391" y="144" type="curve" smooth="yes"/>
      <point x="391" y="225"/>
      <point x="350" y="271"/>
      <point x="257" y="319" type="curve" smooth="yes"/>
      <point x="228" y="334" type="line" smooth="yes"/>
      <point x="162" y="369"/>
      <point x="143" y="396"/>
      <point x="143" y="432" type="curve" smooth="yes"/>
      <point x="143" y="479"/>
      <point x="175" y="508"/>
    </contour>
    <contour>
      <point x="226" y="581" type="line"/>
      <point x="353" y="777" type="line"/>
      <point x="346" y="784" type="line"/>
      <point x="200" y="651" type="line"/>
      <point x="54" y="784" type="line"/>
      <point x="47" y="777" type="line"/>
      <point x="175" y="581" type="line"/>
    </contour>
  </outline>
</glyph>
<glyph name="Ydieresis" format="2">
  <advance width="639"/>
  <unicode hex="0178"/>
  <outline>
    <contour>
      <point x="474" y="740" type="line"/>
      <point x="553" y="740"/>
      <point x="565" y="690"/>
      <point x="514" y="621" type="curve" smooth="yes"/>
      <point x="393" y="458" type="line"/>
      <point x="263" y="634" type="line" smooth="yes"/>
      <point x="221" y="690"/>
      <point x="239" y="740"/>
      <point x="312" y="740" type="curve"/>
      <point x="312" y="750" type="line"/>
      <point x="-27" y="750" type="line"/>
      <point x="-27" y="740" type="line"/>
      <point x="-26" y="740" type="line"/>
      <point x="8" y="740"/>
      <point x="31" y="724"/>
      <point x="48" y="702" type="curve" smooth="yes"/>
      <point x="258" y="430" type="line"/>
      <point x="258" y="90" type="line" smooth="yes"/>
      <point x="258" y="42"/>
      <point x="226" y="10"/>
      <point x="178" y="10" type="curve"/>
      <point x="176" y="10" type="line"/>
      <point x="175" y="0" type="line"/>
      <point x="484" y="0" type="line"/>
      <point x="483" y="10" type="line"/>
      <point x="481" y="10" type="line"/>
      <point x="435" y="10"/>
      <point x="403" y="43"/>
      <point x="403" y="90" type="curve" smooth="yes"/>
      <point x="403" y="448" type="line"/>
      <point x="543" y="637" type="line" smooth="yes"/>
      <point x="588" y="697"/>
      <point x="619" y="737"/>
      <point x="664" y="740" type="curve"/>
      <point x="664" y="750" type="line"/>
      <point x="474" y="750" type="line"/>
    </contour>
    <contour>
      <point x="172" y="881" type="curve" smooth="yes" name=".hr01"/>
      <point x="172" y="840"/>
      <point x="206" y="806"/>
      <point x="247" y="806" type="curve" smooth="yes"/>
      <point x="288" y="806"/>
      <point x="322" y="840"/>
      <point x="322" y="881" type="curve" smooth="yes"/>
      <point x="322" y="922"/>
      <point x="288" y="956"/>
      <point x="247" y="956" type="curve" smooth="yes"/>
      <point x="206" y="956"/>
      <point x="172" y="922"/>
    </contour>
    <contour>
      <point x="370" y="881" type="curve" smooth="yes"/>
      <point x="370" y="840"/>
      <point x="404" y="806"/>
      <point x="445" y="806" type="curve" smooth="yes"/>
      <point x="486" y="806"/>
      <point x="520" y="840"/>
      <point x="520" y="881" type="curve" smooth="yes"/>
      <point x="520" y="922"/>
      <point x="486" y="956"/>
      <point x="445" y="956" type="curve" smooth="yes"/>
      <point x="404" y="956"/>
      <point x="370" y="922"/>
    </contour>
  </outline>
</glyph>
<glyph name="Zcaron" format="2">
  <advance width="570"/>
  <unicode hex="017D"/>
  <outline>
    <contour>
      <point x="540" y="0" type="line"/>
      <point x="570" y="222" type="line"/>
      <point x="560" y="222" type="line"/>
      <point x="539" y="75"/>
      <point x="461" y="13"/>
      <point x="333" y="13" type="curve" smooth="yes"/>
      <point x="166" y="13" type="line"/>
      <point x="530" y="740" type="line"/>
      <point x="530" y="750" type="line"/>
      <point x="93" y="750" type="line"/>
      <point x="63" y="548" type="line"/>
      <point x="73" y="548" type="line"/>
      <point x="90" y="672"/>
      <point x="175" y="737"/>
      <point x="315" y="737" type="curve" smooth="yes"/>
      <point x="366" y="737" type="line"/>
      <point x="1" y="10" type="line"/>
      <point x="1" y="0" type="line"/>
    </contour>
    <contour>
      <point x="321" y="798" type="line"/>
      <point x="449" y="994" type="line"/>
      <point x="442" y="1001" type="line"/>
      <point x="296" y="868" type="line"/>
      <point x="150" y="1001" type="line"/>
      <point x="143" y="994" type="line"/>
      <point x="270" y="798" type="line"/>
    </contour>
  </outline>
</glyph>
<glyph name="zcaron" format="2">
  <advance width="481"/>
  <unicode hex="017E"/>
  <outline>
    <contour>
      <point x="69" y="508" type="line"/>
      <point x="48" y="347" type="line"/>
      <point x="60" y="347" type="line"/>
      <point x="76" y="451"/>
      <point x="124" y="496"/>
      <point x="200" y="496" type="curve" smooth="yes"/>
      <point x="270" y="496" type="line"/>
      <point x="26" y="10" type="line"/>
      <point x="26" y="0" type="line"/>
      <point x="416" y="0" type="line"/>
      <point x="441" y="183" type="line"/>
      <point x="429" y="183" type="line"/>
      <point x="411" y="64"/>
      <point x="362" y="13"/>
      <point x="281" y="13" type="curve" smooth="yes"/>
      <point x="175" y="13" type="line"/>
      <point x="421" y="498" type="line"/>
      <point x="421" y="508" type="line"/>
    </contour>
    <contour>
      <point x="264" y="581" type="line"/>
      <point x="392" y="777" type="line"/>
      <point x="385" y="784" type="line"/>
      <point x="239" y="651" type="line"/>
      <point x="93" y="784" type="line"/>
      <point x="86" y="777" type="line"/>
      <point x="213" y="581" type="line"/>
    </contour>
  </outline>
</glyph>
<glyph name="caron" format="2">
  <advance width="349"/>
  <unicode hex="02C7"/>
  <outline>
    <contour>
      <point x="200" y="581" type="line"/>
      <point x="328" y="777" type="line"/>
      <point x="321" y="784" type="line"/>
      <point x="175" y="651" type="line"/>
      <point x="29" y="784" type="line"/>
      <point x="22" y="777" type="line"/>
      <point x="149" y="581" type="line"/>
    </contour>
  </outline>
</glyph>
<glyph name="tilde" format="2">
  <advance width="357"/>
  <unicode hex="02DC"/>
  <outline>
    <contour>
      <point x="316" y="727" type="line"/>
      <point x="297" y="693"/>
      <point x="276" y="683"/>
      <point x="256" y="683" type="curve" smooth="yes"/>
      <point x="209" y="683"/>
      <point x="181" y="740" name=".hr01"/>
      <point x="129" y="740" type="curve" smooth="yes"/>
      <point x="94" y="740"/>
      <point x="55" y="696"/>
      <point x="31" y="630" type="curve"/>
      <point x="41" y="626" type="line"/>
      <point x="58" y="657"/>
      <point x="85" y="670"/>
      <point x="107" y="670" type="curve" smooth="yes"/>
      <point x="153" y="670"/>
      <point x="181" y="613" name=".hr02"/>
      <point x="234" y="613" type="curve" smooth="yes"/>
      <point x="273" y="613"/>
      <point x="310" y="657"/>
      <point x="326" y="723" type="curve"/>
    </contour>
  </outline>
</glyph>
<glyph name="endash" format="2">
  <advance width="454"/>
  <unicode hex="2013"/>
  <outline>
    <contour>
      <point x="30" y="295" type="line"/>
      <point x="425" y="295" type="line"/>
      <point x="425" y="305" type="line"/>
      <point x="30" y="305" type="line"/>
    </contour>
  </outline>
</glyph>
<glyph name="quoteleft" format="2">
  <advance width="221"/>
  <unicode hex="2018"/>
  <outline>
    <contour>
      <point x="191" y="579" type="curve" smooth="yes"/>
      <point x="191" y="659"/>
      <point x="93" y="631"/>
      <point x="93" y="689" type="curve" smooth="yes"/>
      <point x="93" y="733"/>
      <point x="130" y="759"/>
      <point x="173" y="810" type="curve"/>
      <point x="164" y="814" type="line"/>
      <point x="95" y="738"/>
      <point x="31" y="689"/>
      <point x="31" y="594" type="curve" smooth="yes"/>
      <point x="31" y="539"/>
      <point x="63" y="503"/>
      <point x="112" y="503" type="curve" smooth="yes"/>
      <point x="159" y="503"/>
      <point x="191" y="533"/>
    </contour>
  </outline>
</glyph>
<glyph name="quotesinglbase" format="2">
  <advance width="220"/>
  <unicode hex="201A"/>
  <outline>
    <contour>
      <point x="30" y="80" type="curve" smooth="yes"/>
      <point x="30" y="0"/>
      <point x="128" y="28"/>
      <point x="128" y="-30" type="curve" smooth="yes"/>
      <point x="128" y="-74"/>
      <point x="91" y="-100"/>
      <point x="48" y="-151" type="curve"/>
      <point x="57" y="-155" type="line"/>
      <point x="126" y="-79"/>
      <point x="190" y="-30"/>
      <point x="190" y="65" type="curve" smooth="yes"/>
      <point x="190" y="120"/>
      <point x="158" y="156"/>
      <point x="109" y="156" type="curve" smooth="yes"/>
      <point x="62" y="156"/>
      <point x="30" y="126"/>
    </contour>
  </outline>
</glyph>
<glyph name="quotedblright" format="2">
  <advance width="416"/>
  <unicode hex="201D"/>
  <outline>
    <contour>
      <point x="31" y="738" type="curve" smooth="yes"/>
      <point x="31" y="658"/>
      <point x="129" y="686"/>
      <point x="129" y="628" type="curve" smooth="yes"/>
      <point x="129" y="584"/>
      <point x="92" y="558"/>
      <point x="49" y="507" type="curve"/>
      <point x="58" y="503" type="line"/>
      <point x="127" y="579"/>
      <point x="191" y="628"/>
      <point x="191" y="723" type="curve" smooth="yes"/>
      <point x="191" y="778"/>
      <point x="159" y="814"/>
      <point x="110" y="814" type="curve" smooth="yes"/>
      <point x="63" y="814"/>
      <point x="31" y="784"/>
    </contour>
    <contour>
      <point x="226" y="738" type="curve" smooth="yes"/>
      <point x="226" y="658"/>
      <point x="324" y="686"/>
      <point x="324" y="628" type="curve" smooth="yes"/>
      <point x="324" y="584"/>
      <point x="287" y="558"/>
      <point x="244" y="507" type="curve"/>
      <point x="253" y="503" type="line"/>
      <point x="322" y="579"/>
      <point x="386" y="628"/>
      <point x="386" y="723" type="curve" smooth="yes"/>
      <point x="386" y="778"/>
      <point x="354" y="814"/>
      <point x="305" y="814" type="curve" smooth="yes"/>
      <point x="258" y="814"/>
      <point x="226" y="784"/>
    </contour>
  </outline>
</glyph>
<glyph name="bullet" format="2">
  <advance width="400"/>
  <unicode hex="2022"/>
  <outline>
    <contour>
      <point x="30" y="314" type="curve" smooth="yes"/>
      <point x="30" y="222"/>
      <point x="108" y="144"/>
      <point x="200" y="144" type="curve" smooth="yes"/>
      <point x="292" y="144"/>
      <point x="370" y="222"/>
      <point x="370" y="314" type="curve" smooth="yes"/>
      <point x="370" y="408"/>
      <point x="292" y="484"/>
      <point x="200" y="484" type="curve" smooth="yes"/>
      <point x="108" y="484"/>
      <point x="30" y="408"/>
    </contour>
  </outline>
</glyph>
<glyph name="ellipsis" format="2">
  <advance width="666"/>
  <unicode hex="2026"/>
  <outline>
    <contour>
      <point x="30" y="71" type="curve" smooth="yes"/>
      <point x="30" y="25"/>
      <point x="69" y="-14"/>
      <point x="115" y="-14" type="curve" smooth="yes"/>
      <point x="161" y="-14"/>
      <point x="200" y="25"/>
      <point x="200" y="71" type="curve" smooth="yes"/>
      <point x="200" y="118"/>
      <point x="161" y="156"/>
      <point x="115" y="156" type="curve" smooth="yes"/>
      <point x="69" y="156"/>
      <point x="30" y="118"/>
    </contour>
    <contour>
      <point x="248" y="71" type="curve" smooth="yes"/>
      <point x="248" y="25"/>
      <point x="287" y="-14"/>
      <point x="333" y="-14" type="curve" smooth="yes"/>
      <point x="379" y="-14"/>
      <point x="418" y="25"/>
      <point x="418" y="71" type="curve" smooth="yes"/>
      <point x="418" y="118"/>
      <point x="379" y="156"/>
      <point x="333" y="156" type="curve" smooth="yes"/>
      <point x="287" y="156"/>
      <point x="248" y="118"/>
    </contour>
    <contour>
      <point x="466" y="71" type="curve" smooth="yes"/>
      <point x="466" y="25"/>
      <point x="505" y="-14"/>
      <point x="551" y="-14" type="curve" smooth="yes"/>
      <point x="597" y="-14"/>
      <point x="636" y="25"/>
      <point x="636" y="71" type="curve" smooth="yes"/>
      <point x="636" y="118"/>
      <point x="597" y="156"/>
      <point x="551" y="156" type="curve" smooth="yes"/>
      <point x="505" y="156"/>
      <point x="466" y="118"/>
    </contour>
  </outline>
</glyph>
<glyph name="guilsinglright" format="2">
  <advance width="213"/>
  <unicode hex="203A"/>
  <outline>
    <contour>
      <point x="180" y="247" type="line"/>
      <point x="184" y="251"/>
      <point x="184" y="257"/>
      <point x="180" y="261" type="curve"/>
      <point x="38" y="412" type="line"/>
      <point x="31" y="405" type="line"/>
      <point x="110" y="254" type="line"/>
      <point x="31" y="103" type="line"/>
      <point x="38" y="96" type="line"/>
    </contour>
  </outline>
</glyph>
<glyph name="trademark" format="2">
  <advance width="865"/>
  <unicode hex="2122"/>
  <outline>
    <contour>
      <point x="40" y="750" type="line"/>
      <point x="25" y="641" type="line"/>
      <point x="35" y="641" type="line"/>
      <point x="46" y="714"/>
      <point x="86" y="740"/>
      <point x="135" y="740" type="curve" smooth="yes"/>
      <point x="153" y="740" type="line"/>
      <point x="153" y="434" type="line" smooth="yes"/>
      <point x="153" y="411"/>
      <point x="138" y="395"/>
      <point x="114" y="395" type="curve"/>
      <point x="114" y="385" type="line"/>
      <point x="268" y="385" type="line"/>
      <point x="268" y="395" type="line"/>
      <point x="244" y="395"/>
      <point x="229" y="411"/>
      <point x="229" y="434" type="curve" smooth="yes"/>
      <point x="229" y="740" type="line"/>
      <point x="246" y="740" type="line" smooth="yes"/>
      <point x="296" y="740"/>
      <point x="336" y="713"/>
      <point x="347" y="641" type="curve"/>
      <point x="357" y="641" type="line"/>
      <point x="343" y="750" type="line"/>
    </contour>
    <contour>
      <point x="810" y="740" type="curve"/>
      <point x="810" y="750" type="line"/>
      <point x="717" y="750" type="line"/>
      <point x="598" y="479" type="line"/>
      <point x="482" y="750" type="line"/>
      <point x="365" y="750" type="line"/>
      <point x="365" y="740" type="line"/>
      <point x="394" y="740"/>
      <point x="415" y="723"/>
      <point x="424" y="704" type="curve"/>
      <point x="400" y="441" type="line" smooth="yes"/>
      <point x="398" y="416"/>
      <point x="378" y="397"/>
      <point x="354" y="395" type="curve"/>
      <point x="354" y="385" type="line"/>
      <point x="451" y="385" type="line"/>
      <point x="451" y="395" type="line"/>
      <point x="427" y="396"/>
      <point x="408" y="415"/>
      <point x="410" y="441" type="curve" smooth="yes"/>
      <point x="432" y="687" type="line"/>
      <point x="567" y="379" type="line"/>
      <point x="702" y="690" type="line"/>
      <point x="725" y="426" type="line" smooth="yes"/>
      <point x="727" y="407"/>
      <point x="707" y="395"/>
      <point x="690" y="395" type="curve"/>
      <point x="690" y="385" type="line"/>
      <point x="841" y="385" type="line"/>
      <point x="841" y="395" type="line"/>
      <point x="822" y="395"/>
      <point x="800" y="407"/>
      <point x="798" y="428" type="curve" smooth="yes"/>
      <point x="774" y="705" type="line" smooth="yes"/>
      <point x="772" y="730"/>
      <point x="786" y="740"/>
    </contour>
  </outline>
</glyph>
<glyph name="notequal" format="2">
  <advance width="420"/>
  <unicode hex="2260"/>
  <outline>
    <contour>
      <point x="375" y="281" type="line"/>
      <point x="375" y="291" type="line"/>
      <point x="191" y="291" type="line"/>
      <point x="240" y="387" type="line"/>
      <point x="375" y="387" type="line"/>
      <point x="375" y="397" type="line"/>
      <point x="245" y="397" type="line"/>
      <point x="300" y="507" type="line"/>
      <point x="289" y="507" type="line"/>
      <point x="234" y="397" type="line"/>
      <point x="45" y="397" type="line"/>
      <point x="45" y="387" type="line"/>
      <point x="229" y="387" type="line"/>
      <point x="180" y="291" type="line"/>
      <point x="45" y="291" type="line"/>
      <point x="45" y="281" type="line"/>
      <point x="175" y="281" type="line"/>
      <point x="120" y="171" type="line"/>
      <point x="131" y="171" type="line"/>
      <point x="186" y="281" type="line"/>
    </contour>
  </outline>
</glyph>
<glyph name="f_f_l" format="2">
  <advance width="943"/>
  <unicode hex="FB04"/>
  <outline>
    <contour>
      <point x="408" y="490" type="line"/>
      <point x="408" y="90" type="line" smooth="yes"/>
      <point x="408" y="42"/>
      <point x="376" y="10"/>
      <point x="328" y="10" type="curve" smooth="yes"/>
      <point x="307" y="10" type="line" smooth="yes"/>
      <point x="259" y="10"/>
      <point x="226" y="43"/>
      <point x="226" y="90" type="curve" smooth="yes"/>
      <point x="226" y="490" type="line"/>
    </contour>
    <contour>
      <point x="552" y="508" type="line"/>
      <point x="552" y="584" type="line" smooth="yes"/>
      <point x="552" y="695"/>
      <point x="589" y="767"/>
      <point x="643" y="767" type="curve" smooth="yes"/>
      <point x="693" y="767"/>
      <point x="734" y="706"/>
      <point x="734" y="614" type="curve" smooth="yes"/>
      <point x="734" y="90" type="line" smooth="yes"/>
      <point x="734" y="42"/>
      <point x="702" y="10"/>
      <point x="653" y="10" type="curve" smooth="yes"/>
      <point x="633" y="10" type="line" smooth="yes"/>
      <point x="585" y="10"/>
      <point x="552" y="42"/>
      <point x="552" y="90" type="curve" smooth="yes"/>
      <point x="552" y="490" type="line"/>
      <point x="675" y="490" type="line"/>
      <point x="685" y="508" type="line"/>
    </contour>
    <contour>
      <point x="226" y="561" type="line" smooth="yes"/>
      <point x="226" y="664"/>
      <point x="263" y="733"/>
      <point x="318" y="733" type="curve" smooth="yes"/>
      <point x="367" y="733"/>
      <point x="408" y="678"/>
      <point x="408" y="594" type="curve" smooth="yes"/>
      <point x="408" y="508" type="line"/>
      <point x="226" y="508" type="line"/>
    </contour>
    <contour>
      <point x="959" y="0" type="line"/>
      <point x="959" y="10" type="line"/>
      <point x="958" y="10" type="line"/>
      <point x="910" y="10"/>
      <point x="878" y="42"/>
      <point x="878" y="90" type="curve" smooth="yes"/>
      <point x="878" y="788" type="line"/>
      <point x="868" y="788" type="line"/>
      <point x="854" y="765"/>
      <point x="826" y="753"/>
      <point x="778" y="751" type="curve"/>
      <point x="742" y="769"/>
      <point x="696" y="780"/>
      <point x="647" y="780" type="curve" smooth="yes"/>
      <point x="567" y="780"/>
      <point x="501" y="749"/>
      <point x="459" y="694" type="curve"/>
      <point x="426" y="727"/>
      <point x="375" y="746"/>
      <point x="314" y="746" type="curve" smooth="yes"/>
      <point x="177" y="746"/>
      <point x="82" y="649"/>
      <point x="82" y="508" type="curve"/>
      <point x="7" y="508" type="line"/>
      <point x="-3" y="490" type="line"/>
      <point x="82" y="490" type="line"/>
      <point x="82" y="90" type="line" smooth="yes"/>
      <point x="82" y="42"/>
      <point x="49" y="10"/>
      <point x="1" y="10" type="curve"/>
      <point x="1" y="0" type="line"/>
    </contour>
  </outline>
</glyph>
<glyph name="eight.onum" format="2">
  <advance width="634"/>
  <outline>
    <contour>
      <point x="200" y="246" type="curve" smooth="yes"/>
      <point x="200" y="385"/>
      <point x="247" y="477"/>
      <point x="317" y="477" type="curve" smooth="yes"/>
      <point x="387" y="477"/>
      <point x="434" y="385"/>
      <point x="434" y="246" type="curve" smooth="yes"/>
      <point x="434" y="100"/>
      <point x="387" y="2"/>
      <point x="317" y="2" type="curve" smooth="yes"/>
      <point x="247" y="2"/>
      <point x="200" y="100"/>
    </contour>
    <contour>
      <point x="242" y="625" type="curve" smooth="yes"/>
      <point x="242" y="702" name=".hr01"/>
      <point x="272" y="754"/>
      <point x="317" y="754" type="curve" smooth="yes"/>
      <point x="362" y="754"/>
      <point x="392" y="702"/>
      <point x="392" y="624" type="curve" smooth="yes"/>
      <point x="392" y="544"/>
      <point x="362" y="490"/>
      <point x="317" y="490" type="curve" smooth="yes"/>
      <point x="272" y="490"/>
      <point x="242" y="544"/>
    </contour>
    <contour>
      <point x="42" y="236" type="curve" smooth="yes"/>
      <point x="42" y="86"/>
      <point x="152" y="-14" name=".hr02"/>
      <point x="317" y="-14" type="curve" smooth="yes"/>
      <point x="482" y="-14"/>
      <point x="592" y="86"/>
      <point x="592" y="235" type="curve" smooth="yes"/>
      <point x="592" y="371"/>
      <point x="502" y="466"/>
      <point x="364" y="483" type="curve"/>
      <point x="479" y="494"/>
      <point x="553" y="548"/>
      <point x="553" y="623" type="curve" smooth="yes"/>
      <point x="553" y="708" name=".hr03"/>
      <point x="459" y="764"/>
      <point x="317" y="764" type="curve" smooth="yes"/>
      <point x="175" y="764"/>
      <point x="81" y="708"/>
      <point x="81" y="624" type="curve" smooth="yes"/>
      <point x="81" y="548"/>
      <point x="155" y="494"/>
      <point x="270" y="483" type="curve"/>
      <point x="132" y="466"/>
      <point x="42" y="371"/>
    </contour>
  </outline>
</glyph>
<glyph name="f_b.liga" format="2">
  <advance width="940"/>
  <outline>
    <contour>
      <point x="551" y="389" type="line"/>
      <point x="569" y="440"/>
      <point x="620" y="483"/>
      <point x="666" y="483" type="curve" smooth="yes"/>
      <point x="725" y="483"/>
      <point x="753" y="411"/>
      <point x="753" y="263" type="curve" smooth="yes"/>
      <point x="753" y="93"/>
      <point x="716" y="3"/>
      <point x="646" y="3" type="curve" smooth="yes"/>
      <point x="592" y="3"/>
      <point x="556" y="56"/>
      <point x="551" y="138" type="curve"/>
    </contour>
    <contour>
      <point x="225" y="508" type="line" name=".hr01"/>
      <point x="225" y="584" type="line" smooth="yes"/>
      <point x="225" y="695"/>
      <point x="262" y="767"/>
      <point x="316" y="767" type="curve" smooth="yes"/>
      <point x="366" y="767"/>
      <point x="407" y="706"/>
      <point x="407" y="614" type="curve" smooth="yes"/>
      <point x="407" y="-14" type="line"/>
      <point x="417" y="-14" type="line"/>
      <point x="515" y="85" type="line"/>
      <point x="542" y="20"/>
      <point x="596" y="-14"/>
      <point x="675" y="-14" type="curve" smooth="yes"/>
      <point x="815" y="-14"/>
      <point x="907" y="93"/>
      <point x="907" y="256" type="curve" smooth="yes"/>
      <point x="907" y="410"/>
      <point x="822" y="523" name=".hr02"/>
      <point x="707" y="523" type="curve" smooth="yes"/>
      <point x="641" y="523"/>
      <point x="582" y="484"/>
      <point x="551" y="424" type="curve"/>
      <point x="551" y="788" type="line"/>
      <point x="541" y="788" type="line"/>
      <point x="527" y="765"/>
      <point x="499" y="753"/>
      <point x="451" y="751" type="curve"/>
      <point x="415" y="769"/>
      <point x="369" y="780"/>
      <point x="320" y="780" type="curve" smooth="yes"/>
      <point x="178" y="780"/>
      <point x="81" y="680"/>
      <point x="81" y="531" type="curve" smooth="yes"/>
      <point x="81" y="508" type="line" name=".hr03"/>
      <point x="6" y="508" type="line"/>
      <point x="-4" y="490" type="line"/>
      <point x="81" y="490" type="line"/>
      <point x="81" y="90" type="line" smooth="yes"/>
      <point x="81" y="42"/>
      <point x="48" y="10"/>
      <point x="0" y="10" type="curve"/>
      <point x="0" y="0" type="line"/>
      <point x="326" y="0" type="line"/>
      <point x="326" y="10" type="line"/>
      <point x="306" y="10" type="line" smooth="yes"/>
      <point x="258" y="10"/>
      <point x="225" y="42"/>
      <point x="225" y="90" type="curve" smooth="yes"/>
      <point x="225" y="490" type="line"/>
      <point x="348" y="490" type="line"/>
      <point x="358" y="508" type="line"/>
    </contour>
  </outline>
</glyph>
<glyph name="f_f_j.liga" format="2">
  <advance width="938"/>
  <outline>
    <contour>
      <point x="407" y="90" type="line" smooth="yes"/>
      <point x="407" y="42"/>
      <point x="375" y="10"/>
      <point x="327" y="10" type="curve" smooth="yes"/>
      <point x="306" y="10" type="line" smooth="yes"/>
      <point x="258" y="10"/>
      <point x="225" y="42"/>
      <point x="225" y="90" type="curve" smooth="yes"/>
      <point x="225" y="490" type="line"/>
      <point x="407" y="490" type="line"/>
    </contour>
    <contour>
      <point x="225" y="561" type="line" smooth="yes"/>
      <point x="225" y="664"/>
      <point x="262" y="733"/>
      <point x="317" y="733" type="curve" smooth="yes"/>
      <point x="366" y="733"/>
      <point x="407" y="679"/>
      <point x="407" y="595" type="curve" smooth="yes"/>
      <point x="407" y="508" type="line"/>
      <point x="225" y="508" type="line"/>
    </contour>
    <contour>
      <point x="733" y="-88" type="line" smooth="yes"/>
      <point x="733" y="-163"/>
      <point x="701" y="-213"/>
      <point x="652" y="-213" type="curve"/>
      <point x="652" y="-224" type="line"/>
      <point x="787" y="-224"/>
      <point x="877" y="-124"/>
      <point x="877" y="25" type="curve" smooth="yes"/>
      <point x="877" y="546" type="line"/>
      <point x="867" y="546" type="line"/>
      <point x="851" y="520"/>
      <point x="816" y="508"/>
      <point x="754" y="508" type="curve" smooth="yes"/>
      <point x="551" y="508" type="line"/>
      <point x="551" y="583" type="line" smooth="yes"/>
      <point x="551" y="695"/>
      <point x="586" y="767"/>
      <point x="640" y="767" type="curve" smooth="yes"/>
      <point x="692" y="767"/>
      <point x="727" y="703"/>
      <point x="728" y="607" type="curve"/>
      <point x="848" y="675" type="line"/>
      <point x="823" y="738"/>
      <point x="741" y="780"/>
      <point x="644" y="780" type="curve" smooth="yes"/>
      <point x="564" y="780"/>
      <point x="499" y="749"/>
      <point x="458" y="695" type="curve"/>
      <point x="425" y="727"/>
      <point x="373" y="746"/>
      <point x="313" y="746" type="curve" smooth="yes"/>
      <point x="176" y="746"/>
      <point x="81" y="649"/>
      <point x="81" y="508" type="curve"/>
      <point x="6" y="508" type="line"/>
      <point x="-4" y="490" type="line"/>
      <point x="81" y="490" type="line"/>
      <point x="81" y="90" type="line" smooth="yes"/>
      <point x="81" y="42"/>
      <point x="48" y="10"/>
      <point x="0" y="10" type="curve"/>
      <point x="0" y="0" type="line"/>
      <point x="652" y="0" type="line"/>
      <point x="652" y="10" type="line"/>
      <point x="632" y="10" type="line" smooth="yes"/>
      <point x="584" y="10"/>
      <point x="551" y="43"/>
      <point x="551" y="90" type="curve" smooth="yes"/>
      <point x="551" y="490" type="line"/>
      <point x="672" y="490" type="line" smooth="yes"/>
      <point x="716" y="490"/>
      <point x="733" y="462"/>
      <point x="733" y="411" type="curve" smooth="yes"/>
    </contour>
  </outline>
</glyph>
<glyph name="f_f_k.liga" format="2">
  <advance width="1254"/>
  <outline>
    <contour>
      <point x="408" y="490" type="line"/>
      <point x="408" y="90" type="line" smooth="yes"/>
      <point x="408" y="42"/>
      <point x="376" y="10"/>
      <point x="328" y="10" type="curve" smooth="yes"/>
      <point x="307" y="10" type="line" smooth="yes"/>
      <point x="259" y="10"/>
      <point x="226" y="42"/>
      <point x="226" y="90" type="curve" smooth="yes"/>
      <point x="226" y="490" type="line"/>
    </contour>
    <contour>
      <point x="552" y="508" type="line"/>
      <point x="552" y="584" type="line" smooth="yes"/>
      <point x="552" y="695"/>
      <point x="589" y="767"/>
      <point x="642" y="767" type="curve" smooth="yes"/>
      <point x="693" y="767"/>
      <point x="734" y="706"/>
      <point x="734" y="614" type="curve" smooth="yes"/>
      <point x="734" y="90" type="line" smooth="yes"/>
      <point x="734" y="42"/>
      <point x="702" y="10"/>
      <point x="654" y="10" type="curve" smooth="yes"/>
      <point x="633" y="10" type="line" smooth="yes"/>
      <point x="585" y="10"/>
      <point x="552" y="42"/>
      <point x="552" y="90" type="curve" smooth="yes"/>
      <point x="552" y="490" type="line"/>
      <point x="675" y="490" type="line"/>
      <point x="685" y="508" type="line"/>
    </contour>
    <contour>
      <point x="226" y="561" type="line" smooth="yes"/>
      <point x="226" y="664"/>
      <point x="263" y="733"/>
      <point x="318" y="733" type="curve" smooth="yes"/>
      <point x="367" y="733"/>
      <point x="408" y="679"/>
      <point x="408" y="597" type="curve" smooth="yes"/>
      <point x="408" y="508" type="line"/>
      <point x="226" y="508" type="line"/>
    </contour>
    <contour>
      <point x="959" y="0" type="line"/>
      <point x="959" y="10" type="line"/>
      <point x="958" y="10" type="line"/>
      <point x="910" y="10"/>
      <point x="878" y="42"/>
      <point x="878" y="90" type="curve" smooth="yes"/>
      <point x="878" y="243" type="line"/>
      <point x="915" y="275" type="line"/>
      <point x="1029" y="92" type="line" smooth="yes"/>
      <point x="1051" y="56"/>
      <point x="1059" y="38"/>
      <point x="1059" y="27" type="curve" smooth="yes"/>
      <point x="1059" y="14"/>
      <point x="1049" y="10"/>
      <point x="1017" y="10" type="curve"/>
      <point x="1017" y="0" type="line"/>
      <point x="1281" y="0" type="line"/>
      <point x="1281" y="10" type="line"/>
      <point x="1259" y="10"/>
      <point x="1240" y="21"/>
      <point x="1217" y="56" type="curve" smooth="yes"/>
      <point x="1018" y="362" type="line"/>
      <point x="1087" y="420" type="line" smooth="yes"/>
      <point x="1158" y="480"/>
      <point x="1182" y="491"/>
      <point x="1210" y="496" type="curve" smooth="yes"/>
      <point x="1220" y="498" type="line"/>
      <point x="1220" y="508" type="line"/>
      <point x="1071" y="508" type="line"/>
      <point x="1071" y="498" type="line"/>
      <point x="1084" y="495" type="line"/>
      <point x="1109" y="490"/>
      <point x="1104" y="452"/>
      <point x="1048" y="405" type="curve" smooth="yes"/>
      <point x="878" y="262" type="line"/>
      <point x="878" y="788" type="line"/>
      <point x="868" y="788" type="line"/>
      <point x="854" y="765"/>
      <point x="826" y="753"/>
      <point x="778" y="751" type="curve"/>
      <point x="741" y="769"/>
      <point x="696" y="780"/>
      <point x="647" y="780" type="curve" smooth="yes"/>
      <point x="567" y="780"/>
      <point x="501" y="749"/>
      <point x="459" y="694" type="curve"/>
      <point x="426" y="727"/>
      <point x="374" y="746"/>
      <point x="314" y="746" type="curve" smooth="yes"/>
      <point x="177" y="746"/>
      <point x="82" y="649"/>
      <point x="82" y="508" type="curve"/>
      <point x="7" y="508" type="line"/>
      <point x="-3" y="490" type="line"/>
      <point x="82" y="490" type="line"/>
      <point x="82" y="90" type="line" smooth="yes"/>
      <point x="82" y="42"/>
      <point x="49" y="10"/>
      <point x="1" y="10" type="curve"/>
      <point x="1" y="0" type="line"/>
    </contour>
  </outline>
</glyph>
<glyph name="f_f_t.liga" format="2">
  <advance width="1030"/>
  <outline>
    <contour>
      <point x="407" y="490" type="line"/>
      <point x="407" y="90" type="line" smooth="yes"/>
      <point x="407" y="42"/>
      <point x="375" y="10"/>
      <point x="327" y="10" type="curve" smooth="yes"/>
      <point x="306" y="10" type="line" smooth="yes"/>
      <point x="258" y="10"/>
      <point x="225" y="42"/>
      <point x="225" y="90" type="curve" smooth="yes"/>
      <point x="225" y="490" type="line"/>
    </contour>
    <contour>
      <point x="225" y="561" type="line" smooth="yes"/>
      <point x="225" y="664"/>
      <point x="262" y="733"/>
      <point x="317" y="733" type="curve" smooth="yes"/>
      <point x="365" y="733"/>
      <point x="407" y="681"/>
      <point x="407" y="601" type="curve" smooth="yes"/>
      <point x="407" y="508" type="line"/>
      <point x="225" y="508" type="line"/>
    </contour>
    <contour>
      <point x="1010" y="508" type="line"/>
      <point x="877" y="508" type="line"/>
      <point x="877" y="652" type="line"/>
      <point x="861" y="652" type="line"/>
      <point x="815" y="565"/>
      <point x="740" y="508"/>
      <point x="648" y="508" type="curve" smooth="yes"/>
      <point x="551" y="508" type="line"/>
      <point x="551" y="584" type="line" smooth="yes"/>
      <point x="551" y="695"/>
      <point x="589" y="767"/>
      <point x="645" y="767" type="curve" smooth="yes"/>
      <point x="696" y="767"/>
      <point x="732" y="707"/>
      <point x="733" y="617" type="curve"/>
      <point x="850" y="685" type="line"/>
      <point x="827" y="742"/>
      <point x="746" y="780"/>
      <point x="653" y="780" type="curve" smooth="yes"/>
      <point x="569" y="780"/>
      <point x="502" y="748"/>
      <point x="459" y="694" type="curve"/>
      <point x="426" y="727"/>
      <point x="374" y="746"/>
      <point x="313" y="746" type="curve" smooth="yes"/>
      <point x="176" y="746"/>
      <point x="81" y="649"/>
      <point x="81" y="508" type="curve"/>
      <point x="6" y="508" type="line"/>
      <point x="-4" y="490" type="line"/>
      <point x="81" y="490" type="line"/>
      <point x="81" y="90" type="line" smooth="yes"/>
      <point x="81" y="42"/>
      <point x="48" y="10"/>
      <point x="0" y="10" type="curve"/>
      <point x="0" y="0" type="line"/>
      <point x="652" y="0" type="line"/>
      <point x="652" y="10" type="line"/>
      <point x="632" y="10" type="line" smooth="yes"/>
      <point x="584" y="10"/>
      <point x="551" y="43"/>
      <point x="551" y="90" type="curve" smooth="yes"/>
      <point x="551" y="490" type="line"/>
      <point x="733" y="490" type="line"/>
      <point x="733" y="105" type="line" smooth="yes"/>
      <point x="733" y="35"/>
      <point x="782" y="-14" name=".hr01"/>
      <point x="851" y="-14" type="curve" smooth="yes"/>
      <point x="908" y="-14"/>
      <point x="973" y="22"/>
      <point x="1017" y="77" type="curve"/>
      <point x="1017" y="87" type="line"/>
      <point x="989" y="63"/>
      <point x="955" y="47"/>
      <point x="931" y="47" type="curve" smooth="yes"/>
      <point x="896" y="47"/>
      <point x="877" y="75"/>
      <point x="877" y="127" type="curve" smooth="yes"/>
      <point x="877" y="490" type="line"/>
      <point x="1000" y="490" type="line"/>
    </contour>
  </outline>
</glyph>
<glyph name="f_k.liga" format="2">
  <advance width="928"/>
  <outline>
    <contour>
      <point x="226" y="508" type="line"/>
      <point x="226" y="584" type="line" smooth="yes"/>
      <point x="226" y="695"/>
      <point x="263" y="767"/>
      <point x="316" y="767" type="curve" smooth="yes"/>
      <point x="367" y="767"/>
      <point x="408" y="706"/>
      <point x="408" y="614" type="curve" smooth="yes"/>
      <point x="408" y="90" type="line" smooth="yes"/>
      <point x="408" y="42"/>
      <point x="375" y="10"/>
      <point x="327" y="10" type="curve" smooth="yes"/>
      <point x="307" y="10" type="line" smooth="yes"/>
      <point x="259" y="10"/>
      <point x="226" y="42"/>
      <point x="226" y="90" type="curve" smooth="yes"/>
      <point x="226" y="490" type="line"/>
      <point x="349" y="490" type="line"/>
      <point x="359" y="508" type="line"/>
    </contour>
    <contour>
      <point x="633" y="0" type="line"/>
      <point x="633" y="10" type="line"/>
      <point x="632" y="10" type="line"/>
      <point x="584" y="10"/>
      <point x="552" y="42"/>
      <point x="552" y="90" type="curve" smooth="yes"/>
      <point x="552" y="243" type="line"/>
      <point x="589" y="275" type="line"/>
      <point x="703" y="92" type="line" smooth="yes"/>
      <point x="725" y="56"/>
      <point x="733" y="38"/>
      <point x="733" y="27" type="curve" smooth="yes"/>
      <point x="733" y="14"/>
      <point x="723" y="10"/>
      <point x="691" y="10" type="curve"/>
      <point x="691" y="0" type="line"/>
      <point x="955" y="0" type="line"/>
      <point x="955" y="10" type="line"/>
      <point x="933" y="10"/>
      <point x="914" y="21"/>
      <point x="891" y="56" type="curve" smooth="yes"/>
      <point x="692" y="362" type="line"/>
      <point x="761" y="420" type="line" smooth="yes"/>
      <point x="832" y="480"/>
      <point x="856" y="491"/>
      <point x="884" y="496" type="curve" smooth="yes"/>
      <point x="894" y="498" type="line"/>
      <point x="894" y="508" type="line"/>
      <point x="745" y="508" type="line"/>
      <point x="745" y="498" type="line"/>
      <point x="758" y="495" type="line"/>
      <point x="783" y="490"/>
      <point x="778" y="452"/>
      <point x="722" y="405" type="curve" smooth="yes"/>
      <point x="552" y="262" type="line"/>
      <point x="552" y="788" type="line"/>
      <point x="542" y="788" type="line"/>
      <point x="528" y="765"/>
      <point x="500" y="753"/>
      <point x="452" y="751" type="curve"/>
      <point x="415" y="769"/>
      <point x="370" y="780"/>
      <point x="321" y="780" type="curve" smooth="yes"/>
      <point x="179" y="780"/>
      <point x="82" y="680"/>
      <point x="82" y="531" type="curve" smooth="yes"/>
      <point x="82" y="508" type="line"/>
      <point x="7" y="508" type="line"/>
      <point x="-3" y="490" type="line"/>
      <point x="82" y="490" type="line"/>
      <point x="82" y="90" type="line" smooth="yes"/>
      <point x="82" y="42"/>
      <point x="49" y="10"/>
      <point x="1" y="10" type="curve"/>
      <point x="1" y="0" type="line"/>
    </contour>
  </outline>
</glyph>
